  0
SECTION
  2
HEADER
  9
$ACADVER
  1
AC1021
  9
$ACADMAINTVER
 70
     1
  9
$DWGCODEPAGE
  3
ANSI_936
  9
$LASTSAVEDBY
  1
Administrator
  9
$INSBASE
 10
0.0
 20
0.0
 30
0.0
  9
$EXTMIN
 10
-0.0000000000000004
 20
-7915.844000000001
 30
0.0
  9
$EXTMAX
 10
4956.540333333335
 20
-6955.976999999998
 30
0.0
  9
$LIMMIN
 10
0.0
 20
0.0
  9
$LIMMAX
 10
12.0
 20
9.0
  9
$ORTHOMODE
 70
     0
  9
$REGENMODE
 70
     1
  9
$FILLMODE
 70
     1
  9
$QTEXTMODE
 70
     0
  9
$MIRRTEXT
 70
     0
  9
$LTSCALE
 40
1.0
  9
$ATTMODE
 70
     1
  9
$TEXTSIZE
 40
1.0
  9
$TRACEWID
 40
0.05
  9
$TEXTSTYLE
  7
STANDARD
  9
$CLAYER
  8
0
  9
$CELTYPE
  6
CONTINUOUS
  9
$CECOLOR
 62
   256
  9
$CELTSCALE
 40
1.0
  9
$DISPSILH
 70
     0
  9
$DIMSCALE
 40
1.0
  9
$DIMASZ
 40
0.18
  9
$DIMEXO
 40
0.0625
  9
$DIMDLI
 40
0.38
  9
$DIMRND
 40
0.0
  9
$DIMDLE
 40
0.0
  9
$DIMEXE
 40
0.18
  9
$DIMTP
 40
0.0
  9
$DIMTM
 40
0.0
  9
$DIMTXT
 40
0.18
  9
$DIMCEN
 40
0.09
  9
$DIMTSZ
 40
0.0
  9
$DIMTOL
 70
     0
  9
$DIMLIM
 70
     0
  9
$DIMTIH
 70
     1
  9
$DIMTOH
 70
     1
  9
$DIMSE1
 70
     0
  9
$DIMSE2
 70
     0
  9
$DIMTAD
 70
     0
  9
$DIMZIN
 70
     0
  9
$DIMBLK
  1

  9
$DIMASO
 70
     1
  9
$DIMSHO
 70
     1
  9
$DIMPOST
  1

  9
$DIMAPOST
  1

  9
$DIMALT
 70
     0
  9
$DIMALTD
 70
     2
  9
$DIMALTF
 40
25.4
  9
$DIMLFAC
 40
1.0
  9
$DIMTOFL
 70
     0
  9
$DIMTVP
 40
0.0
  9
$DIMTIX
 70
     0
  9
$DIMSOXD
 70
     0
  9
$DIMSAH
 70
     0
  9
$DIMBLK1
  1

  9
$DIMBLK2
  1

  9
$DIMSTYLE
  2
Standard
  9
$DIMCLRD
 70
     0
  9
$DIMCLRE
 70
     0
  9
$DIMCLRT
 70
     0
  9
$DIMTFAC
 40
1.0
  9
$DIMGAP
 40
0.09
  9
$DIMJUST
 70
     0
  9
$DIMSD1
 70
     0
  9
$DIMSD2
 70
     0
  9
$DIMTOLJ
 70
     1
  9
$DIMTZIN
 70
     0
  9
$DIMALTZ
 70
     0
  9
$DIMALTTZ
 70
     0
  9
$DIMUPT
 70
     0
  9
$DIMDEC
 70
     4
  9
$DIMTDEC
 70
     4
  9
$DIMALTU
 70
     2
  9
$DIMALTTD
 70
     2
  9
$DIMTXSTY
  7
STANDARD
  9
$DIMAUNIT
 70
     0
  9
$DIMADEC
 70
     0
  9
$DIMALTRND
 40
0.0
  9
$DIMAZIN
 70
     0
  9
$DIMDSEP
 70
    46
  9
$DIMATFIT
 70
     3
  9
$DIMFRAC
 70
     0
  9
$DIMLDRBLK
  1

  9
$DIMLUNIT
 70
     2
  9
$DIMLWD
 70
    -2
  9
$DIMLWE
 70
    -2
  9
$DIMTMOVE
 70
     0
  9
$DIMFXL
 40
1.0
  9
$DIMFXLON
 70
     0
  9
$DIMJOGANG
 40
0.7853981633974483
  9
$DIMTFILL
 70
     0
  9
$DIMTFILLCLR
 70
     0
  9
$DIMARCSYM
 70
     0
  9
$DIMLTYPE
  6

  9
$DIMLTEX1
  6

  9
$DIMLTEX2
  6

  9
$LUNITS
 70
     2
  9
$LUPREC
 70
     4
  9
$SKETCHINC
 40
0.1
  9
$FILLETRAD
 40
0.0
  9
$AUNITS
 70
     0
  9
$AUPREC
 70
     0
  9
$MENU
  1
.
  9
$ELEVATION
 40
0.0
  9
$PELEVATION
 40
0.0
  9
$THICKNESS
 40
0.0
  9
$LIMCHECK
 70
     0
  9
$CHAMFERA
 40
0.0
  9
$CHAMFERB
 40
0.0
  9
$CHAMFERC
 40
0.0
  9
$CHAMFERD
 40
0.0
  9
$SKPOLY
 70
     0
  9
$TDCREATE
 40
2457973.696972917
  9
$TDUCREATE
 40
2457973.363639584
  9
$TDUPDATE
 40
2457974.497124560
  9
$TDUUPDATE
 40
2457974.163791227
  9
$TDINDWG
 40
0.8001522454
  9
$TDUSRTIMER
 40
0.8001522454
  9
$USRTIMER
 70
     1
  9
$ANGBASE
 50
0.0
  9
$ANGDIR
 70
     0
  9
$PDMODE
 70
     0
  9
$PDSIZE
 40
0.0
  9
$PLINEWID
 40
0.0
  9
$SPLFRAME
 70
     0
  9
$SPLINETYPE
 70
     6
  9
$SPLINESEGS
 70
     8
  9
$HANDSEED
  5
375
  9
$SURFTAB1
 70
     6
  9
$SURFTAB2
 70
     6
  9
$SURFTYPE
 70
     6
  9
$SURFU
 70
     6
  9
$SURFV
 70
     6
  9
$UCSBASE
  2

  9
$UCSNAME
  2

  9
$UCSORG
 10
0.0
 20
0.0
 30
0.0
  9
$UCSXDIR
 10
1.0
 20
0.0
 30
0.0
  9
$UCSYDIR
 10
0.0
 20
1.0
 30
0.0
  9
$UCSORTHOREF
  2

  9
$UCSORTHOVIEW
 70
     0
  9
$UCSORGTOP
 10
0.0
 20
0.0
 30
0.0
  9
$UCSORGBOTTOM
 10
0.0
 20
0.0
 30
0.0
  9
$UCSORGLEFT
 10
0.0
 20
0.0
 30
0.0
  9
$UCSORGRIGHT
 10
0.0
 20
0.0
 30
0.0
  9
$UCSORGFRONT
 10
0.0
 20
0.0
 30
0.0
  9
$UCSORGBACK
 10
0.0
 20
0.0
 30
0.0
  9
$PUCSBASE
  2

  9
$PUCSNAME
  2

  9
$PUCSORG
 10
0.0
 20
0.0
 30
0.0
  9
$PUCSXDIR
 10
1.0
 20
0.0
 30
0.0
  9
$PUCSYDIR
 10
0.0
 20
1.0
 30
0.0
  9
$PUCSORTHOREF
  2

  9
$PUCSORTHOVIEW
 70
     0
  9
$PUCSORGTOP
 10
0.0
 20
0.0
 30
0.0
  9
$PUCSORGBOTTOM
 10
0.0
 20
0.0
 30
0.0
  9
$PUCSORGLEFT
 10
0.0
 20
0.0
 30
0.0
  9
$PUCSORGRIGHT
 10
0.0
 20
0.0
 30
0.0
  9
$PUCSORGFRONT
 10
0.0
 20
0.0
 30
0.0
  9
$PUCSORGBACK
 10
0.0
 20
0.0
 30
0.0
  9
$USERI1
 70
     0
  9
$USERI2
 70
     0
  9
$USERI3
 70
     0
  9
$USERI4
 70
     0
  9
$USERI5
 70
     0
  9
$USERR1
 40
0.0
  9
$USERR2
 40
0.0
  9
$USERR3
 40
0.0
  9
$USERR4
 40
0.0
  9
$USERR5
 40
0.0
  9
$WORLDVIEW
 70
     1
  9
$SHADEDGE
 70
     3
  9
$SHADEDIF
 70
    70
  9
$TILEMODE
 70
     1
  9
$MAXACTVP
 70
    64
  9
$PINSBASE
 10
0.0
 20
0.0
 30
0.0
  9
$PLIMCHECK
 70
     0
  9
$PEXTMIN
 10
1.000000000000000E+20
 20
1.000000000000000E+20
 30
1.000000000000000E+20
  9
$PEXTMAX
 10
-1.000000000000000E+20
 20
-1.000000000000000E+20
 30
-1.000000000000000E+20
  9
$PLIMMIN
 10
0.0
 20
0.0
  9
$PLIMMAX
 10
12.0
 20
9.0
  9
$UNITMODE
 70
     0
  9
$VISRETAIN
 70
     1
  9
$PLINEGEN
 70
     0
  9
$PSLTSCALE
 70
     1
  9
$TREEDEPTH
 70
  3020
  9
$CMLSTYLE
  2
Standard
  9
$CMLJUST
 70
     0
  9
$CMLSCALE
 40
1.0
  9
$PROXYGRAPHICS
 70
     1
  9
$MEASUREMENT
 70
     0
  9
$CELWEIGHT
370
    -1
  9
$ENDCAPS
280
     0
  9
$JOINSTYLE
280
     0
  9
$LWDISPLAY
290
     0
  9
$INSUNITS
 70
     4
  9
$HYPERLINKBASE
  1

  9
$STYLESHEET
  1

  9
$XEDIT
290
     1
  9
$CEPSNTYPE
380
     0
  9
$PSTYLEMODE
290
     1
  9
$FINGERPRINTGUID
  2
{4A38B20D-F18C-458E-A10D-C2404C052CA5}
  9
$VERSIONGUID
  2
{DE1CE1AE-E16B-4D9D-A26F-26FC6B1C20EF}
  9
$EXTNAMES
290
     1
  9
$PSVPSCALE
 40
0.0
  9
$OLESTARTUP
290
     0
  9
$SORTENTS
280
   127
  9
$INDEXCTL
280
     0
  9
$HIDETEXT
280
     0
  9
$XCLIPFRAME
290
     0
  9
$HALOGAP
280
     0
  9
$OBSCOLOR
 70
   257
  9
$OBSLTYPE
280
     0
  9
$INTERSECTIONDISPLAY
280
     0
  9
$INTERSECTIONCOLOR
 70
   257
  9
$DIMASSOC
280
     1
  9
$PROJECTNAME
  1

  9
$CAMERADISPLAY
290
     0
  9
$LENSLENGTH
 40
50.0
  9
$CAMERAHEIGHT
 40
0.0
  9
$STEPSPERSEC
 40
2.0
  9
$STEPSIZE
 40
6.0
  9
$3DDWFPREC
 40
2.0
  9
$PSOLWIDTH
 40
0.25
  9
$PSOLHEIGHT
 40
4.0
  9
$LOFTANG1
 40
1.570796326794896
  9
$LOFTANG2
 40
1.570796326794896
  9
$LOFTMAG1
 40
0.0
  9
$LOFTMAG2
 40
0.0
  9
$LOFTPARAM
 70
     7
  9
$LOFTNORMALS
280
     1
  9
$LATITUDE
 40
37.795
  9
$LONGITUDE
 40
-122.394
  9
$NORTHDIRECTION
 40
0.0
  9
$TIMEZONE
 70
 -8000
  9
$LIGHTGLYPHDISPLAY
280
     1
  9
$TILEMODELIGHTSYNCH
280
     1
  9
$CMATERIAL
347
11
  9
$SOLIDHIST
280
     1
  9
$SHOWHIST
280
     1
  9
$DWFFRAME
280
     2
  9
$DGNFRAME
280
     0
  9
$REALWORLDSCALE
290
     1
  9
$INTERFERECOLOR
 62
     1
  9
$INTERFEREOBJVS
345
1E
  9
$INTERFEREVPVS
346
1B
  9
$CSHADOW
280
     0
  9
$SHADOWPLANELOCATION
 40
0.0
  0
ENDSEC
  0
SECTION
  2
CLASSES
  0
CLASS
  1
ACDBDICTIONARYWDFLT
  2
AcDbDictionaryWithDefault
  3
ObjectDBX Classes
 90
        0
 91
        1
280
     0
281
     0
  0
CLASS
  1
MATERIAL
  2
AcDbMaterial
  3
ObjectDBX Classes
 90
     1024
 91
        3
280
     0
281
     0
  0
CLASS
  1
VISUALSTYLE
  2
AcDbVisualStyle
  3
ObjectDBX Classes
 90
     4095
 91
       16
280
     0
281
     0
  0
CLASS
  1
TABLESTYLE
  2
AcDbTableStyle
  3
ObjectDBX Classes
 90
     4095
 91
        1
280
     0
281
     0
  0
CLASS
  1
DICTIONARYVAR
  2
AcDbDictionaryVar
  3
ObjectDBX Classes
 90
        0
 91
        1
280
     0
281
     0
  0
CLASS
  1
SORTENTSTABLE
  2
AcDbSortentsTable
  3
ObjectDBX Classes
 90
        0
 91
        1
280
     0
281
     0
  0
ENDSEC
  0
SECTION
  2
TABLES
  0
TABLE
  2
VPORT
  5
8
330
0
100
AcDbSymbolTable
 70
     1
  0
VPORT
  5
4A
330
8
100
AcDbSymbolTableRecord
100
AcDbViewportTableRecord
  2
*Active
 70
     0
 10
0.0
 20
0.0
 11
1.0
 21
1.0
 12
4970.57489387523
 22
-7570.280772172859
 13
0.0
 23
0.0
 14
1.0
 24
1.0
 15
0.0
 25
0.0
 16
0.0
 26
0.0
 36
1.0
 17
0.0
 27
0.0
 37
0.0
 40
1694.176651494319
 41
2.323809523809523
 42
50.0
 43
0.0
 44
0.0
 50
0.0
 51
0.0
 71
     0
 72
   100
 73
     1
 74
     1
 75
     0
 76
     0
 77
     0
 78
     0
281
     0
 65
     1
110
0.0
120
0.0
130
0.0
111
1.0
121
0.0
131
0.0
112
0.0
122
1.0
132
0.0
 79
     0
146
0.0
348
1A
 60
     3
 61
     5
292
     1
282
     1
141
0.0
142
0.0
 63
   250
421
  3355443
  0
ENDTAB
  0
TABLE
  2
LTYPE
  5
5
330
0
100
AcDbSymbolTable
 70
     1
  0
LTYPE
  5
28
330
5
100
AcDbSymbolTableRecord
100
AcDbLinetypeTableRecord
  2
ByBlock
 70
     0
  3

 72
    65
 73
     0
 40
0.0
  0
LTYPE
  5
29
330
5
100
AcDbSymbolTableRecord
100
AcDbLinetypeTableRecord
  2
ByLayer
 70
     0
  3

 72
    65
 73
     0
 40
0.0
  0
LTYPE
  5
2A
330
5
100
AcDbSymbolTableRecord
100
AcDbLinetypeTableRecord
  2
CONTINUOUS
 70
     0
  3
SOLIDLINE
 72
    65
 73
     0
 40
0.0
  0
ENDTAB
  0
TABLE
  2
LAYER
  5
2
330
0
100
AcDbSymbolTable
 70
    17
  0
LAYER
  5
25
330
2
100
AcDbSymbolTableRecord
100
AcDbLayerTableRecord
  2
0
 70
     0
 62
     7
  6
CONTINUOUS
370
    -3
390
F
347
13
  0
LAYER
  5
3A
330
2
100
AcDbSymbolTableRecord
100
AcDbLayerTableRecord
  2
1
 70
     0
 62
     7
  6
CONTINUOUS
370
    -3
390
F
347
13
  0
LAYER
  5
3B
330
2
100
AcDbSymbolTableRecord
100
AcDbLayerTableRecord
  2
2
 70
     0
 62
     1
  6
CONTINUOUS
370
    -3
390
F
347
13
  0
LAYER
  5
3C
330
2
100
AcDbSymbolTableRecord
100
AcDbLayerTableRecord
  2
3
 70
     0
 62
     2
  6
CONTINUOUS
370
    -3
390
F
347
13
  0
LAYER
  5
3D
330
2
100
AcDbSymbolTableRecord
100
AcDbLayerTableRecord
  2
4
 70
     0
 62
     3
  6
CONTINUOUS
370
    -3
390
F
347
13
  0
LAYER
  5
3E
330
2
100
AcDbSymbolTableRecord
100
AcDbLayerTableRecord
  2
5
 70
     0
 62
     5
  6
CONTINUOUS
370
    -3
390
F
347
13
  0
LAYER
  5
3F
330
2
100
AcDbSymbolTableRecord
100
AcDbLayerTableRecord
  2
6
 70
     0
 62
     5
  6
CONTINUOUS
370
    -3
390
F
347
13
  0
LAYER
  5
40
330
2
100
AcDbSymbolTableRecord
100
AcDbLayerTableRecord
  2
7
 70
     0
 62
     5
  6
CONTINUOUS
370
    -3
390
F
347
13
  0
LAYER
  5
41
330
2
100
AcDbSymbolTableRecord
100
AcDbLayerTableRecord
  2
8
 70
     0
 62
     4
  6
CONTINUOUS
370
    -3
390
F
347
13
  0
LAYER
  5
42
330
2
100
AcDbSymbolTableRecord
100
AcDbLayerTableRecord
  2
9
 70
     0
 62
     5
  6
CONTINUOUS
370
    -3
390
F
347
13
  0
LAYER
  5
43
330
2
100
AcDbSymbolTableRecord
100
AcDbLayerTableRecord
  2
10
 70
     0
 62
     5
  6
CONTINUOUS
370
    -3
390
F
347
13
  0
LAYER
  5
44
330
2
100
AcDbSymbolTableRecord
100
AcDbLayerTableRecord
  2
11
 70
     0
 62
     4
  6
CONTINUOUS
370
    -3
390
F
347
13
  0
LAYER
  5
45
330
2
100
AcDbSymbolTableRecord
100
AcDbLayerTableRecord
  2
12
 70
     0
 62
     6
  6
CONTINUOUS
370
    -3
390
F
347
13
  0
LAYER
  5
46
330
2
100
AcDbSymbolTableRecord
100
AcDbLayerTableRecord
  2
13
 70
     0
 62
     5
  6
CONTINUOUS
370
    -3
390
F
347
13
  0
LAYER
  5
47
330
2
100
AcDbSymbolTableRecord
100
AcDbLayerTableRecord
  2
14
 70
     0
 62
     7
  6
CONTINUOUS
370
    -3
390
F
347
13
  0
LAYER
  5
48
330
2
100
AcDbSymbolTableRecord
100
AcDbLayerTableRecord
  2
19
 70
     0
 62
     5
  6
CONTINUOUS
370
    -3
390
F
347
13
  0
LAYER
  5
1B5
330
2
100
AcDbSymbolTableRecord
100
AcDbLayerTableRecord
  2
15
 70
     0
 62
     7
  6
CONTINUOUS
370
    -3
390
F
347
13
  0
ENDTAB
  0
TABLE
  2
STYLE
  5
3
330
0
100
AcDbSymbolTable
 70
     1
  0
STYLE
  5
26
330
3
100
AcDbSymbolTableRecord
100
AcDbTextStyleTableRecord
  2
STANDARD
 70
     0
 40
0.0
 41
1.0
 50
0.0
 71
     0
 42
1.0
  3
txt
  4

  0
ENDTAB
  0
TABLE
  2
VIEW
  5
6
330
0
100
AcDbSymbolTable
 70
     0
  0
ENDTAB
  0
TABLE
  2
UCS
  5
7
330
0
100
AcDbSymbolTable
 70
     0
  0
ENDTAB
  0
TABLE
  2
APPID
  5
9
330
0
100
AcDbSymbolTable
 70
     1
  0
APPID
  5
27
330
9
100
AcDbSymbolTableRecord
100
AcDbRegAppTableRecord
  2
ACAD
 70
     0
  0
ENDTAB
  0
TABLE
  2
DIMSTYLE
  5
A
330
0
100
AcDbSymbolTable
 70
     1
100
AcDbDimStyleTable
 71
     0
  0
DIMSTYLE
105
1FF
330
A
100
AcDbSymbolTableRecord
100
AcDbDimStyleTableRecord
  2
Standard
 70
     0
340
26
  0
ENDTAB
  0
TABLE
  2
BLOCK_RECORD
  5
1
330
0
100
AcDbSymbolTable
 70
     1
  0
BLOCK_RECORD
  5
36
102
{ACAD_XDICTIONARY
360
31C
102
}
330
1
100
AcDbSymbolTableRecord
100
AcDbBlockTableRecord
  2
*Model_Space
340
39
 70
     0
280
     1
281
     0
  0
BLOCK_RECORD
  5
32
330
1
100
AcDbSymbolTableRecord
100
AcDbBlockTableRecord
  2
*Paper_Space
340
35
 70
     0
280
     1
281
     0
  0
BLOCK_RECORD
  5
4B
330
1
100
AcDbSymbolTableRecord
100
AcDbBlockTableRecord
  2
0
340
0
 70
     0
280
     1
281
     0
  0
ENDTAB
  0
ENDSEC
  0
SECTION
  2
BLOCKS
  0
BLOCK
  5
37
330
36
100
AcDbEntity
  8
0
100
AcDbBlockBegin
  2
*Model_Space
 70
     0
 10
0.0
 20
0.0
 30
0.0
  3
*Model_Space
  1

  0
ENDBLK
  5
38
330
36
100
AcDbEntity
  8
0
100
AcDbBlockEnd
  0
BLOCK
  5
33
330
32
100
AcDbEntity
 67
     1
  8
0
100
AcDbBlockBegin
  2
*Paper_Space
 70
     0
 10
0.0
 20
0.0
 30
0.0
  3
*Paper_Space
  1

  0
ENDBLK
  5
34
330
32
100
AcDbEntity
 67
     1
  8
0
100
AcDbBlockEnd
  0
BLOCK
  5
4C
330
4B
100
AcDbEntity
  8
0
100
AcDbBlockBegin
  2
0
 70
     0
 10
0.0
 20
0.0
 30
0.0
  3
0
  1

  0
LWPOLYLINE
  5
4D
330
4B
100
AcDbEntity
  8
1
100
AcDbPolyline
 90
       49
 70
     1
 43
0.0
 10
4803.074000000001
 20
-7818.844
 10
4803.904000000001
 20
-7729.478
 10
4804.219
 20
-7695.314999999999
 10
4804.386
 20
-7664.063
 10
4804.452999999999
 20
-7632.816999999999
 10
4804.573000000001
 20
-7598.764
 10
4804.51
 20
-7509.545999999999
 10
4803.632
 20
-7473.643
 10
4803.256
 20
-7447.326
 10
4803.08
 20
-7420.999000000001
 10
4803.096
 20
-7384.949
 10
4798.939
 20
-7383.965
 10
4796.085
 20
-7383.013000000001
 10
4793.531
 20
-7382.045000000001
 10
4792.301
 20
-7381.509
 10
4791.271
 20
-7380.962
 10
4790.236
 20
-7380.315
 10
4789.095999999999
 20
-7379.574000000001
 10
4788.055
 20
-7378.827
 10
4787.109
 20
-7377.975000000001
 10
4786.059
 20
-7377.029
 10
4785.102
 20
-7375.978
 10
4784.145999999999
 20
-7374.925999999999
 10
4783.185
 20
-7373.774999999999
 10
4781.350999999999
 20
-7371.267
 10
4779.601999999999
 20
-7368.455
 10
4777.935999999999
 20
-7365.338000000001
 10
4776.255999999999
 20
-7361.920999999999
 10
4774.89
 20
-7358.788000000001
 10
4773.608
 20
-7355.35
 10
4772.322
 20
-7351.812999999999
 10
4771.009
 20
-7347.776
 10
4769.434
 20
-7342.551
 10
4767.827
 20
-7336.727
 10
4766.189
 20
-7330.303999999999
 10
4764.026
 20
-7321.505000000001
 10
4755.777
 20
-7278.677
 10
4749.831
 20
-7247.345
 10
4745.759
 20
-7225.028
 10
4739.688
 20
-7191.299
 10
4732.357
 20
-7150.727
 10
4725.457
 20
-7112.635
 10
4718.75
 20
-7076.335999999999
 10
4712.221999999999
 20
-7041.53
 10
4697.854
 20
-6965.976999999999
 10
4623.357
 20
-6966.070999999999
 10
4623.348
 20
-7392.555
 10
4623.228
 20
-7818.844
 10
4803.074000000001
 20
-7818.844
  0
POINT
  5
80
330
4B
100
AcDbEntity
  8
2
100
AcDbPoint
 10
4803.074000000001
 20
-7818.844
 30
0.0
  0
TEXT
  5
81
330
4B
100
AcDbEntity
  8
2
100
AcDbText
 10
4803.074000000001
 20
-7818.844
 30
0.0
 40
10.0
  1
#-74
100
AcDbText
  0
POINT
  5
82
330
4B
100
AcDbEntity
  8
2
100
AcDbPoint
 10
4804.51
 20
-7509.545999999999
 30
0.0
  0
TEXT
  5
83
330
4B
100
AcDbEntity
  8
2
100
AcDbText
 10
4804.51
 20
-7509.545999999999
 30
0.0
 40
10.0
  1
#-75
100
AcDbText
  0
POINT
  5
84
330
4B
100
AcDbEntity
  8
2
100
AcDbPoint
 10
4803.096
 20
-7384.949
 30
0.0
  0
TEXT
  5
85
330
4B
100
AcDbEntity
  8
2
100
AcDbText
 10
4803.096
 20
-7384.949
 30
0.0
 40
10.0
  1
#-76
100
AcDbText
  0
POINT
  5
86
330
4B
100
AcDbEntity
  8
2
100
AcDbPoint
 10
4764.026
 20
-7321.505000000001
 30
0.0
  0
TEXT
  5
87
330
4B
100
AcDbEntity
  8
2
100
AcDbText
 10
4764.026
 20
-7321.505000000001
 30
0.0
 40
10.0
  1
#-77
100
AcDbText
  0
POINT
  5
88
330
4B
100
AcDbEntity
  8
2
100
AcDbPoint
 10
4697.854
 20
-6965.976999999999
 30
0.0
  0
TEXT
  5
89
330
4B
100
AcDbEntity
  8
2
100
AcDbText
 10
4697.854
 20
-6965.976999999999
 30
0.0
 40
10.0
  1
#-78
100
AcDbText
  0
POINT
  5
8A
330
4B
100
AcDbEntity
  8
2
100
AcDbPoint
 10
4623.357
 20
-6966.070999999999
 30
0.0
  0
TEXT
  5
8B
330
4B
100
AcDbEntity
  8
2
100
AcDbText
 10
4623.357
 20
-6966.070999999999
 30
0.0
 40
10.0
  1
#-79
100
AcDbText
  0
POINT
  5
8C
330
4B
100
AcDbEntity
  8
2
100
AcDbPoint
 10
4623.228
 20
-7818.844
 30
0.0
  0
TEXT
  5
8D
330
4B
100
AcDbEntity
  8
2
100
AcDbText
 10
4623.228
 20
-7818.844
 30
0.0
 40
10.0
  1
#-80
100
AcDbText
  0
POINT
  5
8E
330
4B
100
AcDbEntity
  8
3
100
AcDbPoint
 10
4803.904000000001
 20
-7729.478
 30
0.0
  0
POINT
  5
8F
330
4B
100
AcDbEntity
  8
3
100
AcDbPoint
 10
4804.219
 20
-7695.314999999999
 30
0.0
  0
POINT
  5
90
330
4B
100
AcDbEntity
  8
3
100
AcDbPoint
 10
4804.386
 20
-7664.063
 30
0.0
  0
POINT
  5
91
330
4B
100
AcDbEntity
  8
3
100
AcDbPoint
 10
4804.452999999999
 20
-7632.816999999999
 30
0.0
  0
POINT
  5
92
330
4B
100
AcDbEntity
  8
3
100
AcDbPoint
 10
4804.573000000001
 20
-7598.764
 30
0.0
  0
POINT
  5
93
330
4B
100
AcDbEntity
  8
3
100
AcDbPoint
 10
4803.632
 20
-7473.643
 30
0.0
  0
POINT
  5
94
330
4B
100
AcDbEntity
  8
3
100
AcDbPoint
 10
4803.256
 20
-7447.326
 30
0.0
  0
POINT
  5
95
330
4B
100
AcDbEntity
  8
3
100
AcDbPoint
 10
4803.08
 20
-7420.999000000001
 30
0.0
  0
POINT
  5
96
330
4B
100
AcDbEntity
  8
3
100
AcDbPoint
 10
4798.939
 20
-7383.965
 30
0.0
  0
POINT
  5
97
330
4B
100
AcDbEntity
  8
3
100
AcDbPoint
 10
4796.085
 20
-7383.013000000001
 30
0.0
  0
POINT
  5
98
330
4B
100
AcDbEntity
  8
3
100
AcDbPoint
 10
4793.531
 20
-7382.045000000001
 30
0.0
  0
POINT
  5
99
330
4B
100
AcDbEntity
  8
3
100
AcDbPoint
 10
4792.301
 20
-7381.509
 30
0.0
  0
POINT
  5
9A
330
4B
100
AcDbEntity
  8
3
100
AcDbPoint
 10
4791.271
 20
-7380.962
 30
0.0
  0
POINT
  5
9B
330
4B
100
AcDbEntity
  8
3
100
AcDbPoint
 10
4790.236
 20
-7380.315
 30
0.0
  0
POINT
  5
9C
330
4B
100
AcDbEntity
  8
3
100
AcDbPoint
 10
4789.095999999999
 20
-7379.574000000001
 30
0.0
  0
POINT
  5
9D
330
4B
100
AcDbEntity
  8
3
100
AcDbPoint
 10
4788.055
 20
-7378.827
 30
0.0
  0
POINT
  5
9E
330
4B
100
AcDbEntity
  8
3
100
AcDbPoint
 10
4787.109
 20
-7377.975000000001
 30
0.0
  0
POINT
  5
9F
330
4B
100
AcDbEntity
  8
3
100
AcDbPoint
 10
4786.059
 20
-7377.029
 30
0.0
  0
POINT
  5
A0
330
4B
100
AcDbEntity
  8
3
100
AcDbPoint
 10
4785.102
 20
-7375.978
 30
0.0
  0
POINT
  5
A1
330
4B
100
AcDbEntity
  8
3
100
AcDbPoint
 10
4784.145999999999
 20
-7374.925999999999
 30
0.0
  0
POINT
  5
A2
330
4B
100
AcDbEntity
  8
3
100
AcDbPoint
 10
4783.185
 20
-7373.774999999999
 30
0.0
  0
POINT
  5
A3
330
4B
100
AcDbEntity
  8
3
100
AcDbPoint
 10
4781.350999999999
 20
-7371.267
 30
0.0
  0
POINT
  5
A4
330
4B
100
AcDbEntity
  8
3
100
AcDbPoint
 10
4779.601999999999
 20
-7368.455
 30
0.0
  0
POINT
  5
A5
330
4B
100
AcDbEntity
  8
3
100
AcDbPoint
 10
4777.935999999999
 20
-7365.338000000001
 30
0.0
  0
POINT
  5
A6
330
4B
100
AcDbEntity
  8
3
100
AcDbPoint
 10
4776.255999999999
 20
-7361.920999999999
 30
0.0
  0
POINT
  5
A7
330
4B
100
AcDbEntity
  8
3
100
AcDbPoint
 10
4774.89
 20
-7358.788000000001
 30
0.0
  0
POINT
  5
A8
330
4B
100
AcDbEntity
  8
3
100
AcDbPoint
 10
4773.608
 20
-7355.35
 30
0.0
  0
POINT
  5
A9
330
4B
100
AcDbEntity
  8
3
100
AcDbPoint
 10
4772.322
 20
-7351.812999999999
 30
0.0
  0
POINT
  5
AA
330
4B
100
AcDbEntity
  8
3
100
AcDbPoint
 10
4771.009
 20
-7347.776
 30
0.0
  0
POINT
  5
AB
330
4B
100
AcDbEntity
  8
3
100
AcDbPoint
 10
4769.434
 20
-7342.551
 30
0.0
  0
POINT
  5
AC
330
4B
100
AcDbEntity
  8
3
100
AcDbPoint
 10
4767.827
 20
-7336.727
 30
0.0
  0
POINT
  5
AD
330
4B
100
AcDbEntity
  8
3
100
AcDbPoint
 10
4766.189
 20
-7330.303999999999
 30
0.0
  0
POINT
  5
AE
330
4B
100
AcDbEntity
  8
3
100
AcDbPoint
 10
4755.777
 20
-7278.677
 30
0.0
  0
POINT
  5
AF
330
4B
100
AcDbEntity
  8
3
100
AcDbPoint
 10
4749.831
 20
-7247.345
 30
0.0
  0
POINT
  5
B0
330
4B
100
AcDbEntity
  8
3
100
AcDbPoint
 10
4745.759
 20
-7225.028
 30
0.0
  0
POINT
  5
B1
330
4B
100
AcDbEntity
  8
3
100
AcDbPoint
 10
4739.688
 20
-7191.299
 30
0.0
  0
POINT
  5
B2
330
4B
100
AcDbEntity
  8
3
100
AcDbPoint
 10
4732.357
 20
-7150.727
 30
0.0
  0
POINT
  5
B3
330
4B
100
AcDbEntity
  8
3
100
AcDbPoint
 10
4725.457
 20
-7112.635
 30
0.0
  0
POINT
  5
B4
330
4B
100
AcDbEntity
  8
3
100
AcDbPoint
 10
4718.75
 20
-7076.335999999999
 30
0.0
  0
POINT
  5
B5
330
4B
100
AcDbEntity
  8
3
100
AcDbPoint
 10
4712.221999999999
 20
-7041.53
 30
0.0
  0
POINT
  5
B6
330
4B
100
AcDbEntity
  8
3
100
AcDbPoint
 10
4623.348
 20
-7392.555
 30
0.0
  0
LWPOLYLINE
  5
B7
330
4B
100
AcDbEntity
  8
8
100
AcDbPolyline
 90
        5
 70
     0
 43
0.0
 10
4643.113
 20
-7452.87
 10
4762.607
 20
-7452.87
 10
4762.607
 20
-7533.467
 10
4638.951
 20
-7533.467
 10
4638.951
 20
-7457.626000000001
  0
POINT
  5
BE
330
4B
100
AcDbEntity
  8
2
100
AcDbPoint
 10
4643.113
 20
-7452.87
 30
0.0
  0
TEXT
  5
BF
330
4B
100
AcDbEntity
  8
2
100
AcDbText
 10
4643.113
 20
-7452.87
 30
0.0
 40
10.0
  1
#-81
100
AcDbText
  0
POINT
  5
C0
330
4B
100
AcDbEntity
  8
2
100
AcDbPoint
 10
4762.607
 20
-7452.87
 30
0.0
  0
TEXT
  5
C1
330
4B
100
AcDbEntity
  8
2
100
AcDbText
 10
4762.607
 20
-7452.87
 30
0.0
 40
10.0
  1
#-82
100
AcDbText
  0
POINT
  5
C2
330
4B
100
AcDbEntity
  8
2
100
AcDbPoint
 10
4762.607
 20
-7533.467
 30
0.0
  0
TEXT
  5
C3
330
4B
100
AcDbEntity
  8
2
100
AcDbText
 10
4762.607
 20
-7533.467
 30
0.0
 40
10.0
  1
#-83
100
AcDbText
  0
POINT
  5
C4
330
4B
100
AcDbEntity
  8
2
100
AcDbPoint
 10
4638.951
 20
-7533.467
 30
0.0
  0
TEXT
  5
C5
330
4B
100
AcDbEntity
  8
2
100
AcDbText
 10
4638.951
 20
-7533.467
 30
0.0
 40
10.0
  1
#-84
100
AcDbText
  0
POINT
  5
C6
330
4B
100
AcDbEntity
  8
2
100
AcDbPoint
 10
4638.951
 20
-7457.626000000001
 30
0.0
  0
TEXT
  5
C7
330
4B
100
AcDbEntity
  8
2
100
AcDbText
 10
4638.951
 20
-7457.626000000001
 30
0.0
 40
10.0
  1
#-85
100
AcDbText
  0
LWPOLYLINE
  5
C8
330
4B
100
AcDbEntity
  8
8
100
AcDbPolyline
 90
        3
 70
     0
 43
0.0
 10
4711.667000000001
 20
-7544.672
 10
4711.667000000001
 20
-7571.985999999999
 10
4709.480999999999
 20
-7571.985999999999
  0
POINT
  5
CD
330
4B
100
AcDbEntity
  8
2
100
AcDbPoint
 10
4711.667000000001
 20
-7544.672
 30
0.0
  0
TEXT
  5
CE
330
4B
100
AcDbEntity
  8
2
100
AcDbText
 10
4711.667000000001
 20
-7544.672
 30
0.0
 40
10.0
  1
#-86
100
AcDbText
  0
POINT
  5
CF
330
4B
100
AcDbEntity
  8
2
100
AcDbPoint
 10
4711.667000000001
 20
-7571.985999999999
 30
0.0
  0
TEXT
  5
D0
330
4B
100
AcDbEntity
  8
2
100
AcDbText
 10
4711.667000000001
 20
-7571.985999999999
 30
0.0
 40
10.0
  1
#-87
100
AcDbText
  0
POINT
  5
D1
330
4B
100
AcDbEntity
  8
2
100
AcDbPoint
 10
4709.480999999999
 20
-7571.985999999999
 30
0.0
  0
TEXT
  5
D2
330
4B
100
AcDbEntity
  8
2
100
AcDbText
 10
4709.480999999999
 20
-7571.985999999999
 30
0.0
 40
10.0
  1
#-88
100
AcDbText
  0
LWPOLYLINE
  5
D3
330
4B
100
AcDbEntity
  8
8
100
AcDbPolyline
 90
        2
 70
     0
 43
0.0
 10
4679.435999999999
 20
-7544.399
 10
4679.435999999999
 20
-7624.633000000001
  0
POINT
  5
D7
330
4B
100
AcDbEntity
  8
2
100
AcDbPoint
 10
4679.435999999999
 20
-7544.399
 30
0.0
  0
TEXT
  5
D8
330
4B
100
AcDbEntity
  8
2
100
AcDbText
 10
4679.435999999999
 20
-7544.399
 30
0.0
 40
10.0
  1
#-89
100
AcDbText
  0
POINT
  5
D9
330
4B
100
AcDbEntity
  8
2
100
AcDbPoint
 10
4679.435999999999
 20
-7624.633000000001
 30
0.0
  0
TEXT
  5
DA
330
4B
100
AcDbEntity
  8
2
100
AcDbText
 10
4679.435999999999
 20
-7624.633000000001
 30
0.0
 40
10.0
  1
#-90
100
AcDbText
  0
LWPOLYLINE
  5
DB
330
4B
100
AcDbEntity
  8
8
100
AcDbPolyline
 90
        2
 70
     0
 43
0.0
 10
4719.056
 20
-7624.693
 10
4719.002999999999
 20
-7585.984999999999
  0
POINT
  5
DF
330
4B
100
AcDbEntity
  8
2
100
AcDbPoint
 10
4719.056
 20
-7624.693
 30
0.0
  0
TEXT
  5
E0
330
4B
100
AcDbEntity
  8
2
100
AcDbText
 10
4719.056
 20
-7624.693
 30
0.0
 40
10.0
  1
#-91
100
AcDbText
  0
POINT
  5
E1
330
4B
100
AcDbEntity
  8
2
100
AcDbPoint
 10
4719.002999999999
 20
-7585.984999999999
 30
0.0
  0
TEXT
  5
E2
330
4B
100
AcDbEntity
  8
2
100
AcDbText
 10
4719.002999999999
 20
-7585.984999999999
 30
0.0
 40
10.0
  1
#-92
100
AcDbText
  0
LWPOLYLINE
  5
E3
330
4B
100
AcDbEntity
  8
8
100
AcDbPolyline
 90
        2
 70
     0
 43
0.0
 10
4638.367999999999
 20
-7611.631
 10
4762.794
 20
-7611.631
  0
POINT
  5
E7
330
4B
100
AcDbEntity
  8
2
100
AcDbPoint
 10
4638.367999999999
 20
-7611.631
 30
0.0
  0
TEXT
  5
E8
330
4B
100
AcDbEntity
  8
2
100
AcDbText
 10
4638.367999999999
 20
-7611.631
 30
0.0
 40
10.0
  1
#-93
100
AcDbText
  0
POINT
  5
E9
330
4B
100
AcDbEntity
  8
2
100
AcDbPoint
 10
4762.794
 20
-7611.631
 30
0.0
  0
TEXT
  5
EA
330
4B
100
AcDbEntity
  8
2
100
AcDbText
 10
4762.794
 20
-7611.631
 30
0.0
 40
10.0
  1
#-94
100
AcDbText
  0
LWPOLYLINE
  5
EB
330
4B
100
AcDbEntity
  8
8
100
AcDbPolyline
 90
        2
 70
     0
 43
0.0
 10
4638.758
 20
-7598.15
 10
4761.624
 20
-7598.15
  0
POINT
  5
EF
330
4B
100
AcDbEntity
  8
2
100
AcDbPoint
 10
4638.758
 20
-7598.15
 30
0.0
  0
TEXT
  5
F0
330
4B
100
AcDbEntity
  8
2
100
AcDbText
 10
4638.758
 20
-7598.15
 30
0.0
 40
10.0
  1
#-95
100
AcDbText
  0
POINT
  5
F1
330
4B
100
AcDbEntity
  8
2
100
AcDbPoint
 10
4761.624
 20
-7598.15
 30
0.0
  0
TEXT
  5
F2
330
4B
100
AcDbEntity
  8
2
100
AcDbText
 10
4761.624
 20
-7598.15
 30
0.0
 40
10.0
  1
#-96
100
AcDbText
  0
LWPOLYLINE
  5
F3
330
4B
100
AcDbEntity
  8
8
100
AcDbPolyline
 90
        2
 70
     0
 43
0.0
 10
4638.758
 20
-7585.278000000001
 10
4761.624
 20
-7585.278000000001
  0
POINT
  5
F7
330
4B
100
AcDbEntity
  8
2
100
AcDbPoint
 10
4638.758
 20
-7585.278000000001
 30
0.0
  0
TEXT
  5
F8
330
4B
100
AcDbEntity
  8
2
100
AcDbText
 10
4638.758
 20
-7585.278000000001
 30
0.0
 40
10.0
  1
#-97
100
AcDbText
  0
POINT
  5
F9
330
4B
100
AcDbEntity
  8
2
100
AcDbPoint
 10
4761.624
 20
-7585.278000000001
 30
0.0
  0
TEXT
  5
FA
330
4B
100
AcDbEntity
  8
2
100
AcDbText
 10
4761.624
 20
-7585.278000000001
 30
0.0
 40
10.0
  1
#-98
100
AcDbText
  0
LWPOLYLINE
  5
FB
330
4B
100
AcDbEntity
  8
8
100
AcDbPolyline
 90
        2
 70
     0
 43
0.0
 10
4638.758
 20
-7572.407
 10
4760.064
 20
-7572.407
  0
POINT
  5
FF
330
4B
100
AcDbEntity
  8
2
100
AcDbPoint
 10
4638.758
 20
-7572.407
 30
0.0
  0
TEXT
  5
100
330
4B
100
AcDbEntity
  8
2
100
AcDbText
 10
4638.758
 20
-7572.407
 30
0.0
 40
10.0
  1
#-99
100
AcDbText
  0
POINT
  5
101
330
4B
100
AcDbEntity
  8
2
100
AcDbPoint
 10
4760.064
 20
-7572.407
 30
0.0
  0
TEXT
  5
102
330
4B
100
AcDbEntity
  8
2
100
AcDbText
 10
4760.064
 20
-7572.407
 30
0.0
 40
10.0
  1
#-100
100
AcDbText
  0
LWPOLYLINE
  5
103
330
4B
100
AcDbEntity
  8
8
100
AcDbPolyline
 90
        2
 70
     0
 43
0.0
 10
4637.588
 20
-7558.365000000001
 10
4760.454000000001
 20
-7558.365000000001
  0
POINT
  5
107
330
4B
100
AcDbEntity
  8
2
100
AcDbPoint
 10
4637.588
 20
-7558.365000000001
 30
0.0
  0
TEXT
  5
108
330
4B
100
AcDbEntity
  8
2
100
AcDbText
 10
4637.588
 20
-7558.365000000001
 30
0.0
 40
10.0
  1
#-101
100
AcDbText
  0
POINT
  5
109
330
4B
100
AcDbEntity
  8
2
100
AcDbPoint
 10
4760.454000000001
 20
-7558.365000000001
 30
0.0
  0
TEXT
  5
10A
330
4B
100
AcDbEntity
  8
2
100
AcDbText
 10
4760.454000000001
 20
-7558.365000000001
 30
0.0
 40
10.0
  1
#-102
100
AcDbText
  0
LWPOLYLINE
  5
10B
330
4B
100
AcDbEntity
  8
8
100
AcDbPolyline
 90
        5
 70
     0
 43
0.0
 10
4642.880999999999
 20
-7544.810000000001
 10
4762.375
 20
-7544.810000000001
 10
4762.375
 20
-7624.406999999999
 10
4638.719
 20
-7624.406999999999
 10
4638.719
 20
-7549.566
  0
POINT
  5
112
330
4B
100
AcDbEntity
  8
2
100
AcDbPoint
 10
4642.880999999999
 20
-7544.810000000001
 30
0.0
  0
TEXT
  5
113
330
4B
100
AcDbEntity
  8
2
100
AcDbText
 10
4642.880999999999
 20
-7544.810000000001
 30
0.0
 40
10.0
  1
#-103
100
AcDbText
  0
POINT
  5
114
330
4B
100
AcDbEntity
  8
2
100
AcDbPoint
 10
4762.375
 20
-7544.810000000001
 30
0.0
  0
TEXT
  5
115
330
4B
100
AcDbEntity
  8
2
100
AcDbText
 10
4762.375
 20
-7544.810000000001
 30
0.0
 40
10.0
  1
#-104
100
AcDbText
  0
POINT
  5
116
330
4B
100
AcDbEntity
  8
2
100
AcDbPoint
 10
4762.375
 20
-7624.406999999999
 30
0.0
  0
TEXT
  5
117
330
4B
100
AcDbEntity
  8
2
100
AcDbText
 10
4762.375
 20
-7624.406999999999
 30
0.0
 40
10.0
  1
#-105
100
AcDbText
  0
POINT
  5
118
330
4B
100
AcDbEntity
  8
2
100
AcDbPoint
 10
4638.719
 20
-7624.406999999999
 30
0.0
  0
TEXT
  5
119
330
4B
100
AcDbEntity
  8
2
100
AcDbText
 10
4638.719
 20
-7624.406999999999
 30
0.0
 40
10.0
  1
#-106
100
AcDbText
  0
POINT
  5
11A
330
4B
100
AcDbEntity
  8
2
100
AcDbPoint
 10
4638.719
 20
-7549.566
 30
0.0
  0
TEXT
  5
11B
330
4B
100
AcDbEntity
  8
2
100
AcDbText
 10
4638.719
 20
-7549.566
 30
0.0
 40
10.0
  1
#-107
100
AcDbText
  0
LWPOLYLINE
  5
11C
330
4B
100
AcDbEntity
  8
8
100
AcDbPolyline
 90
        3
 70
     0
 43
0.0
 10
4711.898
 20
-7452.732000000001
 10
4711.898
 20
-7480.047
 10
4709.712999999999
 20
-7480.047
  0
POINT
  5
121
330
4B
100
AcDbEntity
  8
2
100
AcDbPoint
 10
4711.898
 20
-7452.732000000001
 30
0.0
  0
TEXT
  5
122
330
4B
100
AcDbEntity
  8
2
100
AcDbText
 10
4711.898
 20
-7452.732000000001
 30
0.0
 40
10.0
  1
#-108
100
AcDbText
  0
POINT
  5
123
330
4B
100
AcDbEntity
  8
2
100
AcDbPoint
 10
4711.898
 20
-7480.047
 30
0.0
  0
TEXT
  5
124
330
4B
100
AcDbEntity
  8
2
100
AcDbText
 10
4711.898
 20
-7480.047
 30
0.0
 40
10.0
  1
#-109
100
AcDbText
  0
POINT
  5
125
330
4B
100
AcDbEntity
  8
2
100
AcDbPoint
 10
4709.712999999999
 20
-7480.047
 30
0.0
  0
TEXT
  5
126
330
4B
100
AcDbEntity
  8
2
100
AcDbText
 10
4709.712999999999
 20
-7480.047
 30
0.0
 40
10.0
  1
#-110
100
AcDbText
  0
LWPOLYLINE
  5
127
330
4B
100
AcDbEntity
  8
8
100
AcDbPolyline
 90
        2
 70
     0
 43
0.0
 10
4679.667999999999
 20
-7452.459000000001
 10
4679.667999999999
 20
-7533.693000000001
  0
POINT
  5
12B
330
4B
100
AcDbEntity
  8
2
100
AcDbPoint
 10
4679.667999999999
 20
-7452.459000000001
 30
0.0
  0
TEXT
  5
12C
330
4B
100
AcDbEntity
  8
2
100
AcDbText
 10
4679.667999999999
 20
-7452.459000000001
 30
0.0
 40
10.0
  1
#-111
100
AcDbText
  0
POINT
  5
12D
330
4B
100
AcDbEntity
  8
2
100
AcDbPoint
 10
4679.667999999999
 20
-7533.693000000001
 30
0.0
  0
TEXT
  5
12E
330
4B
100
AcDbEntity
  8
2
100
AcDbText
 10
4679.667999999999
 20
-7533.693000000001
 30
0.0
 40
10.0
  1
#-112
100
AcDbText
  0
LWPOLYLINE
  5
12F
330
4B
100
AcDbEntity
  8
8
100
AcDbPolyline
 90
        2
 70
     0
 43
0.0
 10
4638.6
 20
-7519.691999999999
 10
4763.025999999999
 20
-7519.691999999999
  0
POINT
  5
133
330
4B
100
AcDbEntity
  8
2
100
AcDbPoint
 10
4638.6
 20
-7519.691999999999
 30
0.0
  0
TEXT
  5
134
330
4B
100
AcDbEntity
  8
2
100
AcDbText
 10
4638.6
 20
-7519.691999999999
 30
0.0
 40
10.0
  1
#-113
100
AcDbText
  0
POINT
  5
135
330
4B
100
AcDbEntity
  8
2
100
AcDbPoint
 10
4763.025999999999
 20
-7519.691999999999
 30
0.0
  0
TEXT
  5
136
330
4B
100
AcDbEntity
  8
2
100
AcDbText
 10
4763.025999999999
 20
-7519.691999999999
 30
0.0
 40
10.0
  1
#-114
100
AcDbText
  0
LWPOLYLINE
  5
137
330
4B
100
AcDbEntity
  8
8
100
AcDbPolyline
 90
        2
 70
     0
 43
0.0
 10
4638.989999999999
 20
-7506.21
 10
4761.855999999999
 20
-7506.21
  0
POINT
  5
13B
330
4B
100
AcDbEntity
  8
2
100
AcDbPoint
 10
4638.989999999999
 20
-7506.21
 30
0.0
  0
TEXT
  5
13C
330
4B
100
AcDbEntity
  8
2
100
AcDbText
 10
4638.989999999999
 20
-7506.21
 30
0.0
 40
10.0
  1
#-115
100
AcDbText
  0
POINT
  5
13D
330
4B
100
AcDbEntity
  8
2
100
AcDbPoint
 10
4761.855999999999
 20
-7506.21
 30
0.0
  0
TEXT
  5
13E
330
4B
100
AcDbEntity
  8
2
100
AcDbText
 10
4761.855999999999
 20
-7506.21
 30
0.0
 40
10.0
  1
#-116
100
AcDbText
  0
LWPOLYLINE
  5
13F
330
4B
100
AcDbEntity
  8
8
100
AcDbPolyline
 90
        2
 70
     0
 43
0.0
 10
4638.989999999999
 20
-7493.339
 10
4761.855999999999
 20
-7493.339
  0
POINT
  5
143
330
4B
100
AcDbEntity
  8
2
100
AcDbPoint
 10
4638.989999999999
 20
-7493.339
 30
0.0
  0
TEXT
  5
144
330
4B
100
AcDbEntity
  8
2
100
AcDbText
 10
4638.989999999999
 20
-7493.339
 30
0.0
 40
10.0
  1
#-117
100
AcDbText
  0
POINT
  5
145
330
4B
100
AcDbEntity
  8
2
100
AcDbPoint
 10
4761.855999999999
 20
-7493.339
 30
0.0
  0
TEXT
  5
146
330
4B
100
AcDbEntity
  8
2
100
AcDbText
 10
4761.855999999999
 20
-7493.339
 30
0.0
 40
10.0
  1
#-118
100
AcDbText
  0
LWPOLYLINE
  5
147
330
4B
100
AcDbEntity
  8
8
100
AcDbPolyline
 90
        2
 70
     0
 43
0.0
 10
4638.989999999999
 20
-7480.467
 10
4760.295999999999
 20
-7480.467
  0
POINT
  5
14B
330
4B
100
AcDbEntity
  8
2
100
AcDbPoint
 10
4638.989999999999
 20
-7480.467
 30
0.0
  0
TEXT
  5
14C
330
4B
100
AcDbEntity
  8
2
100
AcDbText
 10
4638.989999999999
 20
-7480.467
 30
0.0
 40
10.0
  1
#-119
100
AcDbText
  0
POINT
  5
14D
330
4B
100
AcDbEntity
  8
2
100
AcDbPoint
 10
4760.295999999999
 20
-7480.467
 30
0.0
  0
TEXT
  5
14E
330
4B
100
AcDbEntity
  8
2
100
AcDbText
 10
4760.295999999999
 20
-7480.467
 30
0.0
 40
10.0
  1
#-120
100
AcDbText
  0
LWPOLYLINE
  5
14F
330
4B
100
AcDbEntity
  8
8
100
AcDbPolyline
 90
        2
 70
     0
 43
0.0
 10
4637.82
 20
-7466.425
 10
4760.685999999999
 20
-7466.425
  0
POINT
  5
153
330
4B
100
AcDbEntity
  8
2
100
AcDbPoint
 10
4637.82
 20
-7466.425
 30
0.0
  0
TEXT
  5
154
330
4B
100
AcDbEntity
  8
2
100
AcDbText
 10
4637.82
 20
-7466.425
 30
0.0
 40
10.0
  1
#-121
100
AcDbText
  0
POINT
  5
155
330
4B
100
AcDbEntity
  8
2
100
AcDbPoint
 10
4760.685999999999
 20
-7466.425
 30
0.0
  0
TEXT
  5
156
330
4B
100
AcDbEntity
  8
2
100
AcDbText
 10
4760.685999999999
 20
-7466.425
 30
0.0
 40
10.0
  1
#-122
100
AcDbText
  0
LWPOLYLINE
  5
157
330
4B
100
AcDbEntity
  8
8
100
AcDbPolyline
 90
        2
 70
     0
 43
0.0
 10
4745.449
 20
-7636.562999999999
 10
4745.449
 20
-7705.054
  0
POINT
  5
15B
330
4B
100
AcDbEntity
  8
2
100
AcDbPoint
 10
4745.449
 20
-7636.562999999999
 30
0.0
  0
TEXT
  5
15C
330
4B
100
AcDbEntity
  8
2
100
AcDbText
 10
4745.449
 20
-7636.562999999999
 30
0.0
 40
10.0
  1
#-123
100
AcDbText
  0
POINT
  5
15D
330
4B
100
AcDbEntity
  8
2
100
AcDbPoint
 10
4745.449
 20
-7705.054
 30
0.0
  0
TEXT
  5
15E
330
4B
100
AcDbEntity
  8
2
100
AcDbText
 10
4745.449
 20
-7705.054
 30
0.0
 40
10.0
  1
#-124
100
AcDbText
  0
LWPOLYLINE
  5
15F
330
4B
100
AcDbEntity
  8
8
100
AcDbPolyline
 90
        2
 70
     0
 43
0.0
 10
4705.16
 20
-7637.183000000002
 10
4705.16
 20
-7704.125000000001
  0
POINT
  5
163
330
4B
100
AcDbEntity
  8
2
100
AcDbPoint
 10
4705.16
 20
-7637.183000000002
 30
0.0
  0
TEXT
  5
164
330
4B
100
AcDbEntity
  8
2
100
AcDbText
 10
4705.16
 20
-7637.183000000002
 30
0.0
 40
10.0
  1
#-125
100
AcDbText
  0
POINT
  5
165
330
4B
100
AcDbEntity
  8
2
100
AcDbPoint
 10
4705.16
 20
-7704.125000000001
 30
0.0
  0
TEXT
  5
166
330
4B
100
AcDbEntity
  8
2
100
AcDbText
 10
4705.16
 20
-7704.125000000001
 30
0.0
 40
10.0
  1
#-126
100
AcDbText
  0
LWPOLYLINE
  5
167
330
4B
100
AcDbEntity
  8
8
100
AcDbPolyline
 90
        2
 70
     0
 43
0.0
 10
4672.928
 20
-7637.183000000002
 10
4672.928
 20
-7704.435000000001
  0
POINT
  5
16B
330
4B
100
AcDbEntity
  8
2
100
AcDbPoint
 10
4672.928
 20
-7637.183000000002
 30
0.0
  0
TEXT
  5
16C
330
4B
100
AcDbEntity
  8
2
100
AcDbText
 10
4672.928
 20
-7637.183000000002
 30
0.0
 40
10.0
  1
#-127
100
AcDbText
  0
POINT
  5
16D
330
4B
100
AcDbEntity
  8
2
100
AcDbPoint
 10
4672.928
 20
-7704.435000000001
 30
0.0
  0
TEXT
  5
16E
330
4B
100
AcDbEntity
  8
2
100
AcDbText
 10
4672.928
 20
-7704.435000000001
 30
0.0
 40
10.0
  1
#-128
100
AcDbText
  0
LWPOLYLINE
  5
16F
330
4B
100
AcDbEntity
  8
8
100
AcDbPolyline
 90
        2
 70
     0
 43
0.0
 10
4654.643
 20
-7636.873000000001
 10
4654.643
 20
-7705.674000000001
  0
POINT
  5
173
330
4B
100
AcDbEntity
  8
2
100
AcDbPoint
 10
4654.643
 20
-7636.873000000001
 30
0.0
  0
TEXT
  5
174
330
4B
100
AcDbEntity
  8
2
100
AcDbText
 10
4654.643
 20
-7636.873000000001
 30
0.0
 40
10.0
  1
#-129
100
AcDbText
  0
POINT
  5
175
330
4B
100
AcDbEntity
  8
2
100
AcDbPoint
 10
4654.643
 20
-7705.674000000001
 30
0.0
  0
TEXT
  5
176
330
4B
100
AcDbEntity
  8
2
100
AcDbText
 10
4654.643
 20
-7705.674000000001
 30
0.0
 40
10.0
  1
#-130
100
AcDbText
  0
LWPOLYLINE
  5
177
330
4B
100
AcDbEntity
  8
8
100
AcDbPolyline
 90
        2
 70
     0
 43
0.0
 10
4627.061
 20
-7693.588000000001
 10
4779.684
 20
-7693.588000000001
  0
POINT
  5
17B
330
4B
100
AcDbEntity
  8
2
100
AcDbPoint
 10
4627.061
 20
-7693.588000000001
 30
0.0
  0
TEXT
  5
17C
330
4B
100
AcDbEntity
  8
2
100
AcDbText
 10
4627.061
 20
-7693.588000000001
 30
0.0
 40
10.0
  1
#-131
100
AcDbText
  0
POINT
  5
17D
330
4B
100
AcDbEntity
  8
2
100
AcDbPoint
 10
4779.684
 20
-7693.588000000001
 30
0.0
  0
TEXT
  5
17E
330
4B
100
AcDbEntity
  8
2
100
AcDbText
 10
4779.684
 20
-7693.588000000001
 30
0.0
 40
10.0
  1
#-132
100
AcDbText
  0
LWPOLYLINE
  5
17F
330
4B
100
AcDbEntity
  8
8
100
AcDbPolyline
 90
        2
 70
     0
 43
0.0
 10
4627.061
 20
-7682.121000000001
 10
4780.304
 20
-7682.121000000001
  0
POINT
  5
183
330
4B
100
AcDbEntity
  8
2
100
AcDbPoint
 10
4627.061
 20
-7682.121000000001
 30
0.0
  0
TEXT
  5
184
330
4B
100
AcDbEntity
  8
2
100
AcDbText
 10
4627.061
 20
-7682.121000000001
 30
0.0
 40
10.0
  1
#-133
100
AcDbText
  0
POINT
  5
185
330
4B
100
AcDbEntity
  8
2
100
AcDbPoint
 10
4780.304
 20
-7682.121000000001
 30
0.0
  0
TEXT
  5
186
330
4B
100
AcDbEntity
  8
2
100
AcDbText
 10
4780.304
 20
-7682.121000000001
 30
0.0
 40
10.0
  1
#-134
100
AcDbText
  0
LWPOLYLINE
  5
187
330
4B
100
AcDbEntity
  8
8
100
AcDbPolyline
 90
        2
 70
     0
 43
0.0
 10
4628.919999999999
 20
-7670.964000000001
 10
4777.514
 20
-7670.964000000001
  0
POINT
  5
18B
330
4B
100
AcDbEntity
  8
2
100
AcDbPoint
 10
4628.919999999999
 20
-7670.964000000001
 30
0.0
  0
TEXT
  5
18C
330
4B
100
AcDbEntity
  8
2
100
AcDbText
 10
4628.919999999999
 20
-7670.964000000001
 30
0.0
 40
10.0
  1
#-135
100
AcDbText
  0
POINT
  5
18D
330
4B
100
AcDbEntity
  8
2
100
AcDbPoint
 10
4777.514
 20
-7670.964000000001
 30
0.0
  0
TEXT
  5
18E
330
4B
100
AcDbEntity
  8
2
100
AcDbText
 10
4777.514
 20
-7670.964000000001
 30
0.0
 40
10.0
  1
#-136
100
AcDbText
  0
LWPOLYLINE
  5
18F
330
4B
100
AcDbEntity
  8
8
100
AcDbPolyline
 90
        2
 70
     0
 43
0.0
 10
4627.371
 20
-7659.187
 10
4778.754
 20
-7659.187
  0
POINT
  5
193
330
4B
100
AcDbEntity
  8
2
100
AcDbPoint
 10
4627.371
 20
-7659.187
 30
0.0
  0
TEXT
  5
194
330
4B
100
AcDbEntity
  8
2
100
AcDbText
 10
4627.371
 20
-7659.187
 30
0.0
 40
10.0
  1
#-137
100
AcDbText
  0
POINT
  5
195
330
4B
100
AcDbEntity
  8
2
100
AcDbPoint
 10
4778.754
 20
-7659.187
 30
0.0
  0
TEXT
  5
196
330
4B
100
AcDbEntity
  8
2
100
AcDbText
 10
4778.754
 20
-7659.187
 30
0.0
 40
10.0
  1
#-138
100
AcDbText
  0
LWPOLYLINE
  5
197
330
4B
100
AcDbEntity
  8
8
100
AcDbPolyline
 90
        2
 70
     0
 43
0.0
 10
4628.61
 20
-7648.03
 10
4779.684
 20
-7648.03
  0
POINT
  5
19B
330
4B
100
AcDbEntity
  8
2
100
AcDbPoint
 10
4628.61
 20
-7648.03
 30
0.0
  0
TEXT
  5
19C
330
4B
100
AcDbEntity
  8
2
100
AcDbText
 10
4628.61
 20
-7648.03
 30
0.0
 40
10.0
  1
#-139
100
AcDbText
  0
POINT
  5
19D
330
4B
100
AcDbEntity
  8
2
100
AcDbPoint
 10
4779.684
 20
-7648.03
 30
0.0
  0
TEXT
  5
19E
330
4B
100
AcDbEntity
  8
2
100
AcDbText
 10
4779.684
 20
-7648.03
 30
0.0
 40
10.0
  1
#-140
100
AcDbText
  0
LWPOLYLINE
  5
19F
330
4B
100
AcDbEntity
  8
8
100
AcDbPolyline
 90
        5
 70
     0
 43
0.0
 10
4628.61
 20
-7637.183000000002
 10
4780.614
 20
-7637.183000000002
 10
4780.614
 20
-7705.074999999999
 10
4627.061
 20
-7705.074999999999
 10
4627.061
 20
-7650.819
  0
POINT
  5
1A6
330
4B
100
AcDbEntity
  8
2
100
AcDbPoint
 10
4628.61
 20
-7637.183000000002
 30
0.0
  0
TEXT
  5
1A7
330
4B
100
AcDbEntity
  8
2
100
AcDbText
 10
4628.61
 20
-7637.183000000002
 30
0.0
 40
10.0
  1
#-141
100
AcDbText
  0
POINT
  5
1A8
330
4B
100
AcDbEntity
  8
2
100
AcDbPoint
 10
4780.614
 20
-7637.183000000002
 30
0.0
  0
TEXT
  5
1A9
330
4B
100
AcDbEntity
  8
2
100
AcDbText
 10
4780.614
 20
-7637.183000000002
 30
0.0
 40
10.0
  1
#-142
100
AcDbText
  0
POINT
  5
1AA
330
4B
100
AcDbEntity
  8
2
100
AcDbPoint
 10
4780.614
 20
-7705.074999999999
 30
0.0
  0
TEXT
  5
1AB
330
4B
100
AcDbEntity
  8
2
100
AcDbText
 10
4780.614
 20
-7705.074999999999
 30
0.0
 40
10.0
  1
#-143
100
AcDbText
  0
POINT
  5
1AC
330
4B
100
AcDbEntity
  8
2
100
AcDbPoint
 10
4627.061
 20
-7705.074999999999
 30
0.0
  0
TEXT
  5
1AD
330
4B
100
AcDbEntity
  8
2
100
AcDbText
 10
4627.061
 20
-7705.074999999999
 30
0.0
 40
10.0
  1
#-144
100
AcDbText
  0
POINT
  5
1AE
330
4B
100
AcDbEntity
  8
2
100
AcDbPoint
 10
4627.061
 20
-7650.819
 30
0.0
  0
TEXT
  5
1AF
330
4B
100
AcDbEntity
  8
2
100
AcDbText
 10
4627.061
 20
-7650.819
 30
0.0
 40
10.0
  1
#-145
100
AcDbText
  0
LINE
  5
1B0
330
4B
100
AcDbEntity
  8
7
100
AcDbLine
 10
4793.685
 20
-7416.017
 30
0.0
 11
4628.207
 21
-7416.017
 31
0.0
  0
POINT
  5
1B1
330
4B
100
AcDbEntity
  8
2
100
AcDbPoint
 10
4793.685
 20
-7416.017
 30
0.0
  0
TEXT
  5
1B2
330
4B
100
AcDbEntity
  8
2
100
AcDbText
 10
4793.685
 20
-7416.017
 30
0.0
 40
10.0
  1
#-1
100
AcDbText
  0
POINT
  5
1B3
330
4B
100
AcDbEntity
  8
2
100
AcDbPoint
 10
4628.207
 20
-7416.017
 30
0.0
  0
TEXT
  5
1B4
330
4B
100
AcDbEntity
  8
2
100
AcDbText
 10
4628.207
 20
-7416.017
 30
0.0
 40
10.0
  1
#-1
100
AcDbText
  0
TEXT
  5
1B6
330
4B
100
AcDbEntity
  8
15
100
AcDbText
 10
4652.028
 20
-6990.444
 30
0.0
 40
10.0
  1
上
100
AcDbText
  0
TEXT
  5
1B7
330
4B
100
AcDbEntity
  8
15
100
AcDbText
 10
4650.231
 20
-7555.578000000001
 30
0.0
 40
10.0
  1
型号
100
AcDbText
  0
TEXT
  5
1B8
330
4B
100
AcDbEntity
  8
15
100
AcDbText
 10
4648.645000000001
 20
-7570.268
 30
0.0
 40
10.0
  1
工序
100
AcDbText
  0
TEXT
  5
1B9
330
4B
100
AcDbEntity
  8
15
100
AcDbText
 10
4641.907999999999
 20
-7582.942
 30
0.0
 40
10.0
  1
规格名称
100
AcDbText
  0
TEXT
  5
1BA
330
4B
100
AcDbEntity
  8
15
100
AcDbText
 10
4640.695
 20
-7595.913
 30
0.0
 40
10.0
  1
材料名称
100
AcDbText
  0
TEXT
  5
1BB
330
4B
100
AcDbEntity
  8
15
100
AcDbText
 10
4639.777
 20
-7609.093000000001
 30
0.0
 40
10.0
  1
L8245#0.5分
100
AcDbText
  0
TEXT
  5
1BC
330
4B
100
AcDbEntity
  8
15
100
AcDbText
 10
4639.929
 20
-7622.744
 30
0.0
 40
10.0
  1
L0450#3分
100
AcDbText
  0
TEXT
  5
1BD
330
4B
100
AcDbEntity
  8
15
100
AcDbText
 10
4682.004
 20
-7464.068000000001
 30
0.0
 40
10.0
  1
R265#
100
AcDbText
  0
TEXT
  5
1BE
330
4B
100
AcDbEntity
  8
15
100
AcDbText
 10
4713.403
 20
-7463.57
 30
0.0
 40
10.0
  1
制作时间2017.1.17
100
AcDbText
  0
TEXT
  5
1BF
330
4B
100
AcDbEntity
  8
15
100
AcDbText
 10
4689.717
 20
-7478.089
 30
0.0
 40
10.0
  1
1件
100
AcDbText
  0
TEXT
  5
1C0
330
4B
100
AcDbEntity
  8
15
100
AcDbText
 10
4713.899999999999
 20
-7478.298999999999
 30
0.0
 40
10.0
  1
负责人A13
100
AcDbText
  0
TEXT
  5
1C1
330
4B
100
AcDbEntity
  8
15
100
AcDbText
 10
4704.528
 20
-7490.244000000001
 30
0.0
 40
10.0
  1
开棉
100
AcDbText
  0
TEXT
  5
1C2
330
4B
100
AcDbEntity
  8
15
100
AcDbText
 10
4700.089
 20
-7502.979
 30
0.0
 40
10.0
  1
1.8*2.0
100
AcDbText
  0
TEXT
  5
1C3
330
4B
100
AcDbEntity
  8
15
100
AcDbText
 10
4699.663
 20
-7517.554
 30
0.0
 40
10.0
  1
模板编号
100
AcDbText
  0
TEXT
  5
1C4
330
4B
100
AcDbEntity
  8
15
100
AcDbText
 10
4717.062
 20
-7531.171999999999
 30
0.0
 40
10.0
  1
1
100
AcDbText
  0
TEXT
  5
1C5
330
4B
100
AcDbEntity
  8
15
100
AcDbText
 10
4680.532999999999
 20
-7556.255
 30
0.0
 40
10.0
  1
R265#
100
AcDbText
  0
TEXT
  5
1C6
330
4B
100
AcDbEntity
  8
15
100
AcDbText
 10
4712.631
 20
-7555.578000000001
 30
0.0
 40
10.0
  1
制作时间2017.1.17
100
AcDbText
  0
TEXT
  5
1C7
330
4B
100
AcDbEntity
  8
15
100
AcDbText
 10
4684.959
 20
-7570.816
 30
0.0
 40
10.0
  1
开棉
100
AcDbText
  0
TEXT
  5
1C8
330
4B
100
AcDbEntity
  8
15
100
AcDbText
 10
4714.847999999999
 20
-7570.515999999999
 30
0.0
 40
10.0
  1
负责人A13
100
AcDbText
  0
TEXT
  5
1C9
330
4B
100
AcDbEntity
  8
15
100
AcDbText
 10
4701.417999999999
 20
-7583.019
 30
0.0
 40
10.0
  1
1.8*2.0
100
AcDbText
  0
TEXT
  5
1CA
330
4B
100
AcDbEntity
  8
15
100
AcDbText
 10
4681.116
 20
-7595.034000000001
 30
0.0
 40
10.0
  1
模板总件数
100
AcDbText
  0
TEXT
  5
1CB
330
4B
100
AcDbEntity
  8
15
100
AcDbText
 10
4723.079000000001
 20
-7595.069000000001
 30
0.0
 40
10.0
  1
实际使用件数
100
AcDbText
  0
TEXT
  5
1CC
330
4B
100
AcDbEntity
  8
15
100
AcDbText
 10
4687.05
 20
-7609.465999999999
 30
0.0
 40
10.0
  1
1件
100
AcDbText
  0
TEXT
  5
1CD
330
4B
100
AcDbEntity
  8
15
100
AcDbText
 10
4740.853
 20
-7608.043000000001
 30
0.0
 40
10.0
  1
7件
100
AcDbText
  0
TEXT
  5
1CE
330
4B
100
AcDbEntity
  8
15
100
AcDbText
 10
4742.324
 20
-7622.819000000001
 30
0.0
 40
10.0
  1
1件
100
AcDbText
  0
TEXT
  5
1CF
330
4B
100
AcDbEntity
  8
15
100
AcDbText
 10
4631.510999999999
 20
-7646.823000000001
 30
0.0
 40
10.0
  1
海绵型号
100
AcDbText
  0
TEXT
  5
1D0
330
4B
100
AcDbEntity
  8
15
100
AcDbText
 10
4656.59
 20
-7646.926999999999
 30
0.0
 40
10.0
  1
厚度
100
AcDbText
  0
TEXT
  5
1D1
330
4B
100
AcDbEntity
  8
15
100
AcDbText
 10
4674.007999999999
 20
-7646.644000000001
 30
0.0
 40
10.0
  1
部位
100
AcDbText
  0
TEXT
  5
1D2
330
4B
100
AcDbEntity
  8
15
100
AcDbText
 10
4692.760999999999
 20
-7644.066999999999
 30
0.0
 40
10.0
  1
名称
100
AcDbText
  0
TEXT
  5
1D3
330
4B
100
AcDbEntity
  8
15
100
AcDbText
 10
4628.73
 20
-7657.085999999999
 30
0.0
 40
10.0
  1
L8245#
100
AcDbText
  0
TEXT
  5
1D4
330
4B
100
AcDbEntity
  8
15
100
AcDbText
 10
4628.364
 20
-7668.066
 30
0.0
 40
10.0
  1
L8245#
100
AcDbText
  0
TEXT
  5
1D5
330
4B
100
AcDbEntity
  8
15
100
AcDbText
 10
4628.547
 20
-7679.045999999999
 30
0.0
 40
10.0
  1
L8245#
100
AcDbText
  0
TEXT
  5
1D6
330
4B
100
AcDbEntity
  8
15
100
AcDbText
 10
4628.364
 20
-7691.124000000001
 30
0.0
 40
10.0
  1
L8245#
100
AcDbText
  0
TEXT
  5
1D7
330
4B
100
AcDbEntity
  8
15
100
AcDbText
 10
4628.747
 20
-7702.626999999999
 30
0.0
 40
10.0
  1
L0450#
100
AcDbText
  0
TEXT
  5
1D8
330
4B
100
AcDbEntity
  8
15
100
AcDbText
 10
4656.729999999999
 20
-7657.085999999999
 30
0.0
 40
10.0
  1
0.5分
100
AcDbText
  0
TEXT
  5
1D9
330
4B
100
AcDbEntity
  8
15
100
AcDbText
 10
4656.912999999999
 20
-7668.980999999999
 30
0.0
 40
10.0
  1
0.5分
100
AcDbText
  0
TEXT
  5
1DA
330
4B
100
AcDbEntity
  8
15
100
AcDbText
 10
4656.547
 20
-7679.961
 30
0.0
 40
10.0
  1
0.5分
100
AcDbText
  0
TEXT
  5
1DB
330
4B
100
AcDbEntity
  8
15
100
AcDbText
 10
4656.729999999999
 20
-7692.039000000001
 30
0.0
 40
10.0
  1
0.5分
100
AcDbText
  0
TEXT
  5
1DC
330
4B
100
AcDbEntity
  8
15
100
AcDbText
 10
4658.781
 20
-7702.491000000001
 30
0.0
 40
10.0
  1
3分
100
AcDbText
  0
TEXT
  5
1DD
330
4B
100
AcDbEntity
  8
15
100
AcDbText
 10
4677.446999999999
 20
-7657.808000000001
 30
0.0
 40
10.0
  1
拼架后
100
AcDbText
  0
TEXT
  5
1DE
330
4B
100
AcDbEntity
  8
15
100
AcDbText
 10
4677.566
 20
-7669.491
 30
0.0
 40
10.0
  1
拼架前
100
AcDbText
  0
TEXT
  5
1DF
330
4B
100
AcDbEntity
  8
15
100
AcDbText
 10
4678.713
 20
-7680.923000000001
 30
0.0
 40
10.0
  1
侧板
100
AcDbText
  0
TEXT
  5
1E0
330
4B
100
AcDbEntity
  8
15
100
AcDbText
 10
4679.973
 20
-7691.859
 30
0.0
 40
10.0
  1
尾板
100
AcDbText
  0
TEXT
  5
1E1
330
4B
100
AcDbEntity
  8
15
100
AcDbText
 10
4678.692
 20
-7702.659000000001
 30
0.0
 40
10.0
  1
尾板包
100
AcDbText
  0
TEXT
  5
1E2
330
4B
100
AcDbEntity
  8
15
100
AcDbText
 10
4708.132
 20
-7701.693
 30
0.0
 40
10.0
  1
143*25=1件
100
AcDbText
  0
TEXT
  5
1E3
330
4B
100
AcDbEntity
  8
15
100
AcDbText
 10
4707.83
 20
-7656.395
 30
0.0
 40
10.0
  1
191*86=1件
100
AcDbText
  0
TEXT
  5
1E4
330
4B
100
AcDbEntity
  8
15
100
AcDbText
 10
4708.138
 20
-7668.478
 30
0.0
 40
10.0
  1
191*95=1件
100
AcDbText
  0
TEXT
  5
1E5
330
4B
100
AcDbEntity
  8
15
100
AcDbText
 10
4708.327999999999
 20
-7679.244000000001
 30
0.0
 40
10.0
  1
193*27=2件
100
AcDbText
  0
TEXT
  5
1E6
330
4B
100
AcDbEntity
  8
15
100
AcDbText
 10
4707.804
 20
-7690.593000000001
 30
0.0
 40
10.0
  1
198*27=1件
100
AcDbText
  0
TEXT
  5
1E7
330
4B
100
AcDbEntity
  8
15
100
AcDbText
 10
4747.866
 20
-7702.640000000001
 30
0.0
 40
10.0
  1
四周粘边
100
AcDbText
  0
TEXT
  5
1E8
330
4B
100
AcDbEntity
  8
15
100
AcDbText
 10
4723.428
 20
-7780.544
 30
0.0
 40
10.0
  1
1-1
100
AcDbText
  0
TEXT
  5
1E9
330
4B
100
AcDbEntity
  8
15
100
AcDbText
 10
4650.234
 20
-7464.949
 30
0.0
 40
10.0
  1
型号
100
AcDbText
  0
TEXT
  5
1EA
330
4B
100
AcDbEntity
  8
15
100
AcDbText
 10
4641.627999999999
 20
-7478.644
 30
0.0
 40
10.0
  1
模板总件数
100
AcDbText
  0
TEXT
  5
1EB
330
4B
100
AcDbEntity
  8
15
100
AcDbText
 10
4649.281
 20
-7491.561
 30
0.0
 40
10.0
  1
工序
100
AcDbText
  0
TEXT
  5
1EC
330
4B
100
AcDbEntity
  8
15
100
AcDbText
 10
4641.327999999999
 20
-7504.944
 30
0.0
 40
10.0
  1
规格名称
100
AcDbText
  0
TEXT
  5
1ED
330
4B
100
AcDbEntity
  8
15
100
AcDbText
 10
4640.181
 20
-7517.849
 30
0.0
 40
10.0
  1
材料名称
100
AcDbText
  0
TEXT
  5
1EE
330
4B
100
AcDbEntity
  8
15
100
AcDbText
 10
4639.827999999999
 20
-7531.579
 30
0.0
 40
10.0
  1
L8245#0.5分
100
AcDbText
  0
TEXT
  5
1EF
330
4B
100
AcDbEntity
  8
15
100
AcDbText
 10
4646.527999999999
 20
-7187.844
 30
0.0
 40
10.0
  1
1.8米
100
AcDbText
  0
TEXT
  5
1F0
330
4B
100
AcDbEntity
  8
1
100
AcDbText
 10
4628.207
 20
-7405.016999999999
 30
0.0
 40
10.0
  1
PIECE NAME: R265#拼架侧海棉L8245#0.5cm 2件
100
AcDbText
  0
TEXT
  5
1F1
330
4B
100
AcDbEntity
  8
1
100
AcDbText
 10
4628.207
 20
-7394.016999999999
 30
0.0
 40
10.0
  1
SIZE: BS
100
AcDbText
  0
TEXT
  5
1F2
330
4B
100
AcDbEntity
  8
1
100
AcDbText
 10
4628.207
 20
-7383.016999999999
 30
0.0
 40
10.0
  1
ANNOTATION: 
100
AcDbText
  0
TEXT
  5
1F3
330
4B
100
AcDbEntity
  8
1
100
AcDbText
 10
4628.207
 20
-7372.016999999999
 30
0.0
 40
10.0
  1
QUANTITY: 1
100
AcDbText
  0
TEXT
  5
1F4
330
4B
100
AcDbEntity
  8
1
100
AcDbText
 10
4628.207
 20
-7361.017
 30
0.0
 40
10.0
  1
MATERIAL: 
100
AcDbText
  0
ENDBLK
  5
1F5
330
4B
100
AcDbEntity
  8
0
100
AcDbBlockEnd
  0
ENDSEC
  0
SECTION
  2
ENTITIES
  0
TEXT
  5
1F7
330
36
100
AcDbEntity
  8
1
100
AcDbText
 10
0.0
 20
-7838.844
 30
0.0
 40
10.0
  1
STYLE NAME: R265#拼架侧海棉L8245#0.5cm 2件
100
AcDbText
  0
TEXT
  5
1F8
330
36
100
AcDbEntity
  8
1
100
AcDbText
 10
0.0
 20
-7849.844
 30
0.0
 40
10.0
  1
CREATION DATE: 07-08-2017
100
AcDbText
  0
TEXT
  5
1F9
330
36
100
AcDbEntity
  8
1
100
AcDbText
 10
0.0
 20
-7860.844
 30
0.0
 40
10.0
  1
CREATION TIME: 11:20:56
100
AcDbText
  0
TEXT
  5
1FA
330
36
100
AcDbEntity
  8
1
100
AcDbText
 10
0.0
 20
-7871.844
 30
0.0
 40
10.0
  1
AUTHOR: YINCAD
100
AcDbText
  0
TEXT
  5
1FB
330
36
100
AcDbEntity
  8
1
100
AcDbText
 10
0.0
 20
-7882.844
 30
0.0
 40
10.0
  1
PRODUCT: YINCAD PATTERNDESIGNER
100
AcDbText
  0
TEXT
  5
1FC
330
36
100
AcDbEntity
  8
1
100
AcDbText
 10
0.0
 20
-7893.844
 30
0.0
 40
10.0
  1
SAMPLE SIZE: BS
100
AcDbText
  0
TEXT
  5
1FD
330
36
100
AcDbEntity
  8
1
100
AcDbText
 10
0.0
 20
-7904.844
 30
0.0
 40
10.0
  1
GRADE RULE TABLE: R265#拼架侧海棉L8245#0.5cm 2件
100
AcDbText
  0
TEXT
  5
1FE
330
36
100
AcDbEntity
  8
1
100
AcDbText
 10
0.0
 20
-7915.843999999999
 30
0.0
 40
10.0
  1
UNITS: METRIC
100
AcDbText
  0
POINT
  5
204
330
36
100
AcDbEntity
  8
2
100
AcDbPoint
 10
4803.074000000001
 20
-7818.844
 30
0.0
  0
TEXT
  5
205
330
36
100
AcDbEntity
  8
2
100
AcDbText
 10
4803.074000000001
 20
-7818.844
 30
0.0
 40
10.0
  1
#-74
100
AcDbText
  0
POINT
  5
206
330
36
100
AcDbEntity
  8
2
100
AcDbPoint
 10
4804.51
 20
-7509.545999999999
 30
0.0
  0
TEXT
  5
207
330
36
100
AcDbEntity
  8
2
100
AcDbText
 10
4804.51
 20
-7509.545999999999
 30
0.0
 40
10.0
  1
#-75
100
AcDbText
  0
POINT
  5
208
330
36
100
AcDbEntity
  8
2
100
AcDbPoint
 10
4803.096
 20
-7384.949
 30
0.0
  0
TEXT
  5
209
330
36
100
AcDbEntity
  8
2
100
AcDbText
 10
4803.096
 20
-7384.949
 30
0.0
 40
10.0
  1
#-76
100
AcDbText
  0
POINT
  5
20A
330
36
100
AcDbEntity
  8
2
100
AcDbPoint
 10
4764.026
 20
-7321.505000000001
 30
0.0
  0
TEXT
  5
20B
330
36
100
AcDbEntity
  8
2
100
AcDbText
 10
4764.026
 20
-7321.505000000001
 30
0.0
 40
10.0
  1
#-77
100
AcDbText
  0
POINT
  5
20C
330
36
100
AcDbEntity
  8
2
100
AcDbPoint
 10
4697.854
 20
-6965.976999999999
 30
0.0
  0
TEXT
  5
20D
330
36
100
AcDbEntity
  8
2
100
AcDbText
 10
4697.854
 20
-6965.976999999999
 30
0.0
 40
10.0
  1
#-78
100
AcDbText
  0
POINT
  5
20E
330
36
100
AcDbEntity
  8
2
100
AcDbPoint
 10
4623.357
 20
-6966.070999999999
 30
0.0
  0
TEXT
  5
20F
330
36
100
AcDbEntity
  8
2
100
AcDbText
 10
4623.357
 20
-6966.070999999999
 30
0.0
 40
10.0
  1
#-79
100
AcDbText
  0
POINT
  5
210
330
36
100
AcDbEntity
  8
2
100
AcDbPoint
 10
4623.228
 20
-7818.844
 30
0.0
  0
TEXT
  5
211
330
36
100
AcDbEntity
  8
2
100
AcDbText
 10
4623.228
 20
-7818.844
 30
0.0
 40
10.0
  1
#-80
100
AcDbText
  0
POINT
  5
212
330
36
100
AcDbEntity
  8
3
100
AcDbPoint
 10
4803.904000000001
 20
-7729.478
 30
0.0
  0
POINT
  5
213
330
36
100
AcDbEntity
  8
3
100
AcDbPoint
 10
4804.219
 20
-7695.314999999999
 30
0.0
  0
POINT
  5
214
330
36
100
AcDbEntity
  8
3
100
AcDbPoint
 10
4804.386
 20
-7664.063
 30
0.0
  0
POINT
  5
215
330
36
100
AcDbEntity
  8
3
100
AcDbPoint
 10
4804.452999999999
 20
-7632.816999999999
 30
0.0
  0
POINT
  5
216
330
36
100
AcDbEntity
  8
3
100
AcDbPoint
 10
4804.573000000001
 20
-7598.764
 30
0.0
  0
POINT
  5
217
330
36
100
AcDbEntity
  8
3
100
AcDbPoint
 10
4803.632
 20
-7473.643
 30
0.0
  0
POINT
  5
218
330
36
100
AcDbEntity
  8
3
100
AcDbPoint
 10
4803.256
 20
-7447.326
 30
0.0
  0
POINT
  5
219
330
36
100
AcDbEntity
  8
3
100
AcDbPoint
 10
4803.08
 20
-7420.999000000001
 30
0.0
  0
POINT
  5
21A
330
36
100
AcDbEntity
  8
3
100
AcDbPoint
 10
4798.939
 20
-7383.965
 30
0.0
  0
POINT
  5
21B
330
36
100
AcDbEntity
  8
3
100
AcDbPoint
 10
4796.085
 20
-7383.013000000001
 30
0.0
  0
POINT
  5
21C
330
36
100
AcDbEntity
  8
3
100
AcDbPoint
 10
4793.531
 20
-7382.045000000001
 30
0.0
  0
POINT
  5
21D
330
36
100
AcDbEntity
  8
3
100
AcDbPoint
 10
4792.301
 20
-7381.509
 30
0.0
  0
POINT
  5
21E
330
36
100
AcDbEntity
  8
3
100
AcDbPoint
 10
4791.271
 20
-7380.962
 30
0.0
  0
POINT
  5
21F
330
36
100
AcDbEntity
  8
3
100
AcDbPoint
 10
4790.236
 20
-7380.315
 30
0.0
  0
POINT
  5
220
330
36
100
AcDbEntity
  8
3
100
AcDbPoint
 10
4789.095999999999
 20
-7379.574000000001
 30
0.0
  0
POINT
  5
221
330
36
100
AcDbEntity
  8
3
100
AcDbPoint
 10
4788.055
 20
-7378.827
 30
0.0
  0
POINT
  5
222
330
36
100
AcDbEntity
  8
3
100
AcDbPoint
 10
4787.109
 20
-7377.975000000001
 30
0.0
  0
POINT
  5
223
330
36
100
AcDbEntity
  8
3
100
AcDbPoint
 10
4786.059
 20
-7377.029
 30
0.0
  0
POINT
  5
224
330
36
100
AcDbEntity
  8
3
100
AcDbPoint
 10
4785.102
 20
-7375.978
 30
0.0
  0
POINT
  5
225
330
36
100
AcDbEntity
  8
3
100
AcDbPoint
 10
4784.145999999999
 20
-7374.925999999999
 30
0.0
  0
POINT
  5
226
330
36
100
AcDbEntity
  8
3
100
AcDbPoint
 10
4783.185
 20
-7373.774999999999
 30
0.0
  0
POINT
  5
227
330
36
100
AcDbEntity
  8
3
100
AcDbPoint
 10
4781.350999999999
 20
-7371.267
 30
0.0
  0
POINT
  5
228
330
36
100
AcDbEntity
  8
3
100
AcDbPoint
 10
4779.601999999999
 20
-7368.455
 30
0.0
  0
POINT
  5
229
330
36
100
AcDbEntity
  8
3
100
AcDbPoint
 10
4777.935999999999
 20
-7365.338000000001
 30
0.0
  0
POINT
  5
22A
330
36
100
AcDbEntity
  8
3
100
AcDbPoint
 10
4776.255999999999
 20
-7361.920999999999
 30
0.0
  0
POINT
  5
22B
330
36
100
AcDbEntity
  8
3
100
AcDbPoint
 10
4774.89
 20
-7358.788000000001
 30
0.0
  0
POINT
  5
22C
330
36
100
AcDbEntity
  8
3
100
AcDbPoint
 10
4773.608
 20
-7355.35
 30
0.0
  0
POINT
  5
22D
330
36
100
AcDbEntity
  8
3
100
AcDbPoint
 10
4772.322
 20
-7351.812999999999
 30
0.0
  0
POINT
  5
22E
330
36
100
AcDbEntity
  8
3
100
AcDbPoint
 10
4771.009
 20
-7347.776
 30
0.0
  0
POINT
  5
22F
330
36
100
AcDbEntity
  8
3
100
AcDbPoint
 10
4769.434
 20
-7342.551
 30
0.0
  0
POINT
  5
230
330
36
100
AcDbEntity
  8
3
100
AcDbPoint
 10
4767.827
 20
-7336.727
 30
0.0
  0
POINT
  5
231
330
36
100
AcDbEntity
  8
3
100
AcDbPoint
 10
4766.189
 20
-7330.303999999999
 30
0.0
  0
POINT
  5
232
330
36
100
AcDbEntity
  8
3
100
AcDbPoint
 10
4755.777
 20
-7278.677
 30
0.0
  0
POINT
  5
233
330
36
100
AcDbEntity
  8
3
100
AcDbPoint
 10
4749.831
 20
-7247.345
 30
0.0
  0
POINT
  5
234
330
36
100
AcDbEntity
  8
3
100
AcDbPoint
 10
4745.759
 20
-7225.028
 30
0.0
  0
POINT
  5
235
330
36
100
AcDbEntity
  8
3
100
AcDbPoint
 10
4739.688
 20
-7191.299
 30
0.0
  0
POINT
  5
236
330
36
100
AcDbEntity
  8
3
100
AcDbPoint
 10
4732.357
 20
-7150.727
 30
0.0
  0
POINT
  5
237
330
36
100
AcDbEntity
  8
3
100
AcDbPoint
 10
4725.457
 20
-7112.635
 30
0.0
  0
POINT
  5
238
330
36
100
AcDbEntity
  8
3
100
AcDbPoint
 10
4718.75
 20
-7076.335999999999
 30
0.0
  0
POINT
  5
239
330
36
100
AcDbEntity
  8
3
100
AcDbPoint
 10
4712.221999999999
 20
-7041.53
 30
0.0
  0
POINT
  5
23A
330
36
100
AcDbEntity
  8
3
100
AcDbPoint
 10
4623.348
 20
-7392.555
 30
0.0
  0
POINT
  5
23C
330
36
100
AcDbEntity
  8
2
100
AcDbPoint
 10
4643.113
 20
-7452.87
 30
0.0
  0
TEXT
  5
23D
330
36
100
AcDbEntity
  8
2
100
AcDbText
 10
4643.113
 20
-7452.87
 30
0.0
 40
10.0
  1
#-81
100
AcDbText
  0
POINT
  5
23E
330
36
100
AcDbEntity
  8
2
100
AcDbPoint
 10
4762.607
 20
-7452.87
 30
0.0
  0
TEXT
  5
23F
330
36
100
AcDbEntity
  8
2
100
AcDbText
 10
4762.607
 20
-7452.87
 30
0.0
 40
10.0
  1
#-82
100
AcDbText
  0
POINT
  5
240
330
36
100
AcDbEntity
  8
2
100
AcDbPoint
 10
4762.607
 20
-7533.467
 30
0.0
  0
TEXT
  5
241
330
36
100
AcDbEntity
  8
2
100
AcDbText
 10
4762.607
 20
-7533.467
 30
0.0
 40
10.0
  1
#-83
100
AcDbText
  0
POINT
  5
242
330
36
100
AcDbEntity
  8
2
100
AcDbPoint
 10
4638.951
 20
-7533.467
 30
0.0
  0
TEXT
  5
243
330
36
100
AcDbEntity
  8
2
100
AcDbText
 10
4638.951
 20
-7533.467
 30
0.0
 40
10.0
  1
#-84
100
AcDbText
  0
POINT
  5
244
330
36
100
AcDbEntity
  8
2
100
AcDbPoint
 10
4638.951
 20
-7457.626000000001
 30
0.0
  0
TEXT
  5
245
330
36
100
AcDbEntity
  8
2
100
AcDbText
 10
4638.951
 20
-7457.626000000001
 30
0.0
 40
10.0
  1
#-85
100
AcDbText
  0
POINT
  5
247
330
36
100
AcDbEntity
  8
2
100
AcDbPoint
 10
4711.667000000001
 20
-7544.672
 30
0.0
  0
TEXT
  5
248
330
36
100
AcDbEntity
  8
2
100
AcDbText
 10
4711.667000000001
 20
-7544.672
 30
0.0
 40
10.0
  1
#-86
100
AcDbText
  0
POINT
  5
249
330
36
100
AcDbEntity
  8
2
100
AcDbPoint
 10
4711.667000000001
 20
-7571.985999999999
 30
0.0
  0
TEXT
  5
24A
330
36
100
AcDbEntity
  8
2
100
AcDbText
 10
4711.667000000001
 20
-7571.985999999999
 30
0.0
 40
10.0
  1
#-87
100
AcDbText
  0
POINT
  5
24B
330
36
100
AcDbEntity
  8
2
100
AcDbPoint
 10
4709.480999999999
 20
-7571.985999999999
 30
0.0
  0
TEXT
  5
24C
330
36
100
AcDbEntity
  8
2
100
AcDbText
 10
4709.480999999999
 20
-7571.985999999999
 30
0.0
 40
10.0
  1
#-88
100
AcDbText
  0
POINT
  5
24E
330
36
100
AcDbEntity
  8
2
100
AcDbPoint
 10
4679.435999999999
 20
-7544.399
 30
0.0
  0
TEXT
  5
24F
330
36
100
AcDbEntity
  8
2
100
AcDbText
 10
4679.435999999999
 20
-7544.399
 30
0.0
 40
10.0
  1
#-89
100
AcDbText
  0
POINT
  5
250
330
36
100
AcDbEntity
  8
2
100
AcDbPoint
 10
4679.435999999999
 20
-7624.633000000001
 30
0.0
  0
TEXT
  5
251
330
36
100
AcDbEntity
  8
2
100
AcDbText
 10
4679.435999999999
 20
-7624.633000000001
 30
0.0
 40
10.0
  1
#-90
100
AcDbText
  0
POINT
  5
253
330
36
100
AcDbEntity
  8
2
100
AcDbPoint
 10
4719.056
 20
-7624.693
 30
0.0
  0
TEXT
  5
254
330
36
100
AcDbEntity
  8
2
100
AcDbText
 10
4719.056
 20
-7624.693
 30
0.0
 40
10.0
  1
#-91
100
AcDbText
  0
POINT
  5
255
330
36
100
AcDbEntity
  8
2
100
AcDbPoint
 10
4719.002999999999
 20
-7585.984999999999
 30
0.0
  0
TEXT
  5
256
330
36
100
AcDbEntity
  8
2
100
AcDbText
 10
4719.002999999999
 20
-7585.984999999999
 30
0.0
 40
10.0
  1
#-92
100
AcDbText
  0
POINT
  5
258
330
36
100
AcDbEntity
  8
2
100
AcDbPoint
 10
4638.367999999999
 20
-7611.631
 30
0.0
  0
TEXT
  5
259
330
36
100
AcDbEntity
  8
2
100
AcDbText
 10
4638.367999999999
 20
-7611.631
 30
0.0
 40
10.0
  1
#-93
100
AcDbText
  0
POINT
  5
25A
330
36
100
AcDbEntity
  8
2
100
AcDbPoint
 10
4762.794
 20
-7611.631
 30
0.0
  0
TEXT
  5
25B
330
36
100
AcDbEntity
  8
2
100
AcDbText
 10
4762.794
 20
-7611.631
 30
0.0
 40
10.0
  1
#-94
100
AcDbText
  0
POINT
  5
25D
330
36
100
AcDbEntity
  8
2
100
AcDbPoint
 10
4638.758
 20
-7598.15
 30
0.0
  0
TEXT
  5
25E
330
36
100
AcDbEntity
  8
2
100
AcDbText
 10
4638.758
 20
-7598.15
 30
0.0
 40
10.0
  1
#-95
100
AcDbText
  0
POINT
  5
25F
330
36
100
AcDbEntity
  8
2
100
AcDbPoint
 10
4761.624
 20
-7598.15
 30
0.0
  0
TEXT
  5
260
330
36
100
AcDbEntity
  8
2
100
AcDbText
 10
4761.624
 20
-7598.15
 30
0.0
 40
10.0
  1
#-96
100
AcDbText
  0
POINT
  5
262
330
36
100
AcDbEntity
  8
2
100
AcDbPoint
 10
4638.758
 20
-7585.278000000001
 30
0.0
  0
TEXT
  5
263
330
36
100
AcDbEntity
  8
2
100
AcDbText
 10
4638.758
 20
-7585.278000000001
 30
0.0
 40
10.0
  1
#-97
100
AcDbText
  0
POINT
  5
264
330
36
100
AcDbEntity
  8
2
100
AcDbPoint
 10
4761.624
 20
-7585.278000000001
 30
0.0
  0
TEXT
  5
265
330
36
100
AcDbEntity
  8
2
100
AcDbText
 10
4761.624
 20
-7585.278000000001
 30
0.0
 40
10.0
  1
#-98
100
AcDbText
  0
POINT
  5
267
330
36
100
AcDbEntity
  8
2
100
AcDbPoint
 10
4638.758
 20
-7572.407
 30
0.0
  0
TEXT
  5
268
330
36
100
AcDbEntity
  8
2
100
AcDbText
 10
4638.758
 20
-7572.407
 30
0.0
 40
10.0
  1
#-99
100
AcDbText
  0
POINT
  5
269
330
36
100
AcDbEntity
  8
2
100
AcDbPoint
 10
4760.064
 20
-7572.407
 30
0.0
  0
TEXT
  5
26A
330
36
100
AcDbEntity
  8
2
100
AcDbText
 10
4760.064
 20
-7572.407
 30
0.0
 40
10.0
  1
#-100
100
AcDbText
  0
POINT
  5
26C
330
36
100
AcDbEntity
  8
2
100
AcDbPoint
 10
4637.588
 20
-7558.365000000001
 30
0.0
  0
TEXT
  5
26D
330
36
100
AcDbEntity
  8
2
100
AcDbText
 10
4637.588
 20
-7558.365000000001
 30
0.0
 40
10.0
  1
#-101
100
AcDbText
  0
POINT
  5
26E
330
36
100
AcDbEntity
  8
2
100
AcDbPoint
 10
4760.454000000001
 20
-7558.365000000001
 30
0.0
  0
TEXT
  5
26F
330
36
100
AcDbEntity
  8
2
100
AcDbText
 10
4760.454000000001
 20
-7558.365000000001
 30
0.0
 40
10.0
  1
#-102
100
AcDbText
  0
POINT
  5
271
330
36
100
AcDbEntity
  8
2
100
AcDbPoint
 10
4642.880999999999
 20
-7544.810000000001
 30
0.0
  0
TEXT
  5
272
330
36
100
AcDbEntity
  8
2
100
AcDbText
 10
4642.880999999999
 20
-7544.810000000001
 30
0.0
 40
10.0
  1
#-103
100
AcDbText
  0
POINT
  5
273
330
36
100
AcDbEntity
  8
2
100
AcDbPoint
 10
4762.375
 20
-7544.810000000001
 30
0.0
  0
TEXT
  5
274
330
36
100
AcDbEntity
  8
2
100
AcDbText
 10
4762.375
 20
-7544.810000000001
 30
0.0
 40
10.0
  1
#-104
100
AcDbText
  0
POINT
  5
275
330
36
100
AcDbEntity
  8
2
100
AcDbPoint
 10
4762.375
 20
-7624.406999999999
 30
0.0
  0
TEXT
  5
276
330
36
100
AcDbEntity
  8
2
100
AcDbText
 10
4762.375
 20
-7624.406999999999
 30
0.0
 40
10.0
  1
#-105
100
AcDbText
  0
POINT
  5
277
330
36
100
AcDbEntity
  8
2
100
AcDbPoint
 10
4638.719
 20
-7624.406999999999
 30
0.0
  0
TEXT
  5
278
330
36
100
AcDbEntity
  8
2
100
AcDbText
 10
4638.719
 20
-7624.406999999999
 30
0.0
 40
10.0
  1
#-106
100
AcDbText
  0
POINT
  5
279
330
36
100
AcDbEntity
  8
2
100
AcDbPoint
 10
4638.719
 20
-7549.566
 30
0.0
  0
TEXT
  5
27A
330
36
100
AcDbEntity
  8
2
100
AcDbText
 10
4638.719
 20
-7549.566
 30
0.0
 40
10.0
  1
#-107
100
AcDbText
  0
POINT
  5
27C
330
36
100
AcDbEntity
  8
2
100
AcDbPoint
 10
4711.898
 20
-7452.732000000001
 30
0.0
  0
TEXT
  5
27D
330
36
100
AcDbEntity
  8
2
100
AcDbText
 10
4711.898
 20
-7452.732000000001
 30
0.0
 40
10.0
  1
#-108
100
AcDbText
  0
POINT
  5
27E
330
36
100
AcDbEntity
  8
2
100
AcDbPoint
 10
4711.898
 20
-7480.047
 30
0.0
  0
TEXT
  5
27F
330
36
100
AcDbEntity
  8
2
100
AcDbText
 10
4711.898
 20
-7480.047
 30
0.0
 40
10.0
  1
#-109
100
AcDbText
  0
POINT
  5
280
330
36
100
AcDbEntity
  8
2
100
AcDbPoint
 10
4709.712999999999
 20
-7480.047
 30
0.0
  0
TEXT
  5
281
330
36
100
AcDbEntity
  8
2
100
AcDbText
 10
4709.712999999999
 20
-7480.047
 30
0.0
 40
10.0
  1
#-110
100
AcDbText
  0
POINT
  5
283
330
36
100
AcDbEntity
  8
2
100
AcDbPoint
 10
4679.667999999999
 20
-7452.459000000001
 30
0.0
  0
TEXT
  5
284
330
36
100
AcDbEntity
  8
2
100
AcDbText
 10
4679.667999999999
 20
-7452.459000000001
 30
0.0
 40
10.0
  1
#-111
100
AcDbText
  0
POINT
  5
285
330
36
100
AcDbEntity
  8
2
100
AcDbPoint
 10
4679.667999999999
 20
-7533.693000000001
 30
0.0
  0
TEXT
  5
286
330
36
100
AcDbEntity
  8
2
100
AcDbText
 10
4679.667999999999
 20
-7533.693000000001
 30
0.0
 40
10.0
  1
#-112
100
AcDbText
  0
POINT
  5
288
330
36
100
AcDbEntity
  8
2
100
AcDbPoint
 10
4638.6
 20
-7519.691999999999
 30
0.0
  0
TEXT
  5
289
330
36
100
AcDbEntity
  8
2
100
AcDbText
 10
4638.6
 20
-7519.691999999999
 30
0.0
 40
10.0
  1
#-113
100
AcDbText
  0
POINT
  5
28A
330
36
100
AcDbEntity
  8
2
100
AcDbPoint
 10
4763.025999999999
 20
-7519.691999999999
 30
0.0
  0
TEXT
  5
28B
330
36
100
AcDbEntity
  8
2
100
AcDbText
 10
4763.025999999999
 20
-7519.691999999999
 30
0.0
 40
10.0
  1
#-114
100
AcDbText
  0
POINT
  5
28D
330
36
100
AcDbEntity
  8
2
100
AcDbPoint
 10
4638.989999999999
 20
-7506.21
 30
0.0
  0
TEXT
  5
28E
330
36
100
AcDbEntity
  8
2
100
AcDbText
 10
4638.989999999999
 20
-7506.21
 30
0.0
 40
10.0
  1
#-115
100
AcDbText
  0
POINT
  5
28F
330
36
100
AcDbEntity
  8
2
100
AcDbPoint
 10
4761.855999999999
 20
-7506.21
 30
0.0
  0
TEXT
  5
290
330
36
100
AcDbEntity
  8
2
100
AcDbText
 10
4761.855999999999
 20
-7506.21
 30
0.0
 40
10.0
  1
#-116
100
AcDbText
  0
POINT
  5
292
330
36
100
AcDbEntity
  8
2
100
AcDbPoint
 10
4638.989999999999
 20
-7493.339
 30
0.0
  0
TEXT
  5
293
330
36
100
AcDbEntity
  8
2
100
AcDbText
 10
4638.989999999999
 20
-7493.339
 30
0.0
 40
10.0
  1
#-117
100
AcDbText
  0
POINT
  5
294
330
36
100
AcDbEntity
  8
2
100
AcDbPoint
 10
4761.855999999999
 20
-7493.339
 30
0.0
  0
TEXT
  5
295
330
36
100
AcDbEntity
  8
2
100
AcDbText
 10
4761.855999999999
 20
-7493.339
 30
0.0
 40
10.0
  1
#-118
100
AcDbText
  0
POINT
  5
297
330
36
100
AcDbEntity
  8
2
100
AcDbPoint
 10
4638.989999999999
 20
-7480.467
 30
0.0
  0
TEXT
  5
298
330
36
100
AcDbEntity
  8
2
100
AcDbText
 10
4638.989999999999
 20
-7480.467
 30
0.0
 40
10.0
  1
#-119
100
AcDbText
  0
POINT
  5
299
330
36
100
AcDbEntity
  8
2
100
AcDbPoint
 10
4760.295999999999
 20
-7480.467
 30
0.0
  0
TEXT
  5
29A
330
36
100
AcDbEntity
  8
2
100
AcDbText
 10
4760.295999999999
 20
-7480.467
 30
0.0
 40
10.0
  1
#-120
100
AcDbText
  0
POINT
  5
29C
330
36
100
AcDbEntity
  8
2
100
AcDbPoint
 10
4637.82
 20
-7466.425
 30
0.0
  0
TEXT
  5
29D
330
36
100
AcDbEntity
  8
2
100
AcDbText
 10
4637.82
 20
-7466.425
 30
0.0
 40
10.0
  1
#-121
100
AcDbText
  0
POINT
  5
29E
330
36
100
AcDbEntity
  8
2
100
AcDbPoint
 10
4760.685999999999
 20
-7466.425
 30
0.0
  0
TEXT
  5
29F
330
36
100
AcDbEntity
  8
2
100
AcDbText
 10
4760.685999999999
 20
-7466.425
 30
0.0
 40
10.0
  1
#-122
100
AcDbText
  0
POINT
  5
2A1
330
36
100
AcDbEntity
  8
2
100
AcDbPoint
 10
4745.449
 20
-7636.562999999999
 30
0.0
  0
TEXT
  5
2A2
330
36
100
AcDbEntity
  8
2
100
AcDbText
 10
4745.449
 20
-7636.562999999999
 30
0.0
 40
10.0
  1
#-123
100
AcDbText
  0
POINT
  5
2A3
330
36
100
AcDbEntity
  8
2
100
AcDbPoint
 10
4745.449
 20
-7705.054
 30
0.0
  0
TEXT
  5
2A4
330
36
100
AcDbEntity
  8
2
100
AcDbText
 10
4745.449
 20
-7705.054
 30
0.0
 40
10.0
  1
#-124
100
AcDbText
  0
POINT
  5
2A6
330
36
100
AcDbEntity
  8
2
100
AcDbPoint
 10
4705.16
 20
-7637.183000000002
 30
0.0
  0
TEXT
  5
2A7
330
36
100
AcDbEntity
  8
2
100
AcDbText
 10
4705.16
 20
-7637.183000000002
 30
0.0
 40
10.0
  1
#-125
100
AcDbText
  0
POINT
  5
2A8
330
36
100
AcDbEntity
  8
2
100
AcDbPoint
 10
4705.16
 20
-7704.125000000001
 30
0.0
  0
TEXT
  5
2A9
330
36
100
AcDbEntity
  8
2
100
AcDbText
 10
4705.16
 20
-7704.125000000001
 30
0.0
 40
10.0
  1
#-126
100
AcDbText
  0
POINT
  5
2AB
330
36
100
AcDbEntity
  8
2
100
AcDbPoint
 10
4672.928
 20
-7637.183000000002
 30
0.0
  0
TEXT
  5
2AC
330
36
100
AcDbEntity
  8
2
100
AcDbText
 10
4672.928
 20
-7637.183000000002
 30
0.0
 40
10.0
  1
#-127
100
AcDbText
  0
POINT
  5
2AD
330
36
100
AcDbEntity
  8
2
100
AcDbPoint
 10
4672.928
 20
-7704.435000000001
 30
0.0
  0
TEXT
  5
2AE
330
36
100
AcDbEntity
  8
2
100
AcDbText
 10
4672.928
 20
-7704.435000000001
 30
0.0
 40
10.0
  1
#-128
100
AcDbText
  0
POINT
  5
2B0
330
36
100
AcDbEntity
  8
2
100
AcDbPoint
 10
4654.643
 20
-7636.873000000001
 30
0.0
  0
TEXT
  5
2B1
330
36
100
AcDbEntity
  8
2
100
AcDbText
 10
4654.643
 20
-7636.873000000001
 30
0.0
 40
10.0
  1
#-129
100
AcDbText
  0
POINT
  5
2B2
330
36
100
AcDbEntity
  8
2
100
AcDbPoint
 10
4654.643
 20
-7705.674000000001
 30
0.0
  0
TEXT
  5
2B3
330
36
100
AcDbEntity
  8
2
100
AcDbText
 10
4654.643
 20
-7705.674000000001
 30
0.0
 40
10.0
  1
#-130
100
AcDbText
  0
POINT
  5
2B5
330
36
100
AcDbEntity
  8
2
100
AcDbPoint
 10
4627.061
 20
-7693.588000000001
 30
0.0
  0
TEXT
  5
2B6
330
36
100
AcDbEntity
  8
2
100
AcDbText
 10
4627.061
 20
-7693.588000000001
 30
0.0
 40
10.0
  1
#-131
100
AcDbText
  0
POINT
  5
2B7
330
36
100
AcDbEntity
  8
2
100
AcDbPoint
 10
4779.684
 20
-7693.588000000001
 30
0.0
  0
TEXT
  5
2B8
330
36
100
AcDbEntity
  8
2
100
AcDbText
 10
4779.684
 20
-7693.588000000001
 30
0.0
 40
10.0
  1
#-132
100
AcDbText
  0
POINT
  5
2BA
330
36
100
AcDbEntity
  8
2
100
AcDbPoint
 10
4627.061
 20
-7682.121000000001
 30
0.0
  0
TEXT
  5
2BB
330
36
100
AcDbEntity
  8
2
100
AcDbText
 10
4627.061
 20
-7682.121000000001
 30
0.0
 40
10.0
  1
#-133
100
AcDbText
  0
POINT
  5
2BC
330
36
100
AcDbEntity
  8
2
100
AcDbPoint
 10
4780.304
 20
-7682.121000000001
 30
0.0
  0
TEXT
  5
2BD
330
36
100
AcDbEntity
  8
2
100
AcDbText
 10
4780.304
 20
-7682.121000000001
 30
0.0
 40
10.0
  1
#-134
100
AcDbText
  0
POINT
  5
2BF
330
36
100
AcDbEntity
  8
2
100
AcDbPoint
 10
4628.919999999999
 20
-7670.964000000001
 30
0.0
  0
TEXT
  5
2C0
330
36
100
AcDbEntity
  8
2
100
AcDbText
 10
4628.919999999999
 20
-7670.964000000001
 30
0.0
 40
10.0
  1
#-135
100
AcDbText
  0
POINT
  5
2C1
330
36
100
AcDbEntity
  8
2
100
AcDbPoint
 10
4777.514
 20
-7670.964000000001
 30
0.0
  0
TEXT
  5
2C2
330
36
100
AcDbEntity
  8
2
100
AcDbText
 10
4777.514
 20
-7670.964000000001
 30
0.0
 40
10.0
  1
#-136
100
AcDbText
  0
POINT
  5
2C4
330
36
100
AcDbEntity
  8
2
100
AcDbPoint
 10
4627.371
 20
-7659.187
 30
0.0
  0
TEXT
  5
2C5
330
36
100
AcDbEntity
  8
2
100
AcDbText
 10
4627.371
 20
-7659.187
 30
0.0
 40
10.0
  1
#-137
100
AcDbText
  0
POINT
  5
2C6
330
36
100
AcDbEntity
  8
2
100
AcDbPoint
 10
4778.754
 20
-7659.187
 30
0.0
  0
TEXT
  5
2C7
330
36
100
AcDbEntity
  8
2
100
AcDbText
 10
4778.754
 20
-7659.187
 30
0.0
 40
10.0
  1
#-138
100
AcDbText
  0
POINT
  5
2C9
330
36
100
AcDbEntity
  8
2
100
AcDbPoint
 10
4628.61
 20
-7648.03
 30
0.0
  0
TEXT
  5
2CA
330
36
100
AcDbEntity
  8
2
100
AcDbText
 10
4628.61
 20
-7648.03
 30
0.0
 40
10.0
  1
#-139
100
AcDbText
  0
POINT
  5
2CB
330
36
100
AcDbEntity
  8
2
100
AcDbPoint
 10
4779.684
 20
-7648.03
 30
0.0
  0
TEXT
  5
2CC
330
36
100
AcDbEntity
  8
2
100
AcDbText
 10
4779.684
 20
-7648.03
 30
0.0
 40
10.0
  1
#-140
100
AcDbText
  0
POINT
  5
2CE
330
36
100
AcDbEntity
  8
2
100
AcDbPoint
 10
4628.61
 20
-7637.183000000002
 30
0.0
  0
TEXT
  5
2CF
330
36
100
AcDbEntity
  8
2
100
AcDbText
 10
4628.61
 20
-7637.183000000002
 30
0.0
 40
10.0
  1
#-141
100
AcDbText
  0
POINT
  5
2D0
330
36
100
AcDbEntity
  8
2
100
AcDbPoint
 10
4780.614
 20
-7637.183000000002
 30
0.0
  0
TEXT
  5
2D1
330
36
100
AcDbEntity
  8
2
100
AcDbText
 10
4780.614
 20
-7637.183000000002
 30
0.0
 40
10.0
  1
#-142
100
AcDbText
  0
POINT
  5
2D2
330
36
100
AcDbEntity
  8
2
100
AcDbPoint
 10
4780.614
 20
-7705.074999999999
 30
0.0
  0
TEXT
  5
2D3
330
36
100
AcDbEntity
  8
2
100
AcDbText
 10
4780.614
 20
-7705.074999999999
 30
0.0
 40
10.0
  1
#-143
100
AcDbText
  0
POINT
  5
2D4
330
36
100
AcDbEntity
  8
2
100
AcDbPoint
 10
4627.061
 20
-7705.074999999999
 30
0.0
  0
TEXT
  5
2D5
330
36
100
AcDbEntity
  8
2
100
AcDbText
 10
4627.061
 20
-7705.074999999999
 30
0.0
 40
10.0
  1
#-144
100
AcDbText
  0
POINT
  5
2D6
330
36
100
AcDbEntity
  8
2
100
AcDbPoint
 10
4627.061
 20
-7650.819
 30
0.0
  0
TEXT
  5
2D7
330
36
100
AcDbEntity
  8
2
100
AcDbText
 10
4627.061
 20
-7650.819
 30
0.0
 40
10.0
  1
#-145
100
AcDbText
  0
LINE
  5
2D8
330
36
100
AcDbEntity
  8
7
100
AcDbLine
 10
4793.685
 20
-7416.017
 30
0.0
 11
4628.207
 21
-7416.017
 31
0.0
  0
POINT
  5
2D9
330
36
100
AcDbEntity
  8
2
100
AcDbPoint
 10
4793.685
 20
-7416.017
 30
0.0
  0
TEXT
  5
2DA
330
36
100
AcDbEntity
  8
2
100
AcDbText
 10
4793.685
 20
-7416.017
 30
0.0
 40
10.0
  1
#-1
100
AcDbText
  0
POINT
  5
2DB
330
36
100
AcDbEntity
  8
2
100
AcDbPoint
 10
4628.207
 20
-7416.017
 30
0.0
  0
TEXT
  5
2DC
330
36
100
AcDbEntity
  8
2
100
AcDbText
 10
4628.207
 20
-7416.017
 30
0.0
 40
10.0
  1
#-1
100
AcDbText
  0
TEXT
  5
2DD
330
36
100
AcDbEntity
  8
15
100
AcDbText
 10
4652.028
 20
-6990.444
 30
0.0
 40
10.0
  1
上
100
AcDbText
  0
TEXT
  5
2DE
330
36
100
AcDbEntity
  8
15
100
AcDbText
 10
4650.231
 20
-7555.578000000001
 30
0.0
 40
10.0
  1
型号
100
AcDbText
  0
TEXT
  5
2DF
330
36
100
AcDbEntity
  8
15
100
AcDbText
 10
4648.645000000001
 20
-7570.268
 30
0.0
 40
10.0
  1
工序
100
AcDbText
  0
TEXT
  5
2E0
330
36
100
AcDbEntity
  8
15
100
AcDbText
 10
4641.907999999999
 20
-7582.942
 30
0.0
 40
10.0
  1
规格名称
100
AcDbText
  0
TEXT
  5
2E1
330
36
100
AcDbEntity
  8
15
100
AcDbText
 10
4640.695
 20
-7595.913
 30
0.0
 40
10.0
  1
材料名称
100
AcDbText
  0
TEXT
  5
2E2
330
36
100
AcDbEntity
  8
15
100
AcDbText
 10
4639.777
 20
-7609.093000000001
 30
0.0
 40
10.0
  1
L8245#0.5分
100
AcDbText
  0
TEXT
  5
2E3
330
36
100
AcDbEntity
  8
15
100
AcDbText
 10
4639.929
 20
-7622.744
 30
0.0
 40
10.0
  1
L0450#3分
100
AcDbText
  0
TEXT
  5
2E4
330
36
100
AcDbEntity
  8
15
100
AcDbText
 10
4682.004
 20
-7464.068000000001
 30
0.0
 40
10.0
  1
R265#
100
AcDbText
  0
TEXT
  5
2E5
330
36
100
AcDbEntity
  8
15
100
AcDbText
 10
4713.403
 20
-7463.57
 30
0.0
 40
10.0
  1
制作时间2017.1.17
100
AcDbText
  0
TEXT
  5
2E6
330
36
100
AcDbEntity
  8
15
100
AcDbText
 10
4689.717
 20
-7478.089
 30
0.0
 40
10.0
  1
1件
100
AcDbText
  0
TEXT
  5
2E7
330
36
100
AcDbEntity
  8
15
100
AcDbText
 10
4713.899999999999
 20
-7478.298999999999
 30
0.0
 40
10.0
  1
负责人A13
100
AcDbText
  0
TEXT
  5
2E8
330
36
100
AcDbEntity
  8
15
100
AcDbText
 10
4704.528
 20
-7490.244000000001
 30
0.0
 40
10.0
  1
开棉
100
AcDbText
  0
TEXT
  5
2E9
330
36
100
AcDbEntity
  8
15
100
AcDbText
 10
4700.089
 20
-7502.979
 30
0.0
 40
10.0
  1
1.8*2.0
100
AcDbText
  0
TEXT
  5
2EA
330
36
100
AcDbEntity
  8
15
100
AcDbText
 10
4699.663
 20
-7517.554
 30
0.0
 40
10.0
  1
模板编号
100
AcDbText
  0
TEXT
  5
2EB
330
36
100
AcDbEntity
  8
15
100
AcDbText
 10
4717.062
 20
-7531.171999999999
 30
0.0
 40
10.0
  1
1
100
AcDbText
  0
TEXT
  5
2EC
330
36
100
AcDbEntity
  8
15
100
AcDbText
 10
4680.532999999999
 20
-7556.255
 30
0.0
 40
10.0
  1
R265#
100
AcDbText
  0
TEXT
  5
2ED
330
36
100
AcDbEntity
  8
15
100
AcDbText
 10
4712.631
 20
-7555.578000000001
 30
0.0
 40
10.0
  1
制作时间2017.1.17
100
AcDbText
  0
TEXT
  5
2EE
330
36
100
AcDbEntity
  8
15
100
AcDbText
 10
4684.959
 20
-7570.816
 30
0.0
 40
10.0
  1
开棉
100
AcDbText
  0
TEXT
  5
2EF
330
36
100
AcDbEntity
  8
15
100
AcDbText
 10
4714.847999999999
 20
-7570.515999999999
 30
0.0
 40
10.0
  1
负责人A13
100
AcDbText
  0
TEXT
  5
2F0
330
36
100
AcDbEntity
  8
15
100
AcDbText
 10
4701.417999999999
 20
-7583.019
 30
0.0
 40
10.0
  1
1.8*2.0
100
AcDbText
  0
TEXT
  5
2F1
330
36
100
AcDbEntity
  8
15
100
AcDbText
 10
4681.116
 20
-7595.034000000001
 30
0.0
 40
10.0
  1
模板总件数
100
AcDbText
  0
TEXT
  5
2F2
330
36
100
AcDbEntity
  8
15
100
AcDbText
 10
4723.079000000001
 20
-7595.069000000001
 30
0.0
 40
10.0
  1
实际使用件数
100
AcDbText
  0
TEXT
  5
2F3
330
36
100
AcDbEntity
  8
15
100
AcDbText
 10
4687.05
 20
-7609.465999999999
 30
0.0
 40
10.0
  1
1件
100
AcDbText
  0
TEXT
  5
2F4
330
36
100
AcDbEntity
  8
15
100
AcDbText
 10
4740.853
 20
-7608.043000000001
 30
0.0
 40
10.0
  1
7件
100
AcDbText
  0
TEXT
  5
2F5
330
36
100
AcDbEntity
  8
15
100
AcDbText
 10
4742.324
 20
-7622.819000000001
 30
0.0
 40
10.0
  1
1件
100
AcDbText
  0
TEXT
  5
2F6
330
36
100
AcDbEntity
  8
15
100
AcDbText
 10
4631.510999999999
 20
-7646.823000000001
 30
0.0
 40
10.0
  1
海绵型号
100
AcDbText
  0
TEXT
  5
2F7
330
36
100
AcDbEntity
  8
15
100
AcDbText
 10
4656.59
 20
-7646.926999999999
 30
0.0
 40
10.0
  1
厚度
100
AcDbText
  0
TEXT
  5
2F8
330
36
100
AcDbEntity
  8
15
100
AcDbText
 10
4674.007999999999
 20
-7646.644000000001
 30
0.0
 40
10.0
  1
部位
100
AcDbText
  0
TEXT
  5
2F9
330
36
100
AcDbEntity
  8
15
100
AcDbText
 10
4692.760999999999
 20
-7644.066999999999
 30
0.0
 40
10.0
  1
名称
100
AcDbText
  0
TEXT
  5
2FA
330
36
100
AcDbEntity
  8
15
100
AcDbText
 10
4628.73
 20
-7657.085999999999
 30
0.0
 40
10.0
  1
L8245#
100
AcDbText
  0
TEXT
  5
2FB
330
36
100
AcDbEntity
  8
15
100
AcDbText
 10
4628.364
 20
-7668.066
 30
0.0
 40
10.0
  1
L8245#
100
AcDbText
  0
TEXT
  5
2FC
330
36
100
AcDbEntity
  8
15
100
AcDbText
 10
4628.547
 20
-7679.045999999999
 30
0.0
 40
10.0
  1
L8245#
100
AcDbText
  0
TEXT
  5
2FD
330
36
100
AcDbEntity
  8
15
100
AcDbText
 10
4628.364
 20
-7691.124000000001
 30
0.0
 40
10.0
  1
L8245#
100
AcDbText
  0
TEXT
  5
2FE
330
36
100
AcDbEntity
  8
15
100
AcDbText
 10
4628.747
 20
-7702.626999999999
 30
0.0
 40
10.0
  1
L0450#
100
AcDbText
  0
TEXT
  5
2FF
330
36
100
AcDbEntity
  8
15
100
AcDbText
 10
4656.729999999999
 20
-7657.085999999999
 30
0.0
 40
10.0
  1
0.5分
100
AcDbText
  0
TEXT
  5
300
330
36
100
AcDbEntity
  8
15
100
AcDbText
 10
4656.912999999999
 20
-7668.980999999999
 30
0.0
 40
10.0
  1
0.5分
100
AcDbText
  0
TEXT
  5
301
330
36
100
AcDbEntity
  8
15
100
AcDbText
 10
4656.547
 20
-7679.961
 30
0.0
 40
10.0
  1
0.5分
100
AcDbText
  0
TEXT
  5
302
330
36
100
AcDbEntity
  8
15
100
AcDbText
 10
4656.729999999999
 20
-7692.039000000001
 30
0.0
 40
10.0
  1
0.5分
100
AcDbText
  0
TEXT
  5
303
330
36
100
AcDbEntity
  8
15
100
AcDbText
 10
4658.781
 20
-7702.491000000001
 30
0.0
 40
10.0
  1
3分
100
AcDbText
  0
TEXT
  5
304
330
36
100
AcDbEntity
  8
15
100
AcDbText
 10
4677.446999999999
 20
-7657.808000000001
 30
0.0
 40
10.0
  1
拼架后
100
AcDbText
  0
TEXT
  5
305
330
36
100
AcDbEntity
  8
15
100
AcDbText
 10
4677.566
 20
-7669.491
 30
0.0
 40
10.0
  1
拼架前
100
AcDbText
  0
TEXT
  5
306
330
36
100
AcDbEntity
  8
15
100
AcDbText
 10
4678.713
 20
-7680.923000000001
 30
0.0
 40
10.0
  1
侧板
100
AcDbText
  0
TEXT
  5
307
330
36
100
AcDbEntity
  8
15
100
AcDbText
 10
4679.973
 20
-7691.859
 30
0.0
 40
10.0
  1
尾板
100
AcDbText
  0
TEXT
  5
308
330
36
100
AcDbEntity
  8
15
100
AcDbText
 10
4678.692
 20
-7702.659000000001
 30
0.0
 40
10.0
  1
尾板包
100
AcDbText
  0
TEXT
  5
309
330
36
100
AcDbEntity
  8
15
100
AcDbText
 10
4708.132
 20
-7701.693
 30
0.0
 40
10.0
  1
143*25=1件
100
AcDbText
  0
TEXT
  5
30A
330
36
100
AcDbEntity
  8
15
100
AcDbText
 10
4707.83
 20
-7656.395
 30
0.0
 40
10.0
  1
191*86=1件
100
AcDbText
  0
TEXT
  5
30B
330
36
100
AcDbEntity
  8
15
100
AcDbText
 10
4708.138
 20
-7668.478
 30
0.0
 40
10.0
  1
191*95=1件
100
AcDbText
  0
TEXT
  5
30C
330
36
100
AcDbEntity
  8
15
100
AcDbText
 10
4708.327999999999
 20
-7679.244000000001
 30
0.0
 40
10.0
  1
193*27=2件
100
AcDbText
  0
TEXT
  5
30D
330
36
100
AcDbEntity
  8
15
100
AcDbText
 10
4707.804
 20
-7690.593000000001
 30
0.0
 40
10.0
  1
198*27=1件
100
AcDbText
  0
TEXT
  5
30E
330
36
100
AcDbEntity
  8
15
100
AcDbText
 10
4747.866
 20
-7702.640000000001
 30
0.0
 40
10.0
  1
四周粘边
100
AcDbText
  0
TEXT
  5
30F
330
36
100
AcDbEntity
  8
15
100
AcDbText
 10
4723.428
 20
-7780.544
 30
0.0
 40
10.0
  1
1-1
100
AcDbText
  0
TEXT
  5
310
330
36
100
AcDbEntity
  8
15
100
AcDbText
 10
4650.234
 20
-7464.949
 30
0.0
 40
10.0
  1
型号
100
AcDbText
  0
TEXT
  5
311
330
36
100
AcDbEntity
  8
15
100
AcDbText
 10
4641.627999999999
 20
-7478.644
 30
0.0
 40
10.0
  1
模板总件数
100
AcDbText
  0
TEXT
  5
312
330
36
100
AcDbEntity
  8
15
100
AcDbText
 10
4649.281
 20
-7491.561
 30
0.0
 40
10.0
  1
工序
100
AcDbText
  0
TEXT
  5
313
330
36
100
AcDbEntity
  8
15
100
AcDbText
 10
4641.327999999999
 20
-7504.944
 30
0.0
 40
10.0
  1
规格名称
100
AcDbText
  0
TEXT
  5
314
330
36
100
AcDbEntity
  8
15
100
AcDbText
 10
4640.181
 20
-7517.849
 30
0.0
 40
10.0
  1
材料名称
100
AcDbText
  0
TEXT
  5
315
330
36
100
AcDbEntity
  8
15
100
AcDbText
 10
4639.827999999999
 20
-7531.579
 30
0.0
 40
10.0
  1
L8245#0.5分
100
AcDbText
  0
TEXT
  5
316
330
36
100
AcDbEntity
  8
15
100
AcDbText
 10
4646.527999999999
 20
-7187.844
 30
0.0
 40
10.0
  1
1.8米
100
AcDbText
  0
TEXT
  5
317
330
36
100
AcDbEntity
  8
1
100
AcDbText
 10
4628.207
 20
-7405.016999999999
 30
0.0
 40
10.0
  1
PIECE NAME: R265#拼架侧海棉L8245#0.5cm 2件
100
AcDbText
  0
TEXT
  5
318
330
36
100
AcDbEntity
  8
1
100
AcDbText
 10
4628.207
 20
-7394.016999999999
 30
0.0
 40
10.0
  1
SIZE: BS
100
AcDbText
  0
TEXT
  5
319
330
36
100
AcDbEntity
  8
1
100
AcDbText
 10
4628.207
 20
-7383.016999999999
 30
0.0
 40
10.0
  1
ANNOTATION: 
100
AcDbText
  0
TEXT
  5
31A
330
36
100
AcDbEntity
  8
1
100
AcDbText
 10
4628.207
 20
-7372.016999999999
 30
0.0
 40
10.0
  1
QUANTITY: 1
100
AcDbText
  0
TEXT
  5
31B
330
36
100
AcDbEntity
  8
1
100
AcDbText
 10
4628.207
 20
-7361.017
 30
0.0
 40
10.0
  1
MATERIAL: 
100
AcDbText
  0
LINE
  5
31E
330
36
100
AcDbEntity
  8
8
100
AcDbLine
 10
4628.61
 20
-7637.183000000002
 30
0.0
 11
4780.614
 21
-7637.183000000002
 31
0.0
  0
LINE
  5
31F
330
36
100
AcDbEntity
  8
8
100
AcDbLine
 10
4780.614
 20
-7637.183000000002
 30
0.0
 11
4780.614
 21
-7705.074999999999
 31
0.0
  0
LINE
  5
320
330
36
100
AcDbEntity
  8
8
100
AcDbLine
 10
4780.614
 20
-7705.074999999999
 30
0.0
 11
4627.061
 21
-7705.074999999999
 31
0.0
  0
LINE
  5
321
330
36
100
AcDbEntity
  8
8
100
AcDbLine
 10
4627.061
 20
-7705.074999999999
 30
0.0
 11
4627.061
 21
-7650.819
 31
0.0
  0
LINE
  5
322
330
36
100
AcDbEntity
  8
8
100
AcDbLine
 10
4628.61
 20
-7648.03
 30
0.0
 11
4779.684
 21
-7648.03
 31
0.0
  0
LINE
  5
323
330
36
100
AcDbEntity
  8
8
100
AcDbLine
 10
4627.371
 20
-7659.187
 30
0.0
 11
4778.754
 21
-7659.187
 31
0.0
  0
LINE
  5
324
330
36
100
AcDbEntity
  8
8
100
AcDbLine
 10
4628.919999999999
 20
-7670.964000000001
 30
0.0
 11
4777.514
 21
-7670.964000000001
 31
0.0
  0
LINE
  5
325
330
36
100
AcDbEntity
  8
8
100
AcDbLine
 10
4627.061
 20
-7682.121000000001
 30
0.0
 11
4780.304
 21
-7682.121000000001
 31
0.0
  0
LINE
  5
326
330
36
100
AcDbEntity
  8
8
100
AcDbLine
 10
4627.061
 20
-7693.588000000001
 30
0.0
 11
4779.684
 21
-7693.588000000001
 31
0.0
  0
LINE
  5
327
330
36
100
AcDbEntity
  8
8
100
AcDbLine
 10
4654.643
 20
-7636.873000000001
 30
0.0
 11
4654.643
 21
-7705.674000000001
 31
0.0
  0
LINE
  5
328
330
36
100
AcDbEntity
  8
8
100
AcDbLine
 10
4672.928
 20
-7637.183000000002
 30
0.0
 11
4672.928
 21
-7704.435000000001
 31
0.0
  0
LINE
  5
329
330
36
100
AcDbEntity
  8
8
100
AcDbLine
 10
4705.16
 20
-7637.183000000002
 30
0.0
 11
4705.16
 21
-7704.125000000001
 31
0.0
  0
LINE
  5
32A
330
36
100
AcDbEntity
  8
8
100
AcDbLine
 10
4745.449
 20
-7636.562999999999
 30
0.0
 11
4745.449
 21
-7705.054
 31
0.0
  0
LINE
  5
32B
330
36
100
AcDbEntity
  8
8
100
AcDbLine
 10
4637.82
 20
-7466.425
 30
0.0
 11
4760.685999999999
 21
-7466.425
 31
0.0
  0
LINE
  5
32C
330
36
100
AcDbEntity
  8
8
100
AcDbLine
 10
4638.989999999999
 20
-7480.467
 30
0.0
 11
4760.295999999999
 21
-7480.467
 31
0.0
  0
LINE
  5
32D
330
36
100
AcDbEntity
  8
8
100
AcDbLine
 10
4638.989999999999
 20
-7493.339
 30
0.0
 11
4761.855999999999
 21
-7493.339
 31
0.0
  0
LINE
  5
32E
330
36
100
AcDbEntity
  8
8
100
AcDbLine
 10
4638.989999999999
 20
-7506.21
 30
0.0
 11
4761.855999999999
 21
-7506.21
 31
0.0
  0
LINE
  5
32F
330
36
100
AcDbEntity
  8
8
100
AcDbLine
 10
4638.6
 20
-7519.691999999999
 30
0.0
 11
4763.025999999999
 21
-7519.691999999999
 31
0.0
  0
LINE
  5
330
330
36
100
AcDbEntity
  8
8
100
AcDbLine
 10
4679.667999999999
 20
-7452.459000000001
 30
0.0
 11
4679.667999999999
 21
-7533.693000000001
 31
0.0
  0
LINE
  5
331
330
36
100
AcDbEntity
  8
8
100
AcDbLine
 10
4711.898
 20
-7452.732000000001
 30
0.0
 11
4711.898
 21
-7480.047
 31
0.0
  0
LINE
  5
332
330
36
100
AcDbEntity
  8
8
100
AcDbLine
 10
4711.898
 20
-7480.047
 30
0.0
 11
4709.712999999999
 21
-7480.047
 31
0.0
  0
LINE
  5
333
330
36
100
AcDbEntity
  8
8
100
AcDbLine
 10
4642.880999999999
 20
-7544.810000000001
 30
0.0
 11
4762.375
 21
-7544.810000000001
 31
0.0
  0
LINE
  5
334
330
36
100
AcDbEntity
  8
8
100
AcDbLine
 10
4762.375
 20
-7544.810000000001
 30
0.0
 11
4762.375
 21
-7624.406999999999
 31
0.0
  0
LINE
  5
335
330
36
100
AcDbEntity
  8
8
100
AcDbLine
 10
4762.375
 20
-7624.406999999999
 30
0.0
 11
4638.719
 21
-7624.406999999999
 31
0.0
  0
LINE
  5
336
330
36
100
AcDbEntity
  8
8
100
AcDbLine
 10
4638.719
 20
-7624.406999999999
 30
0.0
 11
4638.719
 21
-7549.566
 31
0.0
  0
LINE
  5
337
330
36
100
AcDbEntity
  8
8
100
AcDbLine
 10
4637.588
 20
-7558.365000000001
 30
0.0
 11
4760.454000000001
 21
-7558.365000000001
 31
0.0
  0
LINE
  5
338
330
36
100
AcDbEntity
  8
8
100
AcDbLine
 10
4638.758
 20
-7572.407
 30
0.0
 11
4760.064
 21
-7572.407
 31
0.0
  0
LINE
  5
339
330
36
100
AcDbEntity
  8
8
100
AcDbLine
 10
4638.758
 20
-7585.278000000001
 30
0.0
 11
4761.624
 21
-7585.278000000001
 31
0.0
  0
LINE
  5
33A
330
36
100
AcDbEntity
  8
8
100
AcDbLine
 10
4638.758
 20
-7598.15
 30
0.0
 11
4761.624
 21
-7598.15
 31
0.0
  0
LINE
  5
33B
330
36
100
AcDbEntity
  8
8
100
AcDbLine
 10
4638.367999999999
 20
-7611.631
 30
0.0
 11
4762.794
 21
-7611.631
 31
0.0
  0
LINE
  5
33C
330
36
100
AcDbEntity
  8
8
100
AcDbLine
 10
4719.056
 20
-7624.693
 30
0.0
 11
4719.002999999999
 21
-7585.984999999999
 31
0.0
  0
LINE
  5
33D
330
36
100
AcDbEntity
  8
8
100
AcDbLine
 10
4679.435999999999
 20
-7544.399
 30
0.0
 11
4679.435999999999
 21
-7624.633000000001
 31
0.0
  0
LINE
  5
33E
330
36
100
AcDbEntity
  8
8
100
AcDbLine
 10
4711.667000000001
 20
-7544.672
 30
0.0
 11
4711.667000000001
 21
-7571.985999999999
 31
0.0
  0
LINE
  5
33F
330
36
100
AcDbEntity
  8
8
100
AcDbLine
 10
4711.667000000001
 20
-7571.985999999999
 30
0.0
 11
4709.480999999999
 21
-7571.985999999999
 31
0.0
  0
LINE
  5
340
330
36
100
AcDbEntity
  8
8
100
AcDbLine
 10
4643.113
 20
-7452.87
 30
0.0
 11
4762.607
 21
-7452.87
 31
0.0
  0
LINE
  5
341
330
36
100
AcDbEntity
  8
8
100
AcDbLine
 10
4762.607
 20
-7452.87
 30
0.0
 11
4762.607
 21
-7533.467
 31
0.0
  0
LINE
  5
342
330
36
100
AcDbEntity
  8
8
100
AcDbLine
 10
4762.607
 20
-7533.467
 30
0.0
 11
4638.951
 21
-7533.467
 31
0.0
  0
LINE
  5
343
330
36
100
AcDbEntity
  8
8
100
AcDbLine
 10
4638.951
 20
-7533.467
 30
0.0
 11
4638.951
 21
-7457.626000000001
 31
0.0
  0
LINE
  5
344
330
36
100
AcDbEntity
  8
1
100
AcDbLine
 10
4803.074000000001
 20
-7818.844
 30
0.0
 11
4803.904000000001
 21
-7729.478
 31
0.0
  0
LINE
  5
345
330
36
100
AcDbEntity
  8
1
100
AcDbLine
 10
4803.904000000001
 20
-7729.478
 30
0.0
 11
4804.219
 21
-7695.314999999999
 31
0.0
  0
LINE
  5
346
330
36
100
AcDbEntity
  8
1
100
AcDbLine
 10
4804.219
 20
-7695.314999999999
 30
0.0
 11
4804.386
 21
-7664.063
 31
0.0
  0
LINE
  5
347
330
36
100
AcDbEntity
  8
1
100
AcDbLine
 10
4804.386
 20
-7664.063
 30
0.0
 11
4804.452999999999
 21
-7632.816999999999
 31
0.0
  0
LINE
  5
348
330
36
100
AcDbEntity
  8
1
100
AcDbLine
 10
4804.452999999999
 20
-7632.816999999999
 30
0.0
 11
4804.573000000001
 21
-7598.764
 31
0.0
  0
LINE
  5
349
330
36
100
AcDbEntity
  8
1
100
AcDbLine
 10
4804.573000000001
 20
-7598.764
 30
0.0
 11
4804.51
 21
-7509.545999999999
 31
0.0
  0
LINE
  5
34A
330
36
100
AcDbEntity
  8
1
100
AcDbLine
 10
4804.51
 20
-7509.545999999999
 30
0.0
 11
4803.632
 21
-7473.643
 31
0.0
  0
LINE
  5
34B
330
36
100
AcDbEntity
  8
1
100
AcDbLine
 10
4803.632
 20
-7473.643
 30
0.0
 11
4803.256
 21
-7447.326
 31
0.0
  0
LINE
  5
34C
330
36
100
AcDbEntity
  8
1
100
AcDbLine
 10
4803.256
 20
-7447.326
 30
0.0
 11
4803.08
 21
-7420.999000000001
 31
0.0
  0
LINE
  5
34D
330
36
100
AcDbEntity
  8
1
100
AcDbLine
 10
4803.08
 20
-7420.999000000001
 30
0.0
 11
4803.096
 21
-7384.949
 31
0.0
  0
LINE
  5
34E
330
36
100
AcDbEntity
  8
1
100
AcDbLine
 10
4803.096
 20
-7384.949
 30
0.0
 11
4798.939
 21
-7383.965
 31
0.0
  0
LINE
  5
34F
330
36
100
AcDbEntity
  8
1
100
AcDbLine
 10
4798.939
 20
-7383.965
 30
0.0
 11
4796.085
 21
-7383.013000000001
 31
0.0
  0
LINE
  5
350
330
36
100
AcDbEntity
  8
1
100
AcDbLine
 10
4796.085
 20
-7383.013000000001
 30
0.0
 11
4793.531
 21
-7382.045000000001
 31
0.0
  0
LINE
  5
351
330
36
100
AcDbEntity
  8
1
100
AcDbLine
 10
4793.531
 20
-7382.045000000001
 30
0.0
 11
4792.301
 21
-7381.509
 31
0.0
  0
LINE
  5
352
330
36
100
AcDbEntity
  8
1
100
AcDbLine
 10
4792.301
 20
-7381.509
 30
0.0
 11
4791.271
 21
-7380.962
 31
0.0
  0
LINE
  5
353
330
36
100
AcDbEntity
  8
1
100
AcDbLine
 10
4791.271
 20
-7380.962
 30
0.0
 11
4790.236
 21
-7380.315
 31
0.0
  0
LINE
  5
354
330
36
100
AcDbEntity
  8
1
100
AcDbLine
 10
4790.236
 20
-7380.315
 30
0.0
 11
4789.095999999999
 21
-7379.574000000001
 31
0.0
  0
LINE
  5
355
330
36
100
AcDbEntity
  8
1
100
AcDbLine
 10
4789.095999999999
 20
-7379.574000000001
 30
0.0
 11
4788.055
 21
-7378.827
 31
0.0
  0
LINE
  5
356
330
36
100
AcDbEntity
  8
1
100
AcDbLine
 10
4788.055
 20
-7378.827
 30
0.0
 11
4787.109
 21
-7377.975000000001
 31
0.0
  0
LINE
  5
357
330
36
100
AcDbEntity
  8
1
100
AcDbLine
 10
4787.109
 20
-7377.975000000001
 30
0.0
 11
4786.059
 21
-7377.029
 31
0.0
  0
LINE
  5
358
330
36
100
AcDbEntity
  8
1
100
AcDbLine
 10
4786.059
 20
-7377.029
 30
0.0
 11
4785.102
 21
-7375.978
 31
0.0
  0
LINE
  5
359
330
36
100
AcDbEntity
  8
1
100
AcDbLine
 10
4785.102
 20
-7375.978
 30
0.0
 11
4784.145999999999
 21
-7374.925999999999
 31
0.0
  0
LINE
  5
35A
330
36
100
AcDbEntity
  8
1
100
AcDbLine
 10
4784.145999999999
 20
-7374.925999999999
 30
0.0
 11
4783.185
 21
-7373.774999999999
 31
0.0
  0
LINE
  5
35B
330
36
100
AcDbEntity
  8
1
100
AcDbLine
 10
4783.185
 20
-7373.774999999999
 30
0.0
 11
4781.350999999999
 21
-7371.267
 31
0.0
  0
LINE
  5
35C
330
36
100
AcDbEntity
  8
1
100
AcDbLine
 10
4781.350999999999
 20
-7371.267
 30
0.0
 11
4779.601999999999
 21
-7368.455
 31
0.0
  0
LINE
  5
35D
330
36
100
AcDbEntity
  8
1
100
AcDbLine
 10
4779.601999999999
 20
-7368.455
 30
0.0
 11
4777.935999999999
 21
-7365.338000000001
 31
0.0
  0
LINE
  5
35E
330
36
100
AcDbEntity
  8
1
100
AcDbLine
 10
4777.935999999999
 20
-7365.338000000001
 30
0.0
 11
4776.255999999999
 21
-7361.920999999999
 31
0.0
  0
LINE
  5
35F
330
36
100
AcDbEntity
  8
1
100
AcDbLine
 10
4776.255999999999
 20
-7361.920999999999
 30
0.0
 11
4774.89
 21
-7358.788000000001
 31
0.0
  0
LINE
  5
360
330
36
100
AcDbEntity
  8
1
100
AcDbLine
 10
4774.89
 20
-7358.788000000001
 30
0.0
 11
4773.608
 21
-7355.35
 31
0.0
  0
LINE
  5
361
330
36
100
AcDbEntity
  8
1
100
AcDbLine
 10
4773.608
 20
-7355.35
 30
0.0
 11
4772.322
 21
-7351.812999999999
 31
0.0
  0
LINE
  5
362
330
36
100
AcDbEntity
  8
1
100
AcDbLine
 10
4772.322
 20
-7351.812999999999
 30
0.0
 11
4771.009
 21
-7347.776
 31
0.0
  0
LINE
  5
363
330
36
100
AcDbEntity
  8
1
100
AcDbLine
 10
4771.009
 20
-7347.776
 30
0.0
 11
4769.434
 21
-7342.551
 31
0.0
  0
LINE
  5
364
330
36
100
AcDbEntity
  8
1
100
AcDbLine
 10
4769.434
 20
-7342.551
 30
0.0
 11
4767.827
 21
-7336.727
 31
0.0
  0
LINE
  5
365
330
36
100
AcDbEntity
  8
1
100
AcDbLine
 10
4767.827
 20
-7336.727
 30
0.0
 11
4766.189
 21
-7330.303999999999
 31
0.0
  0
LINE
  5
366
330
36
100
AcDbEntity
  8
1
100
AcDbLine
 10
4766.189
 20
-7330.303999999999
 30
0.0
 11
4764.026
 21
-7321.505000000001
 31
0.0
  0
LINE
  5
367
330
36
100
AcDbEntity
  8
1
100
AcDbLine
 10
4764.026
 20
-7321.505000000001
 30
0.0
 11
4755.777
 21
-7278.677
 31
0.0
  0
LINE
  5
368
330
36
100
AcDbEntity
  8
1
100
AcDbLine
 10
4755.777
 20
-7278.677
 30
0.0
 11
4749.831
 21
-7247.345
 31
0.0
  0
LINE
  5
369
330
36
100
AcDbEntity
  8
1
100
AcDbLine
 10
4749.831
 20
-7247.345
 30
0.0
 11
4745.759
 21
-7225.028
 31
0.0
  0
LINE
  5
36A
330
36
100
AcDbEntity
  8
1
100
AcDbLine
 10
4745.759
 20
-7225.028
 30
0.0
 11
4739.688
 21
-7191.299
 31
0.0
  0
LINE
  5
36B
330
36
100
AcDbEntity
  8
1
100
AcDbLine
 10
4739.688
 20
-7191.299
 30
0.0
 11
4732.357
 21
-7150.727
 31
0.0
  0
LINE
  5
36C
330
36
100
AcDbEntity
  8
1
100
AcDbLine
 10
4732.357
 20
-7150.727
 30
0.0
 11
4725.457
 21
-7112.635
 31
0.0
  0
LINE
  5
36D
330
36
100
AcDbEntity
  8
1
100
AcDbLine
 10
4725.457
 20
-7112.635
 30
0.0
 11
4718.75
 21
-7076.335999999999
 31
0.0
  0
LINE
  5
36E
330
36
100
AcDbEntity
  8
1
100
AcDbLine
 10
4718.75
 20
-7076.335999999999
 30
0.0
 11
4712.221999999999
 21
-7041.53
 31
0.0
  0
LINE
  5
36F
330
36
100
AcDbEntity
  8
1
100
AcDbLine
 10
4712.221999999999
 20
-7041.53
 30
0.0
 11
4697.854
 21
-6965.976999999999
 31
0.0
  0
LINE
  5
370
330
36
100
AcDbEntity
  8
1
100
AcDbLine
 10
4697.854
 20
-6965.976999999999
 30
0.0
 11
4623.357
 21
-6966.070999999999
 31
0.0
  0
LINE
  5
371
330
36
100
AcDbEntity
  8
1
100
AcDbLine
 10
4623.357
 20
-6966.070999999999
 30
0.0
 11
4623.348
 21
-7392.555
 31
0.0
  0
LINE
  5
372
330
36
100
AcDbEntity
  8
1
100
AcDbLine
 10
4623.348
 20
-7392.555
 30
0.0
 11
4623.228
 21
-7818.844
 31
0.0
  0
LINE
  5
373
330
36
100
AcDbEntity
  8
1
100
AcDbLine
 10
4623.228
 20
-7818.844
 30
0.0
 11
4803.074000000001
 21
-7818.844
 31
0.0
  0
LINE
  5
374
330
36
100
AcDbEntity
  8
1
100
AcDbLine
 10
4803.074000000001
 20
-7818.844
 30
0.0
 11
4803.074000000001
 21
-7818.844
 31
0.0
  0
ENDSEC
  0
SECTION
  2
OBJECTS
  0
DICTIONARY
  5
C
330
0
100
AcDbDictionary
281
     1
  3
ACAD_COLOR
350
2F
  3
ACAD_GROUP
350
D
  3
ACAD_LAYOUT
350
2E
  3
ACAD_MATERIAL
350
10
  3
ACAD_MLINESTYLE
350
2B
  3
ACAD_PLOTSETTINGS
350
2D
  3
ACAD_PLOTSTYLENAME
350
E
  3
ACAD_TABLESTYLE
350
30
  3
ACAD_VISUALSTYLE
350
14
  3
AcDbVariableDictionary
350
201
  0
DICTIONARY
  5
31C
330
36
100
AcDbDictionary
280
     1
281
     1
  3
ACAD_SORTENTS
360
31D
  0
DICTIONARY
  5
2F
102
{ACAD_REACTORS
330
C
102
}
330
C
100
AcDbDictionary
281
     1
  0
DICTIONARY
  5
D
102
{ACAD_REACTORS
330
C
102
}
330
C
100
AcDbDictionary
281
     1
  0
DICTIONARY
  5
2E
102
{ACAD_REACTORS
330
C
102
}
330
C
100
AcDbDictionary
281
     1
  3
Model
350
39
  3
布局1
350
35
  0
DICTIONARY
  5
10
102
{ACAD_REACTORS
330
C
102
}
330
C
100
AcDbDictionary
281
     1
  3
ByBlock
350
12
  3
ByLayer
350
11
  3
Global
350
13
  0
DICTIONARY
  5
2B
102
{ACAD_REACTORS
330
C
102
}
330
C
100
AcDbDictionary
281
     1
  3
Standard
350
2C
  0
DICTIONARY
  5
2D
102
{ACAD_REACTORS
330
C
102
}
330
C
100
AcDbDictionary
281
     1
  0
ACDBDICTIONARYWDFLT
  5
E
102
{ACAD_REACTORS
330
C
102
}
330
C
100
AcDbDictionary
281
     1
  3
Normal
350
F
100
AcDbDictionaryWithDefault
340
F
  0
DICTIONARY
  5
30
102
{ACAD_REACTORS
330
C
102
}
330
C
100
AcDbDictionary
281
     1
  3
Standard
350
31
  0
DICTIONARY
  5
14
102
{ACAD_REACTORS
330
C
102
}
330
C
100
AcDbDictionary
281
     1
  3
2dWireframe
350
1A
  3
3D Hidden
350
1C
  3
3dWireframe
350
1B
  3
Basic
350
19
  3
Brighten
350
20
  3
ColorChange
350
24
  3
Conceptual
350
1D
  3
Dim
350
1F
  3
Facepattern
350
23
  3
Flat
350
15
  3
FlatWithEdges
350
16
  3
Gouraud
350
17
  3
GouraudWithEdges
350
18
  3
Linepattern
350
22
  3
Realistic
350
1E
  3
Thicken
350
21
  0
DICTIONARY
  5
201
102
{ACAD_REACTORS
330
C
102
}
330
C
100
AcDbDictionary
281
     1
  3
CTABLESTYLE
350
202
  0
SORTENTSTABLE
  5
31D
102
{ACAD_REACTORS
330
31C
102
}
330
31C
100
AcDbSortentsTable
330
36
331
310
  5
361
331
332
  5
2C7
331
25D
  5
29C
331
34C
  5
204
331
205
  5
22E
331
27F
  5
2CB
331
2A1
  5
2ED
331
227
  5
256
331
36E
  5
226
331
2FF
  5
350
331
2DD
  5
32E
331
321
  5
31E
331
343
  5
271
331
26E
  5
2B2
331
290
  5
2DC
331
216
  5
241
331
35D
  5
215
331
2EE
  5
33F
331
2B2
  5
2FE
331
238
  5
26B
331
249
  5
283
331
330
  5
2CE
331
25B
  5
29A
331
34A
  5
1FE
331
27D
  5
2C9
331
36C
  5
224
331
29F
  5
2EB
331
225
  5
253
331
2FD
  5
34E
331
2DB
  5
32C
331
2C1
  5
30D
331
31F
  5
31A
331
341
  5
26F
331
26C
  5
2AF
331
28E
  5
2DA
331
214
  5
23F
331
35B
  5
213
331
30E
  5
35F
331
2EC
  5
33D
331
2B0
  5
2FC
331
236
  5
269
331
247
  5
281
331
259
  5
297
331
348
  5
1FC
331
29D
  5
2E9
331
223
  5
251
331
36A
  5
222
331
2FB
  5
34C
331
2D9
  5
32A
331
2BF
  5
30B
331
33F
  5
280
331
245
  5
27D
331
26A
  5
2AD
331
2AE
  5
2FA
331
234
  5
266
331
212
  5
23C
331
359
  5
211
331
30C
  5
35D
331
2EA
  5
33B
331
32E
  5
2D8
331
256
  5
294
331
279
  5
2C3
331
368
  5
220
331
31B
  5
36C
331
2F9
  5
34A
331
2D7
  5
328
331
2BD
  5
309
331
243
  5
27B
331
221
  5
24E
331
33D
  5
288
331
268
  5
2AA
331
28A
  5
2D6
331
210
  5
23A
331
2AC
  5
2F8
331
232
  5
264
331
357
  5
20F
331
30A
  5
35B
331
2E8
  5
339
331
2CE
  5
31F
331
32C
  5
2E2
331
254
  5
291
331
299
  5
2E5
331
319
  5
36A
331
2F7
  5
348
331
2D5
  5
326
331
2BB
  5
307
331
241
  5
278
331
33B
  5
295
331
288
  5
2D4
331
20E
  5
238
331
355
  5
20D
331
308
  5
359
331
2E6
  5
337
331
2CC
  5
318
331
230
  5
261
331
1FD
  5
373
331
277
  5
2C1
331
366
  5
21E
331
21F
  5
24C
331
32A
  5
2EC
331
317
  5
368
331
2F5
  5
346
331
2D3
  5
324
331
339
  5
2A1
331
264
  5
2A5
331
286
  5
2D2
331
20C
  5
236
331
353
  5
20B
331
2A8
  5
2F4
331
22E
  5
25F
331
306
  5
357
331
2E4
  5
335
331
2CA
  5
316
331
1FB
  5
371
331
328
  5
2F6
331
275
  5
2BE
331
364
  5
21C
331
297
  5
2E3
331
21D
  5
249
331
250
  5
28C
331
23F
  5
276
331
315
  5
366
331
2F3
  5
344
331
2D1
  5
322
331
337
  5
2AE
331
262
  5
2A3
331
351
  5
209
331
20A
  5
234
331
284
  5
2D0
331
2A6
  5
2F2
331
22C
  5
25C
331
373
  5
22B
331
304
  5
355
331
2E2
  5
333
331
1F9
  5
36F
331
326
  5
300
331
273
  5
2BC
331
362
  5
21A
331
295
  5
2E1
331
21B
  5
247
331
24E
  5
28A
331
2B7
  5
303
331
23D
  5
274
331
313
  5
364
331
2F1
  5
342
331
335
  5
2B7
331
260
  5
2A0
331
34F
  5
207
331
208
  5
231
331
2A4
  5
2F0
331
22A
  5
25A
331
371
  5
229
331
302
  5
353
331
2E0
  5
331
331
2C6
  5
312
331
324
  5
30A
331
1F7
  5
36D
331
271
  5
2B9
331
360
  5
218
331
346
  5
1FA
331
2B5
  5
301
331
293
  5
2DF
331
219
  5
244
331
24C
  5
287
331
311
  5
362
331
333
  5
2B4
331
25E
  5
29E
331
34D
  5
205
331
206
  5
22F
331
280
  5
2CC
331
2A2
  5
2EE
331
228
  5
257
331
36F
  5
227
331
300
  5
351
331
2DE
  5
32F
331
2C4
  5
310
331
322
  5
314
331
26F
  5
2B3
331
35E
  5
216
331
344
  5
1F8
331
2EF
  5
340
331
2B3
  5
2FF
331
239
  5
26C
331
217
  5
242
331
24A
  5
285
331
331
  5
2C6
331
204
  5
22D
331
34B
  5
203
331
27E
  5
2CA
331
2FE
  5
34F
331
2DC
  5
32D
331
2C2
  5
30E
331
248
  5
282
331
226
  5
255
331
36D
  5
225
331
342
  5
270
331
26D
  5
2B0
331
28F
  5
2DB
331
215
  5
240
331
35C
  5
214
331
30F
  5
360
331
2ED
  5
33E
331
2B1
  5
2FD
331
237
  5
26A
331
320
  5
31B
331
25A
  5
299
331
349
  5
1FD
331
27C
  5
2C8
331
2FC
  5
34D
331
2DA
  5
32B
331
2C0
  5
30C
331
29E
  5
2EA
331
224
  5
252
331
36B
  5
223
331
31E
  5
319
331
28D
  5
2D9
331
213
  5
23D
331
35A
  5
212
331
30D
  5
35E
331
2EB
  5
33C
331
235
  5
267
331
340
  5
26E
331
32F
  5
2D3
331
258
  5
296
331
27A
  5
2C4
331
369
  5
221
331
29C
  5
2E8
331
222
  5
250
331
2FA
  5
34B
331
2D8
  5
329
331
33E
  5
27E
331
244
  5
27C
331
269
  5
2AB
331
28B
  5
2D7
331
211
  5
23B
331
2AD
  5
2F9
331
233
  5
265
331
358
  5
210
331
30B
  5
35C
331
2E9
  5
33A
331
2CF
  5
320
331
32D
  5
2DD
331
255
  5
292
331
278
  5
2C2
331
29A
  5
2E6
331
220
  5
24D
331
31A
  5
36B
331
2F8
  5
349
331
2D6
  5
327
331
2BC
  5
308
331
33C
  5
28F
331
242
  5
279
331
267
  5
2A9
331
289
  5
2D5
331
20F
  5
239
331
2AB
  5
2F7
331
231
  5
262
331
356
  5
20E
331
309
  5
35A
331
2E7
  5
338
331
1FE
  5
374
331
32B
  5
2E7
331
367
  5
21F
331
253
  5
290
331
298
  5
2E4
331
318
  5
369
331
2F6
  5
347
331
2D4
  5
325
331
2BA
  5
306
331
240
  5
277
331
33A
  5
29B
331
265
  5
2A6
331
2A9
  5
2F5
331
22F
  5
260
331
20D
  5
237
331
354
  5
20C
331
307
  5
358
331
2E5
  5
336
331
2CB
  5
317
331
1FC
  5
372
331
329
  5
2F1
331
276
  5
2BF
331
365
  5
21D
331
21E
  5
24B
331
251
  5
28D
331
316
  5
367
331
2F4
  5
345
331
2D2
  5
323
331
2B8
  5
304
331
338
  5
2A8
331
263
  5
2A4
331
352
  5
20A
331
20B
  5
235
331
285
  5
2D1
331
2A7
  5
2F3
331
22D
  5
25D
331
374
  5
22C
331
305
  5
356
331
2E3
  5
334
331
2C9
  5
315
331
1FA
  5
370
331
327
  5
2FB
331
274
  5
2BD
331
363
  5
21B
331
23E
  5
275
331
21C
  5
248
331
24F
  5
28B
331
314
  5
365
331
2F2
  5
343
331
2D0
  5
321
331
336
  5
2B8
331
209
  5
232
331
350
  5
208
331
283
  5
2CF
331
303
  5
354
331
2E1
  5
332
331
2C7
  5
313
331
22B
  5
25B
331
372
  5
22A
331
1F8
  5
36E
331
272
  5
2BA
331
361
  5
219
331
347
  5
1FB
331
294
  5
2E0
331
21A
  5
246
331
325
  5
305
331
2B6
  5
302
331
23C
  5
272
331
312
  5
363
331
2F0
  5
341
331
334
  5
2B5
331
25F
  5
29F
331
34E
  5
206
331
207
  5
230
331
281
  5
2CD
331
2A3
  5
2EF
331
229
  5
258
331
370
  5
228
331
301
  5
352
331
2DF
  5
330
331
2C5
  5
311
331
323
  5
30F
331
292
  5
2DE
331
218
  5
243
331
35F
  5
217
331
345
  5
1F9
331
24B
  5
286
331
23A
  5
26D
  0
LAYOUT
  5
39
102
{ACAD_REACTORS
330
2E
102
}
330
2E
100
AcDbPlotSettings
  1

  2
Foxit Reader PDF Printer
  4

  6

 40
0.0
 41
0.0
 42
0.0
 43
0.0
 44
0.0
 45
0.0
 46
0.0
 47
0.0
 48
0.0
 49
0.0
140
0.0
141
0.0
142
1.0
143
1.0
 70
  1712
 72
     0
 73
     0
 74
     0
  7

 75
     0
147
1.0
 76
     0
 77
     2
 78
   300
148
0.0
149
0.0
100
AcDbLayout
  1
Model
 70
     1
 71
     0
 10
0.0
 20
0.0
 11
12.0
 21
9.0
 12
0.0
 22
0.0
 32
0.0
 14
0.0
 24
0.0
 34
0.0
 15
0.0
 25
0.0
 35
0.0
146
0.0
 13
0.0
 23
0.0
 33
0.0
 16
1.0
 26
0.0
 36
0.0
 17
0.0
 27
1.0
 37
0.0
 76
     0
330
36
331
4A
  0
LAYOUT
  5
35
102
{ACAD_REACTORS
330
2E
102
}
330
2E
100
AcDbPlotSettings
  1

  2
Foxit Reader PDF Printer
  4

  6

 40
0.0
 41
0.0
 42
0.0
 43
0.0
 44
0.0
 45
0.0
 46
0.0
 47
0.0
 48
0.0
 49
0.0
140
0.0
141
0.0
142
1.0
143
1.0
 70
   688
 72
     0
 73
     0
 74
     5
  7

 75
    16
147
1.0
 76
     0
 77
     2
 78
   300
148
0.0
149
0.0
100
AcDbLayout
  1
布局1
 70
     1
 71
     1
 10
0.0
 20
0.0
 11
12.0
 21
9.0
 12
0.0
 22
0.0
 32
0.0
 14
1.000000000000000E+20
 24
1.000000000000000E+20
 34
1.000000000000000E+20
 15
-1.000000000000000E+20
 25
-1.000000000000000E+20
 35
-1.000000000000000E+20
146
0.0
 13
0.0
 23
0.0
 33
0.0
 16
1.0
 26
0.0
 36
0.0
 17
0.0
 27
1.0
 37
0.0
 76
     0
330
32
  0
MATERIAL
  5
12
102
{ACAD_REACTORS
330
10
102
}
330
10
100
AcDbMaterial
  1
ByBlock
  0
MATERIAL
  5
11
102
{ACAD_REACTORS
330
10
102
}
330
10
100
AcDbMaterial
  1
ByLayer
  0
MATERIAL
  5
13
102
{ACAD_REACTORS
330
10
102
}
330
10
100
AcDbMaterial
  1
Global
  0
MLINESTYLE
  5
2C
102
{ACAD_REACTORS
330
2B
102
}
330
2B
100
AcDbMlineStyle
  2
STANDARD
 70
     0
  3

 62
   256
 51
90.0
 52
90.0
 71
     2
 49
0.5
 62
   256
  6
BYLAYER
 49
-0.5
 62
   256
  6
BYLAYER
  0
ACDBPLACEHOLDER
  5
F
102
{ACAD_REACTORS
330
E
102
}
330
E
  0
TABLESTYLE
  5
31
102
{ACAD_REACTORS
330
30
102
}
330
30
100
AcDbTableStyle
  3
Standard
 70
     0
 71
     0
 40
0.06
 41
0.06
280
     0
281
     0
  7
STANDARD
140
0.18
170
     2
 62
     0
 63
     7
283
     0
 90
      512
 91
        0
  1

274
    -2
284
     1
 64
     0
275
    -2
285
     1
 65
     0
276
    -2
286
     1
 66
     0
277
    -2
287
     1
 67
     0
278
    -2
288
     1
 68
     0
279
    -2
289
     1
 69
     0
  7
STANDARD
140
0.25
170
     5
 62
     0
 63
     7
283
     0
 90
      512
 91
        0
  1

274
    -2
284
     1
 64
     0
275
    -2
285
     1
 65
     0
276
    -2
286
     1
 66
     0
277
    -2
287
     1
 67
     0
278
    -2
288
     1
 68
     0
279
    -2
289
     1
 69
     0
  7
STANDARD
140
0.18
170
     5
 62
     0
 63
     7
283
     0
 90
      512
 91
        0
  1

274
    -2
284
     1
 64
     0
275
    -2
285
     1
 65
     0
276
    -2
286
     1
 66
     0
277
    -2
287
     1
 67
     0
278
    -2
288
     1
 68
     0
279
    -2
289
     1
 69
     0
  0
VISUALSTYLE
  5
1A
102
{ACAD_REACTORS
330
14
102
}
330
14
100
AcDbVisualStyle
  2
2dWireframe
 70
     4
 71
     0
 72
     2
 73
     0
 90
        0
 40
-0.6
 41
-30.0
 62
     5
 63
     7
421
 16777215
 74
     1
 91
        4
 64
     7
 65
   257
 75
     1
175
     1
 42
1.0
 92
        0
 66
   257
 43
1.0
 76
     1
 77
     6
 78
     2
 67
     7
 79
     5
170
     0
171
     0
290
     0
174
     0
 93
        1
 44
0.0
173
     0
291
     0
 45
0.0
  0
VISUALSTYLE
  5
1C
102
{ACAD_REACTORS
330
14
102
}
330
14
100
AcDbVisualStyle
  2
3D Hidden
 70
     6
 71
     1
 72
     2
 73
     2
 90
        0
 40
-0.6
 41
-30.0
 62
     5
 63
     7
421
 16777215
 74
     2
 91
        2
 64
     7
 65
   257
 75
     2
175
     1
 42
40.0
 92
        0
 66
   257
 43
1.0
 76
     1
 77
     6
 78
     2
 67
     7
 79
     3
170
     0
171
     0
290
     0
174
     0
 93
        1
 44
0.0
173
     0
291
     0
 45
0.0
  0
VISUALSTYLE
  5
1B
102
{ACAD_REACTORS
330
14
102
}
330
14
100
AcDbVisualStyle
  2
3dWireframe
 70
     5
 71
     0
 72
     2
 73
     0
 90
        0
 40
-0.6
 41
-30.0
 62
     5
 63
     7
421
 16777215
 74
     1
 91
        4
 64
     7
 65
   257
 75
     1
175
     1
 42
1.0
 92
        0
 66
   257
 43
1.0
 76
     1
 77
     6
 78
     2
 67
     7
 79
     5
170
     0
171
     0
290
     0
174
     0
 93
        1
 44
0.0
173
     0
291
     0
 45
0.0
  0
VISUALSTYLE
  5
19
102
{ACAD_REACTORS
330
14
102
}
330
14
100
AcDbVisualStyle
  2
Basic
 70
     7
 71
     1
 72
     0
 73
     1
 90
        0
 40
-0.6
 41
-30.0
 62
     5
 63
     7
421
 16777215
 74
     0
 91
        4
 64
     7
 65
   257
 75
     1
175
     1
 42
1.0
 92
        8
 66
     7
 43
1.0
 76
     1
 77
     6
 78
     2
 67
     7
 79
     5
170
     0
171
     0
290
     0
174
     0
 93
        1
 44
0.0
173
     0
291
     1
 45
0.0
  0
VISUALSTYLE
  5
20
102
{ACAD_REACTORS
330
14
102
}
330
14
100
AcDbVisualStyle
  2
Brighten
 70
    12
 71
     2
 72
     2
 73
     0
 90
        0
 40
-0.6
 41
-30.0
 62
     5
 63
     7
421
 16777215
 74
     1
 91
        4
 64
     7
 65
   257
 75
     1
175
     1
 42
1.0
 92
        8
 66
     7
 43
1.0
 76
     1
 77
     6
 78
     2
 67
     7
 79
     5
170
     0
171
     0
290
     0
174
     0
 93
        1
 44
50.0
173
     0
291
     1
 45
0.0
  0
VISUALSTYLE
  5
24
102
{ACAD_REACTORS
330
14
102
}
330
14
100
AcDbVisualStyle
  2
ColorChange
 70
    16
 71
     2
 72
     2
 73
     3
 90
        0
 40
-0.6
 41
-30.0
 62
     5
 63
     8
421
  8421504
 74
     1
 91
        4
 64
     7
 65
   257
 75
     1
175
     1
 42
1.0
 92
        8
 66
     8
424
  8421504
 43
1.0
 76
     1
 77
     6
 78
     2
 67
     7
 79
     5
170
     0
171
     0
290
     0
174
     0
 93
        1
 44
0.0
173
     0
291
     1
 45
0.0
  0
VISUALSTYLE
  5
1D
102
{ACAD_REACTORS
330
14
102
}
330
14
100
AcDbVisualStyle
  2
Conceptual
 70
     9
 71
     3
 72
     2
 73
     0
 90
        0
 40
-0.6
 41
-30.0
 62
     5
 63
     7
421
 16777215
 74
     2
 91
        2
 64
     7
 65
   257
 75
     1
175
     1
 42
40.0
 92
        8
 66
     7
 43
1.0
 76
     1
 77
     6
 78
     2
 67
     7
 79
     3
170
     0
171
     0
290
     0
174
     0
 93
        1
 44
0.0
173
     0
291
     0
 45
0.0
  0
VISUALSTYLE
  5
1F
102
{ACAD_REACTORS
330
14
102
}
330
14
100
AcDbVisualStyle
  2
Dim
 70
    11
 71
     2
 72
     2
 73
     0
 90
        0
 40
-0.6
 41
-30.0
 62
     5
 63
     7
421
 16777215
 74
     1
 91
        4
 64
     7
 65
   257
 75
     1
175
     1
 42
1.0
 92
        8
 66
     7
 43
1.0
 76
     1
 77
     6
 78
     2
 67
     7
 79
     5
170
     0
171
     0
290
     0
174
     0
 93
        1
 44
-50.0
173
     0
291
     1
 45
0.0
  0
VISUALSTYLE
  5
23
102
{ACAD_REACTORS
330
14
102
}
330
14
100
AcDbVisualStyle
  2
Facepattern
 70
    15
 71
     2
 72
     2
 73
     0
 90
        0
 40
-0.6
 41
-30.0
 62
     5
 63
     7
421
 16777215
 74
     1
 91
        4
 64
     7
 65
   257
 75
     1
175
     1
 42
1.0
 92
        8
 66
     7
 43
1.0
 76
     1
 77
     6
 78
     2
 67
     7
 79
     5
170
     0
171
     0
290
     0
174
     0
 93
        1
 44
0.0
173
     0
291
     1
 45
0.0
  0
VISUALSTYLE
  5
15
102
{ACAD_REACTORS
330
14
102
}
330
14
100
AcDbVisualStyle
  2
Flat
 70
     0
 71
     2
 72
     1
 73
     1
 90
        2
 40
-0.6
 41
30.0
 62
     5
 63
     7
421
 16777215
 74
     0
 91
        4
 64
     7
 65
   257
 75
     1
175
     1
 42
1.0
 92
        8
 66
     7
 43
1.0
 76
     1
 77
     6
 78
     2
 67
     7
 79
     5
170
     0
171
     0
290
     0
174
     0
 93
       13
 44
0.0
173
     0
291
     1
 45
0.0
  0
VISUALSTYLE
  5
16
102
{ACAD_REACTORS
330
14
102
}
330
14
100
AcDbVisualStyle
  2
FlatWithEdges
 70
     1
 71
     2
 72
     1
 73
     1
 90
        2
 40
-0.6
 41
30.0
 62
     5
 63
     7
421
 16777215
 74
     1
 91
        4
 64
     7
 65
   257
 75
     1
175
     1
 42
1.0
 92
        0
 66
   257
 43
1.0
 76
     1
 77
     6
 78
     2
 67
     7
 79
     5
170
     0
171
     0
290
     0
174
     0
 93
       13
 44
0.0
173
     0
291
     1
 45
0.0
  0
VISUALSTYLE
  5
17
102
{ACAD_REACTORS
330
14
102
}
330
14
100
AcDbVisualStyle
  2
Gouraud
 70
     2
 71
     2
 72
     2
 73
     1
 90
        2
 40
-0.6
 41
30.0
 62
     5
 63
     7
421
 16777215
 74
     0
 91
        4
 64
     7
 65
   257
 75
     1
175
     1
 42
1.0
 92
        0
 66
     7
 43
1.0
 76
     1
 77
     6
 78
     2
 67
     7
 79
     5
170
     0
171
     0
290
     0
174
     0
 93
       13
 44
0.0
173
     0
291
     1
 45
0.0
  0
VISUALSTYLE
  5
18
102
{ACAD_REACTORS
330
14
102
}
330
14
100
AcDbVisualStyle
  2
GouraudWithEdges
 70
     3
 71
     2
 72
     2
 73
     1
 90
        2
 40
-0.6
 41
30.0
 62
     5
 63
     7
421
 16777215
 74
     1
 91
        4
 64
     7
 65
   257
 75
     1
175
     1
 42
1.0
 92
        0
 66
   257
 43
1.0
 76
     1
 77
     6
 78
     2
 67
     7
 79
     5
170
     0
171
     0
290
     0
174
     0
 93
       13
 44
0.0
173
     0
291
     1
 45
0.0
  0
VISUALSTYLE
  5
22
102
{ACAD_REACTORS
330
14
102
}
330
14
100
AcDbVisualStyle
  2
Linepattern
 70
    14
 71
     2
 72
     2
 73
     0
 90
        0
 40
-0.6
 41
-30.0
 62
     5
 63
     7
421
 16777215
 74
     1
 91
        4
 64
     7
 65
   257
 75
     7
175
     7
 42
1.0
 92
        8
 66
     7
 43
1.0
 76
     1
 77
     6
 78
     2
 67
     7
 79
     5
170
     0
171
     0
290
     0
174
     0
 93
        1
 44
0.0
173
     0
291
     1
 45
0.0
  0
VISUALSTYLE
  5
1E
102
{ACAD_REACTORS
330
14
102
}
330
14
100
AcDbVisualStyle
  2
Realistic
 70
     8
 71
     2
 72
     2
 73
     0
 90
        0
 40
-0.6
 41
-30.0
 62
     5
 63
     7
421
 16777215
 74
     1
 91
        0
 64
     7
 65
   257
 75
     1
175
     1
 42
1.0
 92
        8
 66
     8
424
  7895160
 43
1.0
 76
     1
 77
     6
 78
     2
 67
     7
 79
     5
170
     0
171
     0
290
     0
174
     0
 93
       13
 44
0.0
173
     0
291
     0
 45
0.0
  0
VISUALSTYLE
  5
21
102
{ACAD_REACTORS
330
14
102
}
330
14
100
AcDbVisualStyle
  2
Thicken
 70
    13
 71
     2
 72
     2
 73
     0
 90
        0
 40
-0.6
 41
-30.0
 62
     5
 63
     7
421
 16777215
 74
     1
 91
        4
 64
     7
 65
   257
 75
     1
175
     1
 42
1.0
 92
       12
 66
     7
 43
1.0
 76
     1
 77
     6
 78
     2
 67
     7
 79
     5
170
     0
171
     0
290
     0
174
     0
 93
        1
 44
0.0
173
     0
291
     1
 45
0.0
  0
DICTIONARYVAR
  5
202
102
{ACAD_REACTORS
330
201
102
}
330
201
100
DictionaryVariables
280
     0
  1
STANDARD
  0
ENDSEC
  0
EOF
