0
SECTION
2
HEADER
9
$LUNITS
70
2
9
$INSUNITS
70
4
0
ENDSEC
0
SECTION
2
TABLES
0
TABLE
2
LTYPE
70
1
0
LTYPE
2
CONTINUOUS
70
64
3
SOLIDLINE
72
65
73
0
40
0.0000
0
ENDTAB
0
TABLE
2
LAYER
70
14
0
LAYER
2
1
70
0
62
7
6
CONTINUOUS
0
LAYER
2
2
70
0
62
1
6
CONTINUOUS
0
LAYER
2
3
70
0
62
2
6
CONTINUOUS
0
LAYER
2
4
70
0
62
3
6
CONTINUOUS
0
LAYER
2
5
70
0
62
5
6
CONTINUOUS
0
LAYER
2
6
70
0
62
5
6
CONTINUOUS
0
LAYER
2
7
70
0
62
5
6
CONTINUOUS
0
LAYER
2
8
70
0
62
4
6
CONTINUOUS
0
LAYER
2
9
70
0
62
5
6
CONTINUOUS
0
LAYER
2
10
70
0
62
5
6
CONTINUOUS
0
LAYER
2
11
70
0
62
4
6
CONTINUOUS
0
LAYER
2
12
70
0
62
6
6
CONTINUOUS
0
LAYER
2
13
70
0
62
5
6
CONTINUOUS
0
LAYER
2
14
70
0
62
7
6
CONTINUOUS
0
LAYER
2
19
70
0
62
5
6
CONTINUOUS
0
ENDTAB
0
TABLE
2
STYLE
70
1
0
STYLE
2
STANDARD
70
0
40
0.0000
41
1.0000
50
0.0000
71
0
42
1.0000
3
txt
4

0
ENDTAB
0
ENDSEC
0
SECTION
2
BLOCKS
0
BLOCK
8
0
2
0
70
0
10
0.0000
20
0.0000
0
POLYLINE
8
1
66
1
70
1
0
VERTEX
8
1
10
3000.847
20
-1499.405
0
VERTEX
8
1
10
3078.951
20
-1499.261
0
VERTEX
8
1
10
3082.312
20
-1491.989
0
VERTEX
8
1
10
3084.253
20
-1499.005
0
VERTEX
8
1
10
3591.07
20
-1499.058
0
VERTEX
8
1
10
4097.885
20
-1499.41
0
VERTEX
8
1
10
4099.745
20
-1492.326
0
VERTEX
8
1
10
4102.687
20
-1499.251
0
VERTEX
8
1
10
4180.688
20
-1499.405
0
VERTEX
8
1
10
4180.522
20
-1412.001
0
VERTEX
8
1
10
4180.558
20
-1348.099
0
VERTEX
8
1
10
4180.794
20
-1284.199
0
VERTEX
8
1
10
4181.227
20
-1196.799
0
VERTEX
8
1
10
4147.729
20
-1196.418
0
VERTEX
8
1
10
4134.929
20
-1196.411
0
VERTEX
8
1
10
4123.229
20
-1196.412
0
VERTEX
8
1
10
4111.427
20
-1196.513
0
VERTEX
8
1
10
4098.525
20
-1196.705
0
VERTEX
8
1
10
4064.817
20
-1197.522
0
VERTEX
8
1
10
4061.358
20
-1204.594
0
VERTEX
8
1
10
4060.416
20
-1197.685
0
VERTEX
8
1
10
3899.511
20
-1197.535
0
VERTEX
8
1
10
3781.808
20
-1197.448
0
VERTEX
8
1
10
3663.904
20
-1197.458
0
VERTEX
8
1
10
3502.797
20
-1197.606
0
VERTEX
8
1
10
3394.493
20
-1197.598
0
VERTEX
8
1
10
3315.29
20
-1197.633
0
VERTEX
8
1
10
3235.185
20
-1197.861
0
VERTEX
8
1
10
3125.677
20
-1198.342
0
VERTEX
8
1
10
3121.312
20
-1206.106
0
VERTEX
8
1
10
3115.18
20
-1197.954
0
VERTEX
8
1
10
3002.372
20
-1198.507
0
VERTEX
8
1
10
3001.614
20
-1288.804
0
VERTEX
8
1
10
3001.259
20
-1354.904
0
VERTEX
8
1
10
3001.047
20
-1416.004
0
VERTEX
8
1
10
3000.847
20
-1499.405
0
SEQEND
8
1
0
POINT
8
2
10
3000.847
20
-1499.405
0
TEXT
8
2
10
3000.847
20
-1499.405
40
10.00
1
#-44
0
POINT
8
2
10
3078.951
20
-1499.261
0
TEXT
8
2
10
3078.951
20
-1499.261
40
10.00
1
#-45
0
POINT
8
2
10
3082.312
20
-1491.989
0
TEXT
8
2
10
3082.312
20
-1491.989
40
10.00
1
#-46
0
POINT
8
2
10
3084.253
20
-1499.005
0
TEXT
8
2
10
3084.253
20
-1499.005
40
10.00
1
#-47
0
POINT
8
2
10
4097.885
20
-1499.41
0
TEXT
8
2
10
4097.885
20
-1499.41
40
10.00
1
#-48
0
POINT
8
2
10
4099.745
20
-1492.326
0
TEXT
8
2
10
4099.745
20
-1492.326
40
10.00
1
#-49
0
POINT
8
2
10
4102.687
20
-1499.251
0
TEXT
8
2
10
4102.687
20
-1499.251
40
10.00
1
#-50
0
POINT
8
2
10
4180.688
20
-1499.405
0
TEXT
8
2
10
4180.688
20
-1499.405
40
10.00
1
#-51
0
POINT
8
2
10
4181.227
20
-1196.799
0
TEXT
8
2
10
4181.227
20
-1196.799
40
10.00
1
#-52
0
POINT
8
2
10
4064.817
20
-1197.522
0
TEXT
8
2
10
4064.817
20
-1197.522
40
10.00
1
#-53
0
POINT
8
2
10
4061.358
20
-1204.594
0
TEXT
8
2
10
4061.358
20
-1204.594
40
10.00
1
#-54
0
POINT
8
2
10
4060.416
20
-1197.685
0
TEXT
8
2
10
4060.416
20
-1197.685
40
10.00
1
#-55
0
POINT
8
2
10
3502.797
20
-1197.606
0
TEXT
8
2
10
3502.797
20
-1197.606
40
10.00
1
#-56
0
POINT
8
2
10
3125.677
20
-1198.342
0
TEXT
8
2
10
3125.677
20
-1198.342
40
10.00
1
#-57
0
POINT
8
2
10
3121.312
20
-1206.106
0
TEXT
8
2
10
3121.312
20
-1206.106
40
10.00
1
#-58
0
POINT
8
2
10
3115.18
20
-1197.954
0
TEXT
8
2
10
3115.18
20
-1197.954
40
10.00
1
#-59
0
POINT
8
2
10
3002.372
20
-1198.507
0
TEXT
8
2
10
3002.372
20
-1198.507
40
10.00
1
#-60
0
POINT
8
3
10
3591.07
20
-1499.058
0
POINT
8
3
10
4180.522
20
-1412.001
0
POINT
8
3
10
4180.558
20
-1348.099
0
POINT
8
3
10
4180.794
20
-1284.199
0
POINT
8
3
10
4147.729
20
-1196.418
0
POINT
8
3
10
4134.929
20
-1196.411
0
POINT
8
3
10
4123.229
20
-1196.412
0
POINT
8
3
10
4111.427
20
-1196.513
0
POINT
8
3
10
4098.525
20
-1196.705
0
POINT
8
3
10
3899.511
20
-1197.535
0
POINT
8
3
10
3781.808
20
-1197.448
0
POINT
8
3
10
3663.904
20
-1197.458
0
POINT
8
3
10
3394.493
20
-1197.598
0
POINT
8
3
10
3315.29
20
-1197.633
0
POINT
8
3
10
3235.185
20
-1197.861
0
POINT
8
3
10
3001.614
20
-1288.804
0
POINT
8
3
10
3001.259
20
-1354.904
0
POINT
8
3
10
3001.047
20
-1416.004
0
LINE
8
7
10
3689.836
20
-1345.281
11
3432.876
21
-1345.281
0
POINT
8
2
10
3689.836
20
-1345.281
0
TEXT
8
2
10
3689.836
20
-1345.281
40
10.00
1
#-1
0
POINT
8
2
10
3432.876
20
-1345.281
0
TEXT
8
2
10
3432.876
20
-1345.281
40
10.00
1
#-1
0
TEXT
8
15
10
3617.372
20
-1234.007
11
3630.572
21
-1234.007
40
10.00
50
0
1
上
0
TEXT
8
15
10
3931.772
20
-1427.707
11
3964.272
21
-1427.707
40
10.00
50
0
1
-30
0
TEXT
8
15
10
3196.492
20
-1360.279
11
3260.624
21
-1360.279
40
10.00
50
0
1
1.5米
0
TEXT
8
1
10
3432.876
20
-1334.281
40
10.00
1
PIECE NAME: R265#尾板外白布2件
0
TEXT
8
1
10
3432.876
20
-1323.281
40
10.00
1
SIZE: BS
0
TEXT
8
1
10
3432.876
20
-1312.281
40
10.00
1
ANNOTATION: 
0
TEXT
8
1
10
3432.876
20
-1301.281
40
10.00
1
QUANTITY: 1
0
TEXT
8
1
10
3432.876
20
-1290.281
40
10.00
1
MATERIAL: 
0
ENDBLK
0
BLOCK
8
0
2
1
70
0
10
0.0000
20
0.0000
0
POLYLINE
8
1
66
1
70
1
0
VERTEX
8
1
10
3174.891
20
-1771.07
0
VERTEX
8
1
10
3287.2
20
-1771.893
0
VERTEX
8
1
10
3369.511
20
-1772.342
0
VERTEX
8
1
10
3443.924
20
-1772.614
0
VERTEX
8
1
10
3511.94
20
-1772.642
0
VERTEX
8
1
10
3575.158
20
-1772.562
0
VERTEX
8
1
10
3644.183
20
-1772.212
0
VERTEX
8
1
10
3720.511
20
-1771.826
0
VERTEX
8
1
10
3824.855
20
-1771.07
0
VERTEX
8
1
10
3824.58
20
-1569.613
0
VERTEX
8
1
10
3681.542
20
-1569.7
0
VERTEX
8
1
10
3576.912
20
-1569.85
0
VERTEX
8
1
10
3495.985
20
-1570.132
0
VERTEX
8
1
10
3407.454
20
-1570.544
0
VERTEX
8
1
10
3309.718
20
-1571.048
0
VERTEX
8
1
10
3176.064
20
-1571.946
0
VERTEX
8
1
10
3175.572
20
-1629.45
0
VERTEX
8
1
10
3175.226
20
-1671.553
0
VERTEX
8
1
10
3175.08
20
-1713.66
0
VERTEX
8
1
10
3174.891
20
-1771.07
0
SEQEND
8
1
0
POINT
8
2
10
3174.891
20
-1771.07
0
TEXT
8
2
10
3174.891
20
-1771.07
40
10.00
1
#-61
0
POINT
8
2
10
3824.855
20
-1771.07
0
TEXT
8
2
10
3824.855
20
-1771.07
40
10.00
1
#-62
0
POINT
8
2
10
3824.58
20
-1569.613
0
TEXT
8
2
10
3824.58
20
-1569.613
40
10.00
1
#-63
0
POINT
8
2
10
3176.064
20
-1571.946
0
TEXT
8
2
10
3176.064
20
-1571.946
40
10.00
1
#-64
0
POINT
8
3
10
3287.2
20
-1771.893
0
POINT
8
3
10
3369.511
20
-1772.342
0
POINT
8
3
10
3443.924
20
-1772.614
0
POINT
8
3
10
3511.94
20
-1772.642
0
POINT
8
3
10
3575.158
20
-1772.562
0
POINT
8
3
10
3644.183
20
-1772.212
0
POINT
8
3
10
3720.511
20
-1771.826
0
POINT
8
3
10
3681.542
20
-1569.7
0
POINT
8
3
10
3576.912
20
-1569.85
0
POINT
8
3
10
3495.985
20
-1570.132
0
POINT
8
3
10
3407.454
20
-1570.544
0
POINT
8
3
10
3309.718
20
-1571.048
0
POINT
8
3
10
3175.572
20
-1629.45
0
POINT
8
3
10
3175.226
20
-1671.553
0
POINT
8
3
10
3175.08
20
-1713.66
0
LINE
8
7
10
3610.406
20
-1637.211
11
3414.364
21
-1637.211
0
POINT
8
2
10
3610.406
20
-1637.211
0
TEXT
8
2
10
3610.406
20
-1637.211
40
10.00
1
#-1
0
POINT
8
2
10
3414.364
20
-1637.211
0
TEXT
8
2
10
3414.364
20
-1637.211
40
10.00
1
#-1
0
TEXT
8
15
10
3643.764
20
-1725.246
11
3658.864
21
-1725.246
40
10.00
50
0
1
-29
0
TEXT
8
15
10
3294.378
20
-1714.695
11
3361.886
21
-1714.695
40
10.00
50
0
1
1.5米
0
TEXT
8
1
10
3414.364
20
-1626.211
40
10.00
1
PIECE NAME: R265#拼包白布隔条2件
0
TEXT
8
1
10
3414.364
20
-1615.211
40
10.00
1
SIZE: BS
0
TEXT
8
1
10
3414.364
20
-1604.211
40
10.00
1
ANNOTATION: 
0
TEXT
8
1
10
3414.364
20
-1593.211
40
10.00
1
QUANTITY: 1
0
TEXT
8
1
10
3414.364
20
-1582.211
40
10.00
1
MATERIAL: 
0
ENDBLK
0
BLOCK
8
0
2
2
70
0
10
0.0000
20
0.0000
0
POLYLINE
8
1
66
1
70
1
0
VERTEX
8
1
10
4008.713
20
-442.694
0
VERTEX
8
1
10
3748.79
20
-443.728
0
VERTEX
8
1
10
3558.591
20
-444.437
0
VERTEX
8
1
10
3368.407
20
-444.947
0
VERTEX
8
1
10
3108.613
20
-445.59
0
VERTEX
8
1
10
3108.146
20
-505.927
0
VERTEX
8
1
10
3108
20
-550.143
0
VERTEX
8
1
10
3108.06
20
-594.274
0
VERTEX
8
1
10
3108.491
20
-654.68
0
VERTEX
8
1
10
3114.62
20
-655.847
0
VERTEX
8
1
10
3108.511
20
-659.696
0
VERTEX
8
1
10
3108.391
20
-744.53
0
VERTEX
8
1
10
3108.186
20
-806.693
0
VERTEX
8
1
10
3107.89
20
-868.748
0
VERTEX
8
1
10
3107.478
20
-953.46
0
VERTEX
8
1
10
3113.931
20
-955.654
0
VERTEX
8
1
10
3107.598
20
-958.483
0
VERTEX
8
1
10
3107.376
20
-1018.238
0
VERTEX
8
1
10
3107.36
20
-1062.062
0
VERTEX
8
1
10
3107.45
20
-1105.795
0
VERTEX
8
1
10
3107.727
20
-1165.587
0
VERTEX
8
1
10
3258.428
20
-1165.992
0
VERTEX
8
1
10
3368.726
20
-1166.239
0
VERTEX
8
1
10
3468.493
20
-1166.49
0
VERTEX
8
1
10
3559.754
20
-1166.496
0
VERTEX
8
1
10
3651.023
20
-1166.402
0
VERTEX
8
1
10
3750.72
20
-1166.246
0
VERTEX
8
1
10
3860.956
20
-1165.987
0
VERTEX
8
1
10
4011.618
20
-1165.587
0
VERTEX
8
1
10
4011.696
20
-957.095
0
VERTEX
8
1
10
4011.629
20
-877.361
0
VERTEX
8
1
10
4011.447
20
-804.438
0
VERTEX
8
1
10
4011.265
20
-731.516
0
VERTEX
8
1
10
4010.891
20
-651.859
0
VERTEX
8
1
10
4009.864
20
-443.383
0
VERTEX
8
1
10
4008.713
20
-442.694
0
SEQEND
8
1
0
POINT
8
2
10
4008.713
20
-442.694
0
TEXT
8
2
10
4008.713
20
-442.694
40
10.00
1
#-65
0
POINT
8
2
10
3108.613
20
-445.59
0
TEXT
8
2
10
3108.613
20
-445.59
40
10.00
1
#-66
0
POINT
8
2
10
3108.491
20
-654.68
0
TEXT
8
2
10
3108.491
20
-654.68
40
10.00
1
#-67
0
POINT
8
2
10
3114.62
20
-655.847
0
TEXT
8
2
10
3114.62
20
-655.847
40
10.00
1
#-68
0
POINT
8
2
10
3108.511
20
-659.696
0
TEXT
8
2
10
3108.511
20
-659.696
40
10.00
1
#-69
0
POINT
8
2
10
3107.478
20
-953.46
0
TEXT
8
2
10
3107.478
20
-953.46
40
10.00
1
#-70
0
POINT
8
2
10
3113.931
20
-955.654
0
TEXT
8
2
10
3113.931
20
-955.654
40
10.00
1
#-71
0
POINT
8
2
10
3107.598
20
-958.483
0
TEXT
8
2
10
3107.598
20
-958.483
40
10.00
1
#-72
0
POINT
8
2
10
3107.727
20
-1165.587
0
TEXT
8
2
10
3107.727
20
-1165.587
40
10.00
1
#-73
0
POINT
8
2
10
4011.618
20
-1165.587
0
TEXT
8
2
10
4011.618
20
-1165.587
40
10.00
1
#-74
0
POINT
8
2
10
4009.864
20
-443.383
0
TEXT
8
2
10
4009.864
20
-443.383
40
10.00
1
#-75
0
POINT
8
3
10
3748.79
20
-443.728
0
POINT
8
3
10
3558.591
20
-444.437
0
POINT
8
3
10
3368.407
20
-444.947
0
POINT
8
3
10
3108.146
20
-505.927
0
POINT
8
3
10
3108
20
-550.143
0
POINT
8
3
10
3108.06
20
-594.274
0
POINT
8
3
10
3108.391
20
-744.53
0
POINT
8
3
10
3108.186
20
-806.693
0
POINT
8
3
10
3107.89
20
-868.748
0
POINT
8
3
10
3107.376
20
-1018.238
0
POINT
8
3
10
3107.36
20
-1062.062
0
POINT
8
3
10
3107.45
20
-1105.795
0
POINT
8
3
10
3258.428
20
-1165.992
0
POINT
8
3
10
3368.726
20
-1166.239
0
POINT
8
3
10
3468.493
20
-1166.49
0
POINT
8
3
10
3559.754
20
-1166.496
0
POINT
8
3
10
3651.023
20
-1166.402
0
POINT
8
3
10
3750.72
20
-1166.246
0
POINT
8
3
10
3860.956
20
-1165.987
0
POINT
8
3
10
4011.696
20
-957.095
0
POINT
8
3
10
4011.629
20
-877.361
0
POINT
8
3
10
4011.447
20
-804.438
0
POINT
8
3
10
4011.265
20
-731.516
0
POINT
8
3
10
4010.891
20
-651.859
0
POLYLINE
8
8
66
1
70
0
0
VERTEX
8
8
10
3116.24
20
-659.791
0
VERTEX
8
8
10
3140.317
20
-776.612
0
VERTEX
8
8
10
3116.24
20
-952.291
0
SEQEND
8
8
0
POINT
8
2
10
3116.24
20
-659.791
0
TEXT
8
2
10
3116.24
20
-659.791
40
10.00
1
#-76
0
POINT
8
2
10
3140.317
20
-776.612
0
TEXT
8
2
10
3140.317
20
-776.612
40
10.00
1
#-77
0
POINT
8
2
10
3116.24
20
-952.291
0
TEXT
8
2
10
3116.24
20
-952.291
40
10.00
1
#-78
0
POLYLINE
8
8
66
1
70
0
0
VERTEX
8
8
10
3785.186
20
-795.11
0
VERTEX
8
8
10
3781.783
20
-803.859
0
VERTEX
8
8
10
3778.867
20
-793.165
0
SEQEND
8
8
0
POINT
8
2
10
3785.186
20
-795.11
0
TEXT
8
2
10
3785.186
20
-795.11
40
10.00
1
#-79
0
POINT
8
2
10
3781.783
20
-803.859
0
TEXT
8
2
10
3781.783
20
-803.859
40
10.00
1
#-80
0
POINT
8
2
10
3778.867
20
-793.165
0
TEXT
8
2
10
3778.867
20
-793.165
40
10.00
1
#-81
0
POLYLINE
8
8
66
1
70
0
0
VERTEX
8
8
10
3782.269
20
-777.125
0
VERTEX
8
8
10
3782.269
20
-797.054
0
SEQEND
8
8
0
POINT
8
2
10
3782.269
20
-777.125
0
TEXT
8
2
10
3782.269
20
-777.125
40
10.00
1
#-82
0
POINT
8
2
10
3782.269
20
-797.054
0
TEXT
8
2
10
3782.269
20
-797.054
40
10.00
1
#-83
0
POLYLINE
8
8
66
1
70
0
0
VERTEX
8
8
10
3235.205
20
-805.275
0
VERTEX
8
8
10
3885.243
20
-804.268
0
SEQEND
8
8
0
POINT
8
2
10
3235.205
20
-805.275
0
TEXT
8
2
10
3235.205
20
-805.275
40
10.00
1
#-84
0
POINT
8
2
10
3885.243
20
-804.268
0
TEXT
8
2
10
3885.243
20
-804.268
40
10.00
1
#-85
0
LINE
8
7
10
3740.626
20
-671.481
11
3410.895
21
-671.481
0
POINT
8
2
10
3740.626
20
-671.481
0
TEXT
8
2
10
3740.626
20
-671.481
40
10.00
1
#-1
0
POINT
8
2
10
3410.895
20
-671.481
0
TEXT
8
2
10
3410.895
20
-671.481
40
10.00
1
#-1
0
POINT
8
13
10
3235.133
20
-805.596
0
TEXT
8
2
10
3235.133
20
-805.596
40
10.00
1
#-1
0
POINT
8
13
10
3885.097
20
-804.277
0
TEXT
8
2
10
3885.097
20
-804.277
40
10.00
1
#-1
0
TEXT
8
15
10
3752.116
20
-800.919
11
3775.416
21
-800.919
40
10.00
50
0
1
画线
0
TEXT
8
15
10
3147.464
20
-797.083
11
3176.864
21
-797.083
40
10.00
50
0
1
留口
0
TEXT
8
15
10
3768.064
20
-966.783
11
3802.864
21
-966.783
40
10.00
50
0
1
-31
0
TEXT
8
15
10
3240.372
20
-968.736
11
3318.006
21
-968.736
40
10.00
50
0
1
1.5米
0
TEXT
8
1
10
3410.895
20
-660.481
40
10.00
1
PIECE NAME: R265#拼包内袋白布2对
0
TEXT
8
1
10
3410.895
20
-649.481
40
10.00
1
SIZE: BS
0
TEXT
8
1
10
3410.895
20
-638.481
40
10.00
1
ANNOTATION: 
0
TEXT
8
1
10
3410.895
20
-627.481
40
10.00
1
QUANTITY: 1
0
TEXT
8
1
10
3410.895
20
-616.481
40
10.00
1
MATERIAL: 
0
ENDBLK
0
ENDSEC
0
SECTION
2
ENTITIES
0
INSERT
8
1
2
0
10
0
20
0
0
INSERT
8
1
2
1
10
0
20
0
0
INSERT
8
1
2
2
10
0
20
0
0
TEXT
8
1
10
0
20
-1792.642
40
10.00
1
STYLE NAME: R265# 1.5米 白布
0
TEXT
8
1
10
0
20
-1803.642
40
10.00
1
CREATION DATE: 07-08-2017
0
TEXT
8
1
10
0
20
-1814.642
40
10.00
1
CREATION TIME: 11:23:52
0
TEXT
8
1
10
0
20
-1825.642
40
10.00
1
AUTHOR: YINCAD
0
TEXT
8
1
10
0
20
-1836.642
40
10.00
1
PRODUCT: YINCAD PATTERNDESIGNER
0
TEXT
8
1
10
0
20
-1847.642
40
10.00
1
SAMPLE SIZE: BS
0
TEXT
8
1
10
0
20
-1858.642
40
10.00
1
GRADE RULE TABLE: R265# 1.5米 白布
0
TEXT
8
1
10
0
20
-1869.642
40
10.00
1
UNITS: METRIC
0
ENDSEC
0
EOF
