0
SECTION
2
HEADER
9
$LUNITS
70
2
9
$INSUNITS
70
4
0
ENDSEC
0
SECTION
2
TABLES
0
TABLE
2
LTYPE
70
1
0
LTYPE
2
CONTINUOUS
70
64
3
SOLIDLINE
72
65
73
0
40
0.0000
0
ENDTAB
0
TABLE
2
LAYER
70
14
0
LAYER
2
1
70
0
62
7
6
CONTINUOUS
0
LAYER
2
2
70
0
62
1
6
CONTINUOUS
0
LAYER
2
3
70
0
62
2
6
CONTINUOUS
0
LAYER
2
4
70
0
62
3
6
CONTINUOUS
0
LAYER
2
5
70
0
62
5
6
CONTINUOUS
0
LAYER
2
6
70
0
62
5
6
CONTINUOUS
0
LAYER
2
7
70
0
62
5
6
CONTINUOUS
0
LAYER
2
8
70
0
62
4
6
CONTINUOUS
0
LAYER
2
9
70
0
62
5
6
CONTINUOUS
0
LAYER
2
10
70
0
62
5
6
CONTINUOUS
0
LAYER
2
11
70
0
62
4
6
CONTINUOUS
0
LAYER
2
12
70
0
62
6
6
CONTINUOUS
0
LAYER
2
13
70
0
62
5
6
CONTINUOUS
0
LAYER
2
14
70
0
62
7
6
CONTINUOUS
0
LAYER
2
19
70
0
62
5
6
CONTINUOUS
0
ENDTAB
0
TABLE
2
STYLE
70
1
0
STYLE
2
STANDARD
70
0
40
0.0000
41
1.0000
50
0.0000
71
0
42
1.0000
3
txt
4

0
ENDTAB
0
ENDSEC
0
SECTION
2
BLOCKS
0
BLOCK
8
0
2
0
70
0
10
0.0000
20
0.0000
0
POLYLINE
8
1
66
1
70
1
0
VERTEX
8
1
10
4803.074
20
-7818.844
0
VERTEX
8
1
10
4803.904
20
-7729.478
0
VERTEX
8
1
10
4804.219
20
-7695.315
0
VERTEX
8
1
10
4804.386
20
-7664.063
0
VERTEX
8
1
10
4804.453
20
-7632.817
0
VERTEX
8
1
10
4804.573
20
-7598.764
0
VERTEX
8
1
10
4804.51
20
-7509.546
0
VERTEX
8
1
10
4803.632
20
-7473.643
0
VERTEX
8
1
10
4803.256
20
-7447.326
0
VERTEX
8
1
10
4803.08
20
-7420.999
0
VERTEX
8
1
10
4803.096
20
-7384.949
0
VERTEX
8
1
10
4798.939
20
-7383.965
0
VERTEX
8
1
10
4796.085
20
-7383.013
0
VERTEX
8
1
10
4793.531
20
-7382.045
0
VERTEX
8
1
10
4792.301
20
-7381.509
0
VERTEX
8
1
10
4791.271
20
-7380.962
0
VERTEX
8
1
10
4790.236
20
-7380.315
0
VERTEX
8
1
10
4789.096
20
-7379.574
0
VERTEX
8
1
10
4788.055
20
-7378.827
0
VERTEX
8
1
10
4787.109
20
-7377.975
0
VERTEX
8
1
10
4786.059
20
-7377.029
0
VERTEX
8
1
10
4785.102
20
-7375.978
0
VERTEX
8
1
10
4784.146
20
-7374.926
0
VERTEX
8
1
10
4783.185
20
-7373.775
0
VERTEX
8
1
10
4781.351
20
-7371.267
0
VERTEX
8
1
10
4779.602
20
-7368.455
0
VERTEX
8
1
10
4777.936
20
-7365.338
0
VERTEX
8
1
10
4776.256
20
-7361.921
0
VERTEX
8
1
10
4774.89
20
-7358.788
0
VERTEX
8
1
10
4773.608
20
-7355.35
0
VERTEX
8
1
10
4772.322
20
-7351.813
0
VERTEX
8
1
10
4771.009
20
-7347.776
0
VERTEX
8
1
10
4769.434
20
-7342.551
0
VERTEX
8
1
10
4767.827
20
-7336.727
0
VERTEX
8
1
10
4766.189
20
-7330.304
0
VERTEX
8
1
10
4764.026
20
-7321.505
0
VERTEX
8
1
10
4755.777
20
-7278.677
0
VERTEX
8
1
10
4749.831
20
-7247.345
0
VERTEX
8
1
10
4745.759
20
-7225.028
0
VERTEX
8
1
10
4739.688
20
-7191.299
0
VERTEX
8
1
10
4732.357
20
-7150.727
0
VERTEX
8
1
10
4725.457
20
-7112.635
0
VERTEX
8
1
10
4718.75
20
-7076.336
0
VERTEX
8
1
10
4712.222
20
-7041.53
0
VERTEX
8
1
10
4697.854
20
-6965.977
0
VERTEX
8
1
10
4623.357
20
-6966.071
0
VERTEX
8
1
10
4623.348
20
-7392.555
0
VERTEX
8
1
10
4623.228
20
-7818.844
0
VERTEX
8
1
10
4803.074
20
-7818.844
0
SEQEND
8
1
0
POINT
8
2
10
4803.074
20
-7818.844
0
TEXT
8
2
10
4803.074
20
-7818.844
40
10.00
1
#-74
0
POINT
8
2
10
4804.51
20
-7509.546
0
TEXT
8
2
10
4804.51
20
-7509.546
40
10.00
1
#-75
0
POINT
8
2
10
4803.096
20
-7384.949
0
TEXT
8
2
10
4803.096
20
-7384.949
40
10.00
1
#-76
0
POINT
8
2
10
4764.026
20
-7321.505
0
TEXT
8
2
10
4764.026
20
-7321.505
40
10.00
1
#-77
0
POINT
8
2
10
4697.854
20
-6965.977
0
TEXT
8
2
10
4697.854
20
-6965.977
40
10.00
1
#-78
0
POINT
8
2
10
4623.357
20
-6966.071
0
TEXT
8
2
10
4623.357
20
-6966.071
40
10.00
1
#-79
0
POINT
8
2
10
4623.228
20
-7818.844
0
TEXT
8
2
10
4623.228
20
-7818.844
40
10.00
1
#-80
0
POINT
8
3
10
4803.904
20
-7729.478
0
POINT
8
3
10
4804.219
20
-7695.315
0
POINT
8
3
10
4804.386
20
-7664.063
0
POINT
8
3
10
4804.453
20
-7632.817
0
POINT
8
3
10
4804.573
20
-7598.764
0
POINT
8
3
10
4803.632
20
-7473.643
0
POINT
8
3
10
4803.256
20
-7447.326
0
POINT
8
3
10
4803.08
20
-7420.999
0
POINT
8
3
10
4798.939
20
-7383.965
0
POINT
8
3
10
4796.085
20
-7383.013
0
POINT
8
3
10
4793.531
20
-7382.045
0
POINT
8
3
10
4792.301
20
-7381.509
0
POINT
8
3
10
4791.271
20
-7380.962
0
POINT
8
3
10
4790.236
20
-7380.315
0
POINT
8
3
10
4789.096
20
-7379.574
0
POINT
8
3
10
4788.055
20
-7378.827
0
POINT
8
3
10
4787.109
20
-7377.975
0
POINT
8
3
10
4786.059
20
-7377.029
0
POINT
8
3
10
4785.102
20
-7375.978
0
POINT
8
3
10
4784.146
20
-7374.926
0
POINT
8
3
10
4783.185
20
-7373.775
0
POINT
8
3
10
4781.351
20
-7371.267
0
POINT
8
3
10
4779.602
20
-7368.455
0
POINT
8
3
10
4777.936
20
-7365.338
0
POINT
8
3
10
4776.256
20
-7361.921
0
POINT
8
3
10
4774.89
20
-7358.788
0
POINT
8
3
10
4773.608
20
-7355.35
0
POINT
8
3
10
4772.322
20
-7351.813
0
POINT
8
3
10
4771.009
20
-7347.776
0
POINT
8
3
10
4769.434
20
-7342.551
0
POINT
8
3
10
4767.827
20
-7336.727
0
POINT
8
3
10
4766.189
20
-7330.304
0
POINT
8
3
10
4755.777
20
-7278.677
0
POINT
8
3
10
4749.831
20
-7247.345
0
POINT
8
3
10
4745.759
20
-7225.028
0
POINT
8
3
10
4739.688
20
-7191.299
0
POINT
8
3
10
4732.357
20
-7150.727
0
POINT
8
3
10
4725.457
20
-7112.635
0
POINT
8
3
10
4718.75
20
-7076.336
0
POINT
8
3
10
4712.222
20
-7041.53
0
POINT
8
3
10
4623.348
20
-7392.555
0
POLYLINE
8
8
66
1
70
0
0
VERTEX
8
8
10
4643.113
20
-7452.87
0
VERTEX
8
8
10
4762.607
20
-7452.87
0
VERTEX
8
8
10
4762.607
20
-7533.467
0
VERTEX
8
8
10
4638.951
20
-7533.467
0
VERTEX
8
8
10
4638.951
20
-7457.626
0
SEQEND
8
8
0
POINT
8
2
10
4643.113
20
-7452.87
0
TEXT
8
2
10
4643.113
20
-7452.87
40
10.00
1
#-81
0
POINT
8
2
10
4762.607
20
-7452.87
0
TEXT
8
2
10
4762.607
20
-7452.87
40
10.00
1
#-82
0
POINT
8
2
10
4762.607
20
-7533.467
0
TEXT
8
2
10
4762.607
20
-7533.467
40
10.00
1
#-83
0
POINT
8
2
10
4638.951
20
-7533.467
0
TEXT
8
2
10
4638.951
20
-7533.467
40
10.00
1
#-84
0
POINT
8
2
10
4638.951
20
-7457.626
0
TEXT
8
2
10
4638.951
20
-7457.626
40
10.00
1
#-85
0
POLYLINE
8
8
66
1
70
0
0
VERTEX
8
8
10
4711.667
20
-7544.672
0
VERTEX
8
8
10
4711.667
20
-7571.986
0
VERTEX
8
8
10
4709.481
20
-7571.986
0
SEQEND
8
8
0
POINT
8
2
10
4711.667
20
-7544.672
0
TEXT
8
2
10
4711.667
20
-7544.672
40
10.00
1
#-86
0
POINT
8
2
10
4711.667
20
-7571.986
0
TEXT
8
2
10
4711.667
20
-7571.986
40
10.00
1
#-87
0
POINT
8
2
10
4709.481
20
-7571.986
0
TEXT
8
2
10
4709.481
20
-7571.986
40
10.00
1
#-88
0
POLYLINE
8
8
66
1
70
0
0
VERTEX
8
8
10
4679.436
20
-7544.399
0
VERTEX
8
8
10
4679.436
20
-7624.633
0
SEQEND
8
8
0
POINT
8
2
10
4679.436
20
-7544.399
0
TEXT
8
2
10
4679.436
20
-7544.399
40
10.00
1
#-89
0
POINT
8
2
10
4679.436
20
-7624.633
0
TEXT
8
2
10
4679.436
20
-7624.633
40
10.00
1
#-90
0
POLYLINE
8
8
66
1
70
0
0
VERTEX
8
8
10
4719.056
20
-7624.693
0
VERTEX
8
8
10
4719.003
20
-7585.985
0
SEQEND
8
8
0
POINT
8
2
10
4719.056
20
-7624.693
0
TEXT
8
2
10
4719.056
20
-7624.693
40
10.00
1
#-91
0
POINT
8
2
10
4719.003
20
-7585.985
0
TEXT
8
2
10
4719.003
20
-7585.985
40
10.00
1
#-92
0
POLYLINE
8
8
66
1
70
0
0
VERTEX
8
8
10
4638.368
20
-7611.631
0
VERTEX
8
8
10
4762.794
20
-7611.631
0
SEQEND
8
8
0
POINT
8
2
10
4638.368
20
-7611.631
0
TEXT
8
2
10
4638.368
20
-7611.631
40
10.00
1
#-93
0
POINT
8
2
10
4762.794
20
-7611.631
0
TEXT
8
2
10
4762.794
20
-7611.631
40
10.00
1
#-94
0
POLYLINE
8
8
66
1
70
0
0
VERTEX
8
8
10
4638.758
20
-7598.15
0
VERTEX
8
8
10
4761.624
20
-7598.15
0
SEQEND
8
8
0
POINT
8
2
10
4638.758
20
-7598.15
0
TEXT
8
2
10
4638.758
20
-7598.15
40
10.00
1
#-95
0
POINT
8
2
10
4761.624
20
-7598.15
0
TEXT
8
2
10
4761.624
20
-7598.15
40
10.00
1
#-96
0
POLYLINE
8
8
66
1
70
0
0
VERTEX
8
8
10
4638.758
20
-7585.278
0
VERTEX
8
8
10
4761.624
20
-7585.278
0
SEQEND
8
8
0
POINT
8
2
10
4638.758
20
-7585.278
0
TEXT
8
2
10
4638.758
20
-7585.278
40
10.00
1
#-97
0
POINT
8
2
10
4761.624
20
-7585.278
0
TEXT
8
2
10
4761.624
20
-7585.278
40
10.00
1
#-98
0
POLYLINE
8
8
66
1
70
0
0
VERTEX
8
8
10
4638.758
20
-7572.407
0
VERTEX
8
8
10
4760.064
20
-7572.407
0
SEQEND
8
8
0
POINT
8
2
10
4638.758
20
-7572.407
0
TEXT
8
2
10
4638.758
20
-7572.407
40
10.00
1
#-99
0
POINT
8
2
10
4760.064
20
-7572.407
0
TEXT
8
2
10
4760.064
20
-7572.407
40
10.00
1
#-100
0
POLYLINE
8
8
66
1
70
0
0
VERTEX
8
8
10
4637.588
20
-7558.365
0
VERTEX
8
8
10
4760.454
20
-7558.365
0
SEQEND
8
8
0
POINT
8
2
10
4637.588
20
-7558.365
0
TEXT
8
2
10
4637.588
20
-7558.365
40
10.00
1
#-101
0
POINT
8
2
10
4760.454
20
-7558.365
0
TEXT
8
2
10
4760.454
20
-7558.365
40
10.00
1
#-102
0
POLYLINE
8
8
66
1
70
0
0
VERTEX
8
8
10
4642.881
20
-7544.81
0
VERTEX
8
8
10
4762.375
20
-7544.81
0
VERTEX
8
8
10
4762.375
20
-7624.407
0
VERTEX
8
8
10
4638.719
20
-7624.407
0
VERTEX
8
8
10
4638.719
20
-7549.566
0
SEQEND
8
8
0
POINT
8
2
10
4642.881
20
-7544.81
0
TEXT
8
2
10
4642.881
20
-7544.81
40
10.00
1
#-103
0
POINT
8
2
10
4762.375
20
-7544.81
0
TEXT
8
2
10
4762.375
20
-7544.81
40
10.00
1
#-104
0
POINT
8
2
10
4762.375
20
-7624.407
0
TEXT
8
2
10
4762.375
20
-7624.407
40
10.00
1
#-105
0
POINT
8
2
10
4638.719
20
-7624.407
0
TEXT
8
2
10
4638.719
20
-7624.407
40
10.00
1
#-106
0
POINT
8
2
10
4638.719
20
-7549.566
0
TEXT
8
2
10
4638.719
20
-7549.566
40
10.00
1
#-107
0
POLYLINE
8
8
66
1
70
0
0
VERTEX
8
8
10
4711.898
20
-7452.732
0
VERTEX
8
8
10
4711.898
20
-7480.047
0
VERTEX
8
8
10
4709.713
20
-7480.047
0
SEQEND
8
8
0
POINT
8
2
10
4711.898
20
-7452.732
0
TEXT
8
2
10
4711.898
20
-7452.732
40
10.00
1
#-108
0
POINT
8
2
10
4711.898
20
-7480.047
0
TEXT
8
2
10
4711.898
20
-7480.047
40
10.00
1
#-109
0
POINT
8
2
10
4709.713
20
-7480.047
0
TEXT
8
2
10
4709.713
20
-7480.047
40
10.00
1
#-110
0
POLYLINE
8
8
66
1
70
0
0
VERTEX
8
8
10
4679.668
20
-7452.459
0
VERTEX
8
8
10
4679.668
20
-7533.693
0
SEQEND
8
8
0
POINT
8
2
10
4679.668
20
-7452.459
0
TEXT
8
2
10
4679.668
20
-7452.459
40
10.00
1
#-111
0
POINT
8
2
10
4679.668
20
-7533.693
0
TEXT
8
2
10
4679.668
20
-7533.693
40
10.00
1
#-112
0
POLYLINE
8
8
66
1
70
0
0
VERTEX
8
8
10
4638.6
20
-7519.692
0
VERTEX
8
8
10
4763.026
20
-7519.692
0
SEQEND
8
8
0
POINT
8
2
10
4638.6
20
-7519.692
0
TEXT
8
2
10
4638.6
20
-7519.692
40
10.00
1
#-113
0
POINT
8
2
10
4763.026
20
-7519.692
0
TEXT
8
2
10
4763.026
20
-7519.692
40
10.00
1
#-114
0
POLYLINE
8
8
66
1
70
0
0
VERTEX
8
8
10
4638.99
20
-7506.21
0
VERTEX
8
8
10
4761.856
20
-7506.21
0
SEQEND
8
8
0
POINT
8
2
10
4638.99
20
-7506.21
0
TEXT
8
2
10
4638.99
20
-7506.21
40
10.00
1
#-115
0
POINT
8
2
10
4761.856
20
-7506.21
0
TEXT
8
2
10
4761.856
20
-7506.21
40
10.00
1
#-116
0
POLYLINE
8
8
66
1
70
0
0
VERTEX
8
8
10
4638.99
20
-7493.339
0
VERTEX
8
8
10
4761.856
20
-7493.339
0
SEQEND
8
8
0
POINT
8
2
10
4638.99
20
-7493.339
0
TEXT
8
2
10
4638.99
20
-7493.339
40
10.00
1
#-117
0
POINT
8
2
10
4761.856
20
-7493.339
0
TEXT
8
2
10
4761.856
20
-7493.339
40
10.00
1
#-118
0
POLYLINE
8
8
66
1
70
0
0
VERTEX
8
8
10
4638.99
20
-7480.467
0
VERTEX
8
8
10
4760.296
20
-7480.467
0
SEQEND
8
8
0
POINT
8
2
10
4638.99
20
-7480.467
0
TEXT
8
2
10
4638.99
20
-7480.467
40
10.00
1
#-119
0
POINT
8
2
10
4760.296
20
-7480.467
0
TEXT
8
2
10
4760.296
20
-7480.467
40
10.00
1
#-120
0
POLYLINE
8
8
66
1
70
0
0
VERTEX
8
8
10
4637.82
20
-7466.425
0
VERTEX
8
8
10
4760.686
20
-7466.425
0
SEQEND
8
8
0
POINT
8
2
10
4637.82
20
-7466.425
0
TEXT
8
2
10
4637.82
20
-7466.425
40
10.00
1
#-121
0
POINT
8
2
10
4760.686
20
-7466.425
0
TEXT
8
2
10
4760.686
20
-7466.425
40
10.00
1
#-122
0
POLYLINE
8
8
66
1
70
0
0
VERTEX
8
8
10
4745.449
20
-7636.563
0
VERTEX
8
8
10
4745.449
20
-7705.054
0
SEQEND
8
8
0
POINT
8
2
10
4745.449
20
-7636.563
0
TEXT
8
2
10
4745.449
20
-7636.563
40
10.00
1
#-123
0
POINT
8
2
10
4745.449
20
-7705.054
0
TEXT
8
2
10
4745.449
20
-7705.054
40
10.00
1
#-124
0
POLYLINE
8
8
66
1
70
0
0
VERTEX
8
8
10
4705.16
20
-7637.183
0
VERTEX
8
8
10
4705.16
20
-7704.125
0
SEQEND
8
8
0
POINT
8
2
10
4705.16
20
-7637.183
0
TEXT
8
2
10
4705.16
20
-7637.183
40
10.00
1
#-125
0
POINT
8
2
10
4705.16
20
-7704.125
0
TEXT
8
2
10
4705.16
20
-7704.125
40
10.00
1
#-126
0
POLYLINE
8
8
66
1
70
0
0
VERTEX
8
8
10
4672.928
20
-7637.183
0
VERTEX
8
8
10
4672.928
20
-7704.435
0
SEQEND
8
8
0
POINT
8
2
10
4672.928
20
-7637.183
0
TEXT
8
2
10
4672.928
20
-7637.183
40
10.00
1
#-127
0
POINT
8
2
10
4672.928
20
-7704.435
0
TEXT
8
2
10
4672.928
20
-7704.435
40
10.00
1
#-128
0
POLYLINE
8
8
66
1
70
0
0
VERTEX
8
8
10
4654.643
20
-7636.873
0
VERTEX
8
8
10
4654.643
20
-7705.674
0
SEQEND
8
8
0
POINT
8
2
10
4654.643
20
-7636.873
0
TEXT
8
2
10
4654.643
20
-7636.873
40
10.00
1
#-129
0
POINT
8
2
10
4654.643
20
-7705.674
0
TEXT
8
2
10
4654.643
20
-7705.674
40
10.00
1
#-130
0
POLYLINE
8
8
66
1
70
0
0
VERTEX
8
8
10
4627.061
20
-7693.588
0
VERTEX
8
8
10
4779.684
20
-7693.588
0
SEQEND
8
8
0
POINT
8
2
10
4627.061
20
-7693.588
0
TEXT
8
2
10
4627.061
20
-7693.588
40
10.00
1
#-131
0
POINT
8
2
10
4779.684
20
-7693.588
0
TEXT
8
2
10
4779.684
20
-7693.588
40
10.00
1
#-132
0
POLYLINE
8
8
66
1
70
0
0
VERTEX
8
8
10
4627.061
20
-7682.121
0
VERTEX
8
8
10
4780.304
20
-7682.121
0
SEQEND
8
8
0
POINT
8
2
10
4627.061
20
-7682.121
0
TEXT
8
2
10
4627.061
20
-7682.121
40
10.00
1
#-133
0
POINT
8
2
10
4780.304
20
-7682.121
0
TEXT
8
2
10
4780.304
20
-7682.121
40
10.00
1
#-134
0
POLYLINE
8
8
66
1
70
0
0
VERTEX
8
8
10
4628.92
20
-7670.964
0
VERTEX
8
8
10
4777.514
20
-7670.964
0
SEQEND
8
8
0
POINT
8
2
10
4628.92
20
-7670.964
0
TEXT
8
2
10
4628.92
20
-7670.964
40
10.00
1
#-135
0
POINT
8
2
10
4777.514
20
-7670.964
0
TEXT
8
2
10
4777.514
20
-7670.964
40
10.00
1
#-136
0
POLYLINE
8
8
66
1
70
0
0
VERTEX
8
8
10
4627.371
20
-7659.187
0
VERTEX
8
8
10
4778.754
20
-7659.187
0
SEQEND
8
8
0
POINT
8
2
10
4627.371
20
-7659.187
0
TEXT
8
2
10
4627.371
20
-7659.187
40
10.00
1
#-137
0
POINT
8
2
10
4778.754
20
-7659.187
0
TEXT
8
2
10
4778.754
20
-7659.187
40
10.00
1
#-138
0
POLYLINE
8
8
66
1
70
0
0
VERTEX
8
8
10
4628.61
20
-7648.03
0
VERTEX
8
8
10
4779.684
20
-7648.03
0
SEQEND
8
8
0
POINT
8
2
10
4628.61
20
-7648.03
0
TEXT
8
2
10
4628.61
20
-7648.03
40
10.00
1
#-139
0
POINT
8
2
10
4779.684
20
-7648.03
0
TEXT
8
2
10
4779.684
20
-7648.03
40
10.00
1
#-140
0
POLYLINE
8
8
66
1
70
0
0
VERTEX
8
8
10
4628.61
20
-7637.183
0
VERTEX
8
8
10
4780.614
20
-7637.183
0
VERTEX
8
8
10
4780.614
20
-7705.075
0
VERTEX
8
8
10
4627.061
20
-7705.075
0
VERTEX
8
8
10
4627.061
20
-7650.819
0
SEQEND
8
8
0
POINT
8
2
10
4628.61
20
-7637.183
0
TEXT
8
2
10
4628.61
20
-7637.183
40
10.00
1
#-141
0
POINT
8
2
10
4780.614
20
-7637.183
0
TEXT
8
2
10
4780.614
20
-7637.183
40
10.00
1
#-142
0
POINT
8
2
10
4780.614
20
-7705.075
0
TEXT
8
2
10
4780.614
20
-7705.075
40
10.00
1
#-143
0
POINT
8
2
10
4627.061
20
-7705.075
0
TEXT
8
2
10
4627.061
20
-7705.075
40
10.00
1
#-144
0
POINT
8
2
10
4627.061
20
-7650.819
0
TEXT
8
2
10
4627.061
20
-7650.819
40
10.00
1
#-145
0
LINE
8
7
10
4793.685
20
-7416.017
11
4628.207
21
-7416.017
0
POINT
8
2
10
4793.685
20
-7416.017
0
TEXT
8
2
10
4793.685
20
-7416.017
40
10.00
1
#-1
0
POINT
8
2
10
4628.207
20
-7416.017
0
TEXT
8
2
10
4628.207
20
-7416.017
40
10.00
1
#-1
0
TEXT
8
15
10
4652.028
20
-6990.444
11
4668.028
21
-6990.444
40
10.00
50
0
1
上
0
TEXT
8
15
10
4650.231
20
-7555.578
11
4667.207
21
-7555.578
40
10.00
50
0
1
型号
0
TEXT
8
15
10
4648.645
20
-7570.268
11
4667.087
21
-7570.268
40
10.00
50
0
1
工序
0
TEXT
8
15
10
4641.908
20
-7582.942
11
4676.819
21
-7582.942
40
10.00
50
0
1
规格名称
0
TEXT
8
15
10
4640.695
20
-7595.913
11
4676.418
21
-7595.913
40
10.00
50
0
1
材料名称
0
TEXT
8
15
10
4639.777
20
-7609.093
11
4678.783
21
-7609.093
40
10.00
50
0
1
L8245#0.5分
0
TEXT
8
15
10
4639.929
20
-7622.744
11
4679.337
21
-7622.744
40
10.00
50
0
1
L0450#3分
0
TEXT
8
15
10
4682.004
20
-7464.068
11
4709.558
21
-7464.068
40
10.00
50
0
1
R265#
0
TEXT
8
15
10
4713.403
20
-7463.57
11
4762.084
21
-7463.57
40
10.00
50
0
1
制作时间2017.1.17
0
TEXT
8
15
10
4689.717
20
-7478.089
11
4703.189
21
-7478.089
40
10.00
50
0
1
1件
0
TEXT
8
15
10
4713.9
20
-7478.299
11
4752.439
21
-7478.299
40
10.00
50
0
1
负责人A13
0
TEXT
8
15
10
4704.528
20
-7490.244
11
4719.787
21
-7490.244
40
10.00
50
0
1
开棉
0
TEXT
8
15
10
4700.089
20
-7502.979
11
4729.618
21
-7502.979
40
10.00
50
0
1
1.5*1.9
0
TEXT
8
15
10
4699.663
20
-7517.554
11
4736.965
21
-7517.554
40
10.00
50
0
1
模板编号
0
TEXT
8
15
10
4717.062
20
-7531.172
11
4719.556
21
-7531.172
40
10.00
50
0
1
1
0
TEXT
8
15
10
4680.533
20
-7556.255
11
4709.299
21
-7556.255
40
10.00
50
0
1
R265#
0
TEXT
8
15
10
4712.631
20
-7555.578
11
4761.054
21
-7555.578
40
10.00
50
0
1
制作时间2017.1.17
0
TEXT
8
15
10
4684.959
20
-7570.816
11
4703.59
21
-7570.816
40
10.00
50
0
1
开棉
0
TEXT
8
15
10
4714.848
20
-7570.516
11
4755.043
21
-7570.516
40
10.00
50
0
1
负责人A13
0
TEXT
8
15
10
4701.418
20
-7583.019
11
4729.899
21
-7583.019
40
10.00
50
0
1
1.5*1.9
0
TEXT
8
15
10
4681.116
20
-7595.034
11
4715.928
21
-7595.034
40
10.00
50
0
1
模板总件数
0
TEXT
8
15
10
4723.079
20
-7595.069
11
4761.863
21
-7595.069
40
10.00
50
0
1
实际使用件数
0
TEXT
8
15
10
4687.05
20
-7609.466
11
4698.181
21
-7609.466
40
10.00
50
0
1
1件
0
TEXT
8
15
10
4740.853
20
-7608.043
11
4754.332
21
-7608.043
40
10.00
50
0
1
7件
0
TEXT
8
15
10
4742.324
20
-7622.819
11
4753.339
21
-7622.819
40
10.00
50
0
1
1件
0
TEXT
8
15
10
4631.511
20
-7646.823
11
4654.383
21
-7646.823
40
10.00
50
0
1
海绵型号
0
TEXT
8
15
10
4656.59
20
-7646.927
11
4669.585
21
-7646.927
40
10.00
50
0
1
厚度
0
TEXT
8
15
10
4674.008
20
-7646.644
11
4685.459
21
-7646.644
40
10.00
50
0
1
部位
0
TEXT
8
15
10
4692.761
20
-7644.067
11
4704.174
21
-7644.067
40
10.00
50
0
1
名称
0
TEXT
8
15
10
4628.73
20
-7657.086
11
4654.365
21
-7657.086
40
10.00
50
0
1
L8245#
0
TEXT
8
15
10
4628.364
20
-7668.066
11
4654.088
21
-7668.066
40
10.00
50
0
1
L8245#
0
TEXT
8
15
10
4628.547
20
-7679.046
11
4653.951
21
-7679.046
40
10.00
50
0
1
L8245#
0
TEXT
8
15
10
4628.364
20
-7691.124
11
4653.824
21
-7691.124
40
10.00
50
0
1
L8245#
0
TEXT
8
15
10
4628.747
20
-7702.627
11
4654.389
21
-7702.627
40
10.00
50
0
1
L0450#
0
TEXT
8
15
10
4656.73
20
-7657.086
11
4670.939
21
-7657.086
40
10.00
50
0
1
0.5分
0
TEXT
8
15
10
4656.913
20
-7668.981
11
4670.898
21
-7668.981
40
10.00
50
0
1
0.5分
0
TEXT
8
15
10
4656.547
20
-7679.961
11
4670.466
21
-7679.961
40
10.00
50
0
1
0.5分
0
TEXT
8
15
10
4656.73
20
-7692.039
11
4669.968
21
-7692.039
40
10.00
50
0
1
0.5分
0
TEXT
8
15
10
4658.781
20
-7702.491
11
4669.23
21
-7702.491
40
10.00
50
0
1
3分
0
TEXT
8
15
10
4677.447
20
-7657.808
11
4698.647
21
-7657.808
40
10.00
50
0
1
拼架后
0
TEXT
8
15
10
4677.566
20
-7669.491
11
4698.21
21
-7669.491
40
10.00
50
0
1
拼架前
0
TEXT
8
15
10
4678.713
20
-7680.923
11
4693.522
21
-7680.923
40
10.00
50
0
1
侧板
0
TEXT
8
15
10
4679.973
20
-7691.859
11
4693.518
21
-7691.859
40
10.00
50
0
1
尾板
0
TEXT
8
15
10
4678.692
20
-7702.659
11
4697.596
21
-7702.659
40
10.00
50
0
1
尾板包
0
TEXT
8
15
10
4708.128
20
-7701.644
11
4742.528
21
-7701.644
40
10.00
50
0
1
113*25=1件
0
TEXT
8
15
10
4707.828
20
-7656.444
11
4742.028
21
-7656.444
40
10.00
50
0
1
161*86=1件
0
TEXT
8
15
10
4708.128
20
-7668.444
11
4742.028
21
-7668.444
40
10.00
50
0
1
161*95=1件
0
TEXT
8
15
10
4708.328
20
-7679.244
11
4743.228
21
-7679.244
40
10.00
50
0
1
183*27=2件
0
TEXT
8
15
10
4707.828
20
-7690.544
11
4742.628
21
-7690.544
40
10.00
50
0
1
168*27=1件
0
TEXT
8
15
10
4747.866
20
-7702.64
11
4770.767
21
-7702.64
40
10.00
50
0
1
四周粘边
0
TEXT
8
15
10
4723.428
20
-7780.544
11
4765.628
21
-7780.544
40
10.00
50
0
1
1-1
0
TEXT
8
15
10
4650.234
20
-7464.949
11
4670.459
21
-7464.949
40
10.00
50
0
1
型号
0
TEXT
8
15
10
4641.628
20
-7478.644
11
4677.799
21
-7478.644
40
10.00
50
0
1
模板总件数
0
TEXT
8
15
10
4649.281
20
-7491.561
11
4668.598
21
-7491.561
40
10.00
50
0
1
工序
0
TEXT
8
15
10
4641.328
20
-7504.944
11
4678.705
21
-7504.944
40
10.00
50
0
1
规格名称
0
TEXT
8
15
10
4640.181
20
-7517.849
11
4677.479
21
-7517.849
40
10.00
50
0
1
材料名称
0
TEXT
8
15
10
4639.828
20
-7531.579
11
4679.3
21
-7531.579
40
10.00
50
0
1
L8245#0.5分
0
TEXT
8
15
10
4688.028
20
-7339.044
11
4719.061
21
-7339.044
40
10.00
50
0
1
1.5米
0
TEXT
8
1
10
4628.207
20
-7405.017
40
10.00
1
PIECE NAME: R265#拼架侧海棉L8245#0.5cm 2件
0
TEXT
8
1
10
4628.207
20
-7394.017
40
10.00
1
SIZE: BS
0
TEXT
8
1
10
4628.207
20
-7383.017
40
10.00
1
ANNOTATION: 
0
TEXT
8
1
10
4628.207
20
-7372.017
40
10.00
1
QUANTITY: 1
0
TEXT
8
1
10
4628.207
20
-7361.017
40
10.00
1
MATERIAL: 
0
ENDBLK
0
ENDSEC
0
SECTION
2
ENTITIES
0
INSERT
8
1
2
0
10
0
20
0
0
TEXT
8
1
10
0
20
-7838.844
40
10.00
1
STYLE NAME: R265#拼架侧海棉L8245#0.5cm 2件
0
TEXT
8
1
10
0
20
-7849.844
40
10.00
1
CREATION DATE: 07-08-2017
0
TEXT
8
1
10
0
20
-7860.844
40
10.00
1
CREATION TIME: 11:24:57
0
TEXT
8
1
10
0
20
-7871.844
40
10.00
1
AUTHOR: YINCAD
0
TEXT
8
1
10
0
20
-7882.844
40
10.00
1
PRODUCT: YINCAD PATTERNDESIGNER
0
TEXT
8
1
10
0
20
-7893.844
40
10.00
1
SAMPLE SIZE: BS
0
TEXT
8
1
10
0
20
-7904.844
40
10.00
1
GRADE RULE TABLE: R265#拼架侧海棉L8245#0.5cm 2件
0
TEXT
8
1
10
0
20
-7915.844
40
10.00
1
UNITS: METRIC
0
ENDSEC
0
EOF
